<ttFont>
    <TTGlyph name=".notdef" xMin="50" yMin="0" xMax="450" yMax="750">
      <contour>
        <pt x="50" y="0" on="1"/>
        <pt x="50" y="750" on="1"/>
        <pt x="450" y="750" on="1"/>
        <pt x="450" y="0" on="1"/>
      </contour>
      <contour>
        <pt x="400" y="50" on="1"/>
        <pt x="400" y="700" on="1"/>
        <pt x="100" y="700" on="1"/>
        <pt x="100" y="50" on="1"/>
      </contour>
    </TTGlyph>
    <TTGlyph name="A" xMin="10" yMin="0" xMax="632" yMax="693">
      <contour>
        <pt x="214" y="178" on="1"/>
        <pt x="116" y="0" on="1"/>
        <pt x="10" y="0" on="1"/>
        <pt x="122" y="202" on="0"/>
        <pt x="335" y="542" on="0"/>
        <pt x="439" y="693" on="1"/>
        <pt x="534" y="693" on="1"/>
        <pt x="549" y="618" on="0"/>
        <pt x="574" y="465" on="0"/>
        <pt x="598" y="297" on="0"/>
        <pt x="620" y="109" on="0"/>
        <pt x="632" y="0" on="1"/>
        <pt x="534" y="0" on="1"/>
        <pt x="529" y="45" on="0"/>
        <pt x="521" y="136" on="0"/>
        <pt x="516" y="178" on="1"/>
      </contour>
      <contour>
        <pt x="507" y="256" on="1"/>
        <pt x="499" y="337" on="0"/>
        <pt x="478" y="497" on="0"/>
        <pt x="464" y="582" on="1"/>
        <pt x="429" y="531" on="0"/>
        <pt x="325" y="370" on="0"/>
        <pt x="259" y="256" on="1"/>
      </contour>
    </TTGlyph>
    <TTGlyph name="AE" xMin="3" yMin="0" xMax="1027" yMax="693">
      <contour>
        <pt x="510" y="178" on="1"/>
        <pt x="245" y="178" on="1"/>
        <pt x="211" y="133" on="0"/>
        <pt x="146" y="45" on="0"/>
        <pt x="114" y="0" on="1"/>
        <pt x="3" y="0" on="1"/>
        <pt x="82" y="108" on="0"/>
        <pt x="231" y="299" on="0"/>
        <pt x="374" y="469" on="0"/>
        <pt x="513" y="622" on="0"/>
        <pt x="582" y="693" on="1"/>
        <pt x="1027" y="693" on="1"/>
        <pt x="1008" y="612" on="1"/>
        <pt x="710" y="612" on="1"/>
        <pt x="660" y="403" on="1"/>
        <pt x="923" y="403" on="1"/>
        <pt x="904" y="324" on="1"/>
        <pt x="642" y="324" on="1"/>
        <pt x="583" y="81" on="1"/>
        <pt x="904" y="81" on="1"/>
        <pt x="885" y="0" on="1"/>
        <pt x="468" y="0" on="1"/>
      </contour>
      <contour>
        <pt x="615" y="613" on="1"/>
        <pt x="537" y="531" on="0"/>
        <pt x="381" y="352" on="0"/>
        <pt x="306" y="256" on="1"/>
        <pt x="529" y="256" on="1"/>
      </contour>
    </TTGlyph>
    <TTGlyph name="AEacute" xMin="3" yMin="0" xMax="1027" yMax="936">
      <component glyphName="AE" x="0" y="0" flags="0x204"/>
      <component glyphName="acute" x="414" y="156" flags="0x4"/>
    </TTGlyph>
    <TTGlyph name="Aacute" xMin="10" yMin="0" xMax="632" yMax="936">
      <component glyphName="A" x="0" y="0" flags="0x204"/>
      <component glyphName="acute" x="159" y="156" flags="0x4"/>
    </TTGlyph>
    <TTGlyph name="Abreve" xMin="10" yMin="0" xMax="668" yMax="905">
      <component glyphName="A" x="0" y="0" flags="0x204"/>
      <component glyphName="breve" x="166" y="156" flags="0x4"/>
    </TTGlyph>
    <TTGlyph name="Acircumflex" xMin="10" yMin="0" xMax="638" yMax="925">
      <component glyphName="A" x="0" y="0" flags="0x204"/>
      <component glyphName="circumflex" x="160" y="156" flags="0x4"/>
    </TTGlyph>
    <TTGlyph name="Adieresis" xMin="10" yMin="0" xMax="670" yMax="890">
      <component glyphName="A" x="0" y="0" flags="0x204"/>
      <component glyphName="dieresis" x="167" y="156" flags="0x4"/>
    </TTGlyph>
    <TTGlyph name="Agrave" xMin="10" yMin="0" xMax="632" yMax="935">
      <component glyphName="A" x="0" y="0" flags="0x204"/>
      <component glyphName="grave" x="160" y="156" flags="0x4"/>
    </TTGlyph>
    <TTGlyph name="Alpha" xMin="10" yMin="0" xMax="632" yMax="693">
      <component glyphName="A" x="0" y="0" flags="0x204"/>
    </TTGlyph>
    <TTGlyph name="Alphatonos" xMin="10" yMin="0" xMax="632" yMax="709">
      <component glyphName="A" x="0" y="0" flags="0x204"/>
      <component glyphName="tonos.cap" x="-79" y="0" flags="0x4"/>
    </TTGlyph>
    <TTGlyph name="Amacron" xMin="10" yMin="0" xMax="665" yMax="867">
      <component glyphName="A" x="0" y="0" flags="0x204"/>
      <component glyphName="macron" x="167" y="156" flags="0x4"/>
    </TTGlyph>
    <TTGlyph name="Aogonek" xMin="10" yMin="-187" xMax="632" yMax="693">
      <contour>
        <pt x="632" y="4" on="1"/>
        <pt x="620" y="-4" on="0"/>
        <pt x="591" y="-25" on="0"/>
        <pt x="574" y="-39" on="1"/>
        <pt x="568" y="-44" on="0"/>
        <pt x="552" y="-57" on="0"/>
        <pt x="538" y="-73" on="0"/>
        <pt x="528" y="-91" on="0"/>
        <pt x="528" y="-101" on="1"/>
        <pt x="528" y="-111" on="0"/>
        <pt x="545" y="-123" on="0"/>
        <pt x="565" y="-123" on="1"/>
        <pt x="575" y="-123" on="0"/>
        <pt x="596" y="-119" on="0"/>
        <pt x="605" y="-116" on="1"/>
        <pt x="597" y="-176" on="1"/>
        <pt x="573" y="-187" on="0"/>
        <pt x="539" y="-187" on="1"/>
        <pt x="484" y="-187" on="0"/>
        <pt x="440" y="-152" on="0"/>
        <pt x="440" y="-124" on="1"/>
        <pt x="440" y="-97" on="0"/>
        <pt x="476" y="-47" on="0"/>
        <pt x="500" y="-27" on="1"/>
        <pt x="510" y="-19" on="0"/>
        <pt x="527" y="-6" on="0"/>
        <pt x="534" y="-1" on="1"/>
        <pt x="529" y="44" on="0"/>
        <pt x="521" y="132" on="0"/>
        <pt x="516" y="178" on="1"/>
        <pt x="214" y="178" on="1"/>
        <pt x="116" y="0" on="1"/>
        <pt x="10" y="0" on="1"/>
        <pt x="122" y="202" on="0"/>
        <pt x="335" y="542" on="0"/>
        <pt x="439" y="693" on="1"/>
        <pt x="534" y="693" on="1"/>
        <pt x="549" y="618" on="0"/>
        <pt x="574" y="465" on="0"/>
        <pt x="598" y="299" on="0"/>
        <pt x="620" y="113" on="0"/>
      </contour>
      <contour>
        <pt x="464" y="582" on="1"/>
        <pt x="429" y="531" on="0"/>
        <pt x="325" y="370" on="0"/>
        <pt x="259" y="256" on="1"/>
        <pt x="507" y="256" on="1"/>
        <pt x="499" y="337" on="0"/>
        <pt x="478" y="497" on="0"/>
      </contour>
    </TTGlyph>
    <TTGlyph name="Aring" xMin="10" yMin="0" xMax="632" yMax="839">
      <contour>
        <pt x="534" y="0" on="1"/>
        <pt x="529" y="45" on="0"/>
        <pt x="521" y="136" on="0"/>
        <pt x="516" y="178" on="1"/>
        <pt x="214" y="178" on="1"/>
        <pt x="116" y="0" on="1"/>
        <pt x="10" y="0" on="1"/>
        <pt x="116" y="191" on="0"/>
        <pt x="318" y="517" on="0"/>
        <pt x="417" y="662" on="1"/>
        <pt x="403" y="675" on="0"/>
        <pt x="386" y="713" on="0"/>
        <pt x="386" y="737" on="1"/>
        <pt x="386" y="761" on="0"/>
        <pt x="403" y="798" on="0"/>
        <pt x="431" y="825" on="0"/>
        <pt x="468" y="839" on="0"/>
        <pt x="489" y="839" on="1"/>
        <pt x="510" y="839" on="0"/>
        <pt x="547" y="825" on="0"/>
        <pt x="575" y="798" on="0"/>
        <pt x="592" y="761" on="0"/>
        <pt x="592" y="737" on="1"/>
        <pt x="592" y="706" on="0"/>
        <pt x="565" y="661" on="0"/>
        <pt x="543" y="648" on="1"/>
        <pt x="556" y="578" on="0"/>
        <pt x="578" y="435" on="0"/>
        <pt x="599" y="277" on="0"/>
        <pt x="620" y="102" on="0"/>
        <pt x="632" y="0" on="1"/>
      </contour>
      <contour>
        <pt x="542" y="737" on="1"/>
        <pt x="542" y="763" on="0"/>
        <pt x="511" y="792" on="0"/>
        <pt x="489" y="792" on="1"/>
        <pt x="467" y="792" on="0"/>
        <pt x="436" y="763" on="0"/>
        <pt x="436" y="737" on="1"/>
        <pt x="436" y="711" on="0"/>
        <pt x="467" y="682" on="0"/>
        <pt x="489" y="682" on="1"/>
        <pt x="511" y="682" on="0"/>
        <pt x="542" y="711" on="0"/>
      </contour>
      <contour>
        <pt x="464" y="582" on="1"/>
        <pt x="429" y="531" on="0"/>
        <pt x="325" y="370" on="0"/>
        <pt x="259" y="256" on="1"/>
        <pt x="507" y="256" on="1"/>
        <pt x="499" y="337" on="0"/>
        <pt x="478" y="497" on="0"/>
      </contour>
    </TTGlyph>
    <TTGlyph name="Aringacute" xMin="10" yMin="0" xMax="632" yMax="962">
      <contour>
        <pt x="534" y="0" on="1"/>
        <pt x="529" y="45" on="0"/>
        <pt x="521" y="136" on="0"/>
        <pt x="516" y="178" on="1"/>
        <pt x="214" y="178" on="1"/>
        <pt x="116" y="0" on="1"/>
        <pt x="10" y="0" on="1"/>
        <pt x="116" y="193" on="0"/>
        <pt x="320" y="520" on="0"/>
        <pt x="420" y="666" on="1"/>
        <pt x="398" y="691" on="0"/>
        <pt x="398" y="729" on="1"/>
        <pt x="398" y="772" on="0"/>
        <pt x="453" y="821" on="0"/>
        <pt x="491" y="821" on="1"/>
        <pt x="528" y="821" on="0"/>
        <pt x="584" y="772" on="0"/>
        <pt x="584" y="729" on="1"/>
        <pt x="584" y="702" on="0"/>
        <pt x="561" y="662" on="0"/>
        <pt x="542" y="651" on="1"/>
        <pt x="555" y="580" on="0"/>
        <pt x="578" y="436" on="0"/>
        <pt x="599" y="278" on="0"/>
        <pt x="620" y="102" on="0"/>
        <pt x="632" y="0" on="1"/>
      </contour>
      <contour>
        <pt x="598" y="892" on="1"/>
        <pt x="437" y="831" on="1"/>
        <pt x="420" y="880" on="1"/>
        <pt x="577" y="962" on="1"/>
      </contour>
      <contour>
        <pt x="539" y="729" on="1"/>
        <pt x="539" y="752" on="0"/>
        <pt x="511" y="778" on="0"/>
        <pt x="491" y="778" on="1"/>
        <pt x="471" y="778" on="0"/>
        <pt x="443" y="752" on="0"/>
        <pt x="443" y="729" on="1"/>
        <pt x="443" y="706" on="0"/>
        <pt x="471" y="679" on="0"/>
        <pt x="491" y="679" on="1"/>
        <pt x="511" y="679" on="0"/>
        <pt x="539" y="706" on="0"/>
      </contour>
      <contour>
        <pt x="464" y="582" on="1"/>
        <pt x="429" y="531" on="0"/>
        <pt x="325" y="370" on="0"/>
        <pt x="259" y="256" on="1"/>
        <pt x="507" y="256" on="1"/>
        <pt x="499" y="337" on="0"/>
        <pt x="478" y="497" on="0"/>
      </contour>
    </TTGlyph>
    <TTGlyph name="At" xMin="127" yMin="-85" xMax="973" yMax="777">
      <component glyphName="at" x="16" y="68" flags="0x214"/>
    </TTGlyph>
    <TTGlyph name="Atilde" xMin="10" yMin="0" xMax="688" yMax="893">
      <component glyphName="A" x="0" y="0" flags="0x204"/>
      <component glyphName="tilde" x="165" y="156" flags="0x4"/>
    </TTGlyph>
    <TTGlyph name="B" xMin="84" yMin="-7" xMax="663" yMax="700">
      <contour>
        <pt x="263" y="-7" on="1"/>
        <pt x="243" y="-7" on="0"/>
        <pt x="196" y="-5" on="0"/>
        <pt x="148" y="-1" on="0"/>
        <pt x="102" y="6" on="0"/>
        <pt x="84" y="11" on="1"/>
        <pt x="245" y="683" on="1"/>
        <pt x="287" y="693" on="0"/>
        <pt x="390" y="700" on="0"/>
        <pt x="431" y="700" on="1"/>
        <pt x="482" y="700" on="0"/>
        <pt x="567" y="683" on="0"/>
        <pt x="628" y="646" on="0"/>
        <pt x="663" y="586" on="0"/>
        <pt x="663" y="544" on="1"/>
        <pt x="663" y="483" on="0"/>
        <pt x="590" y="390" on="0"/>
        <pt x="526" y="367" on="1"/>
        <pt x="569" y="351" on="0"/>
        <pt x="622" y="285" on="0"/>
        <pt x="622" y="237" on="1"/>
        <pt x="622" y="168" on="0"/>
        <pt x="566" y="74" on="0"/>
        <pt x="469" y="17" on="0"/>
        <pt x="338" y="-7" on="0"/>
      </contour>
      <contour>
        <pt x="254" y="324" on="1"/>
        <pt x="196" y="78" on="1"/>
        <pt x="207" y="76" on="0"/>
        <pt x="251" y="73" on="0"/>
        <pt x="285" y="73" on="1"/>
        <pt x="322" y="73" on="0"/>
        <pt x="406" y="84" on="0"/>
        <pt x="476" y="117" on="0"/>
        <pt x="523" y="177" on="0"/>
        <pt x="523" y="227" on="1"/>
        <pt x="523" y="276" on="0"/>
        <pt x="453" y="324" on="0"/>
        <pt x="375" y="324" on="1"/>
      </contour>
      <contour>
        <pt x="273" y="400" on="1"/>
        <pt x="368" y="400" on="1"/>
        <pt x="401" y="400" on="0"/>
        <pt x="470" y="411" on="0"/>
        <pt x="527" y="440" on="0"/>
        <pt x="564" y="490" on="0"/>
        <pt x="564" y="529" on="1"/>
        <pt x="564" y="580" on="0"/>
        <pt x="488" y="620" on="0"/>
        <pt x="410" y="620" on="1"/>
        <pt x="384" y="620" on="0"/>
        <pt x="334" y="616" on="0"/>
        <pt x="325" y="614" on="1"/>
      </contour>
    </TTGlyph>
    <TTGlyph name="Backslash" xMin="176" yMin="-138" xMax="367" yMax="830">
      <component glyphName="backslash" x="11" y="47" flags="0x214"/>
    </TTGlyph>
    <TTGlyph name="Beta" xMin="84" yMin="-7" xMax="663" yMax="700">
      <component glyphName="B" x="0" y="0" flags="0x204"/>
    </TTGlyph>
    <TTGlyph name="Braceleft" xMin="113" yMin="-138" xMax="518" yMax="830">
      <component glyphName="braceleft" x="11" y="47" flags="0x214"/>
    </TTGlyph>
    <TTGlyph name="Braceright" xMin="-31" yMin="-138" xMax="374" yMax="830">
      <component glyphName="braceright" x="11" y="47" flags="0x214"/>
    </TTGlyph>
    <TTGlyph name="Bracketleft" xMin="59" yMin="-138" xMax="513" yMax="830">
      <component glyphName="bracketleft" x="11" y="47" flags="0x214"/>
    </TTGlyph>
    <TTGlyph name="Bracketright" xMin="-30" yMin="-138" xMax="424" yMax="830">
      <component glyphName="bracketright" x="11" y="47" flags="0x214"/>
    </TTGlyph>
    <TTGlyph name="Bullet" xMin="134" yMin="226" xMax="390" yMax="480">
      <component glyphName="bullet" x="0" y="0" flags="0x204"/>
    </TTGlyph>
    <TTGlyph name="C" xMin="124" yMin="-15" xMax="716" yMax="709">
      <contour>
        <pt x="387" y="-15" on="1"/>
        <pt x="322" y="-15" on="0"/>
        <pt x="223" y="23" on="0"/>
        <pt x="157" y="93" on="0"/>
        <pt x="124" y="192" on="0"/>
        <pt x="124" y="254" on="1"/>
        <pt x="124" y="344" on="0"/>
        <pt x="181" y="508" on="0"/>
        <pt x="286" y="634" on="0"/>
        <pt x="434" y="709" on="0"/>
        <pt x="525" y="709" on="1"/>
        <pt x="603" y="709" on="0"/>
        <pt x="696" y="677" on="0"/>
        <pt x="716" y="663" on="1"/>
        <pt x="676" y="583" on="1"/>
        <pt x="653" y="598" on="0"/>
        <pt x="574" y="625" on="0"/>
        <pt x="520" y="625" on="1"/>
        <pt x="451" y="625" on="0"/>
        <pt x="341" y="560" on="0"/>
        <pt x="265" y="457" on="0"/>
        <pt x="225" y="328" on="0"/>
        <pt x="225" y="265" on="1"/>
        <pt x="225" y="70" on="0"/>
        <pt x="394" y="70" on="1"/>
        <pt x="430" y="70" on="0"/>
        <pt x="487" y="80" on="0"/>
        <pt x="531" y="93" on="0"/>
        <pt x="565" y="109" on="0"/>
        <pt x="578" y="115" on="1"/>
        <pt x="590" y="31" on="1"/>
        <pt x="578" y="24" on="0"/>
        <pt x="539" y="8" on="0"/>
        <pt x="487" y="-6" on="0"/>
        <pt x="423" y="-15" on="0"/>
      </contour>
    </TTGlyph>
    <TTGlyph name="Cacute" xMin="124" yMin="-15" xMax="716" yMax="936">
      <component glyphName="C" x="0" y="0" flags="0x204"/>
      <component glyphName="acute" x="195" y="156" flags="0x4"/>
    </TTGlyph>
    <TTGlyph name="Ccaron" xMin="124" yMin="-15" xMax="716" yMax="930">
      <component glyphName="C" x="0" y="0" flags="0x204"/>
      <component glyphName="caron" x="201" y="156" flags="0x4"/>
    </TTGlyph>
    <TTGlyph name="Ccedilla" xMin="124" yMin="-189" xMax="716" yMax="709">
      <contour>
        <pt x="382" y="-15" on="1"/>
        <pt x="377" y="-20" on="0"/>
        <pt x="370" y="-32" on="0"/>
        <pt x="366" y="-38" on="1"/>
        <pt x="386" y="-49" on="0"/>
        <pt x="406" y="-75" on="0"/>
        <pt x="406" y="-98" on="1"/>
        <pt x="406" y="-143" on="0"/>
        <pt x="344" y="-189" on="0"/>
        <pt x="290" y="-189" on="1"/>
        <pt x="261" y="-189" on="0"/>
        <pt x="222" y="-180" on="0"/>
        <pt x="209" y="-174" on="1"/>
        <pt x="232" y="-119" on="1"/>
        <pt x="240" y="-123" on="0"/>
        <pt x="266" y="-130" on="0"/>
        <pt x="285" y="-130" on="1"/>
        <pt x="302" y="-130" on="0"/>
        <pt x="324" y="-119" on="0"/>
        <pt x="324" y="-105" on="1"/>
        <pt x="324" y="-93" on="0"/>
        <pt x="308" y="-81" on="0"/>
        <pt x="289" y="-72" on="1"/>
        <pt x="283" y="-69" on="1"/>
        <pt x="290" y="-57" on="0"/>
        <pt x="312" y="-23" on="0"/>
        <pt x="323" y="-9" on="1"/>
        <pt x="223" y="8" on="0"/>
        <pt x="124" y="145" on="0"/>
        <pt x="124" y="254" on="1"/>
        <pt x="124" y="344" on="0"/>
        <pt x="181" y="508" on="0"/>
        <pt x="286" y="634" on="0"/>
        <pt x="434" y="709" on="0"/>
        <pt x="525" y="709" on="1"/>
        <pt x="603" y="709" on="0"/>
        <pt x="696" y="677" on="0"/>
        <pt x="716" y="663" on="1"/>
        <pt x="676" y="583" on="1"/>
        <pt x="653" y="598" on="0"/>
        <pt x="574" y="625" on="0"/>
        <pt x="520" y="625" on="1"/>
        <pt x="451" y="625" on="0"/>
        <pt x="341" y="560" on="0"/>
        <pt x="265" y="457" on="0"/>
        <pt x="225" y="328" on="0"/>
        <pt x="225" y="265" on="1"/>
        <pt x="225" y="70" on="0"/>
        <pt x="394" y="70" on="1"/>
        <pt x="430" y="70" on="0"/>
        <pt x="487" y="80" on="0"/>
        <pt x="531" y="93" on="0"/>
        <pt x="565" y="109" on="0"/>
        <pt x="578" y="115" on="1"/>
        <pt x="590" y="31" on="1"/>
        <pt x="578" y="24" on="0"/>
        <pt x="539" y="8" on="0"/>
        <pt x="487" y="-6" on="0"/>
        <pt x="423" y="-15" on="0"/>
        <pt x="387" y="-15" on="1"/>
      </contour>
    </TTGlyph>
    <TTGlyph name="Ccircumflex" xMin="124" yMin="-15" xMax="716" yMax="925">
      <component glyphName="C" x="0" y="0" flags="0x204"/>
      <component glyphName="circumflex" x="196" y="156" flags="0x4"/>
    </TTGlyph>
    <TTGlyph name="Cdotaccent" xMin="124" yMin="-15" xMax="716" yMax="892">
      <component glyphName="C" x="0" y="0" flags="0x204"/>
      <component glyphName="dotaccent" x="226" y="156" flags="0x4"/>
    </TTGlyph>
    <TTGlyph name="Chi" xMin="13" yMin="0" xMax="717" yMax="693">
      <component glyphName="X" x="0" y="0" flags="0x204"/>
    </TTGlyph>
    <TTGlyph name="D" xMin="84" yMin="-7" xMax="729" yMax="700">
      <contour>
        <pt x="415" y="618" on="1"/>
        <pt x="340" y="618" on="0"/>
        <pt x="325" y="614" on="1"/>
        <pt x="197" y="80" on="1"/>
        <pt x="205" y="78" on="0"/>
        <pt x="243" y="75" on="0"/>
        <pt x="286" y="75" on="1"/>
        <pt x="365" y="75" on="0"/>
        <pt x="492" y="128" on="0"/>
        <pt x="580" y="223" on="0"/>
        <pt x="628" y="354" on="0"/>
        <pt x="628" y="432" on="1"/>
        <pt x="628" y="520" on="0"/>
        <pt x="526" y="618" on="0"/>
      </contour>
      <contour>
        <pt x="423" y="700" on="1"/>
        <pt x="577" y="700" on="0"/>
        <pt x="729" y="555" on="0"/>
        <pt x="729" y="432" on="1"/>
        <pt x="729" y="346" on="0"/>
        <pt x="675" y="187" on="0"/>
        <pt x="561" y="65" on="0"/>
        <pt x="384" y="-7" on="0"/>
        <pt x="261" y="-7" on="1"/>
        <pt x="219" y="-7" on="0"/>
        <pt x="121" y="1" on="0"/>
        <pt x="84" y="11" on="1"/>
        <pt x="245" y="684" on="1"/>
        <pt x="287" y="694" on="0"/>
        <pt x="381" y="700" on="0"/>
      </contour>
    </TTGlyph>
    <TTGlyph name="Dcaron" xMin="84" yMin="-7" xMax="729" yMax="930">
      <component glyphName="D" x="0" y="0" flags="0x204"/>
      <component glyphName="caron" x="186" y="156" flags="0x4"/>
    </TTGlyph>
    <TTGlyph name="Dcroat" xMin="97" yMin="-7" xMax="748" yMax="700">
      <component glyphName="Eth" x="0" y="0" flags="0x204"/>
    </TTGlyph>
    <TTGlyph name="Delta" xMin="10" yMin="0" xMax="620" yMax="693">
      <component glyphName="uni0394" x="0" y="0" flags="0x204"/>
    </TTGlyph>
    <TTGlyph name="E" xMin="81" yMin="0" xMax="656" yMax="693">
      <contour>
        <pt x="81" y="0" on="1"/>
        <pt x="247" y="693" on="1"/>
        <pt x="656" y="693" on="1"/>
        <pt x="637" y="612" on="1"/>
        <pt x="324" y="612" on="1"/>
        <pt x="274" y="403" on="1"/>
        <pt x="552" y="403" on="1"/>
        <pt x="533" y="324" on="1"/>
        <pt x="256" y="324" on="1"/>
        <pt x="197" y="81" on="1"/>
        <pt x="533" y="81" on="1"/>
        <pt x="514" y="0" on="1"/>
      </contour>
    </TTGlyph>
    <TTGlyph name="Eacute" xMin="81" yMin="0" xMax="656" yMax="936">
      <component glyphName="E" x="0" y="0" flags="0x204"/>
      <component glyphName="acute" x="127" y="156" flags="0x4"/>
    </TTGlyph>
    <TTGlyph name="Ebreve" xMin="81" yMin="0" xMax="656" yMax="905">
      <component glyphName="E" x="0" y="0" flags="0x204"/>
      <component glyphName="breve" x="134" y="156" flags="0x4"/>
    </TTGlyph>
    <TTGlyph name="Ecaron" xMin="81" yMin="0" xMax="656" yMax="930">
      <component glyphName="E" x="0" y="0" flags="0x204"/>
      <component glyphName="caron" x="134" y="156" flags="0x4"/>
    </TTGlyph>
    <TTGlyph name="Ecircumflex" xMin="81" yMin="0" xMax="656" yMax="925">
      <component glyphName="E" x="0" y="0" flags="0x204"/>
      <component glyphName="circumflex" x="129" y="156" flags="0x4"/>
    </TTGlyph>
    <TTGlyph name="Edieresis" xMin="81" yMin="0" xMax="656" yMax="890">
      <component glyphName="E" x="0" y="0" flags="0x204"/>
      <component glyphName="dieresis" x="135" y="156" flags="0x4"/>
    </TTGlyph>
    <TTGlyph name="Edotaccent" xMin="81" yMin="0" xMax="656" yMax="892">
      <component glyphName="E" x="0" y="0" flags="0x204"/>
      <component glyphName="dotaccent" x="158" y="156" flags="0x4"/>
    </TTGlyph>
    <TTGlyph name="Egrave" xMin="81" yMin="0" xMax="656" yMax="935">
      <component glyphName="E" x="0" y="0" flags="0x204"/>
      <component glyphName="grave" x="128" y="156" flags="0x4"/>
    </TTGlyph>
    <TTGlyph name="Emacron" xMin="81" yMin="0" xMax="656" yMax="867">
      <component glyphName="E" x="0" y="0" flags="0x204"/>
      <component glyphName="macron" x="136" y="156" flags="0x4"/>
    </TTGlyph>
    <TTGlyph name="Emdash" xMin="72" yMin="307" xMax="1091" yMax="386">
      <component glyphName="emdash" x="11" y="47" flags="0x214"/>
    </TTGlyph>
    <TTGlyph name="Endash" xMin="72" yMin="307" xMax="591" yMax="386">
      <component glyphName="endash" x="11" y="47" flags="0x214"/>
    </TTGlyph>
    <TTGlyph name="Eng" xMin="81" yMin="-187" xMax="778" yMax="693">
      <contour>
        <pt x="613" y="0" on="1"/>
        <pt x="602" y="-46" on="0"/>
        <pt x="577" y="-116" on="0"/>
        <pt x="537" y="-163" on="0"/>
        <pt x="474" y="-187" on="0"/>
        <pt x="425" y="-187" on="1"/>
        <pt x="411" y="-187" on="0"/>
        <pt x="371" y="-179" on="0"/>
        <pt x="363" y="-174" on="1"/>
        <pt x="387" y="-104" on="1"/>
        <pt x="393" y="-107" on="0"/>
        <pt x="415" y="-112" on="0"/>
        <pt x="429" y="-112" on="1"/>
        <pt x="469" y="-112" on="0"/>
        <pt x="503" y="-62" on="0"/>
        <pt x="514" y="-17" on="1"/>
        <pt x="523" y="21" on="1"/>
        <pt x="505" y="80" on="0"/>
        <pt x="455" y="223" on="0"/>
        <pt x="398" y="368" on="0"/>
        <pt x="337" y="503" on="0"/>
        <pt x="309" y="554" on="1"/>
        <pt x="176" y="0" on="1"/>
        <pt x="81" y="0" on="1"/>
        <pt x="247" y="693" on="1"/>
        <pt x="330" y="693" on="1"/>
        <pt x="362" y="639" on="0"/>
        <pt x="429" y="502" on="0"/>
        <pt x="490" y="358" on="0"/>
        <pt x="542" y="220" on="0"/>
        <pt x="559" y="165" on="1"/>
        <pt x="683" y="693" on="1"/>
        <pt x="778" y="693" on="1"/>
      </contour>
    </TTGlyph>
    <TTGlyph name="Eogonek" xMin="81" yMin="-187" xMax="656" yMax="693">
      <contour>
        <pt x="419" y="-187" on="1"/>
        <pt x="364" y="-187" on="0"/>
        <pt x="320" y="-152" on="0"/>
        <pt x="320" y="-124" on="1"/>
        <pt x="320" y="-97" on="0"/>
        <pt x="356" y="-47" on="0"/>
        <pt x="380" y="-27" on="1"/>
        <pt x="390" y="-19" on="0"/>
        <pt x="409" y="-5" on="0"/>
        <pt x="416" y="0" on="1"/>
        <pt x="81" y="0" on="1"/>
        <pt x="247" y="693" on="1"/>
        <pt x="656" y="693" on="1"/>
        <pt x="637" y="612" on="1"/>
        <pt x="324" y="612" on="1"/>
        <pt x="274" y="403" on="1"/>
        <pt x="552" y="403" on="1"/>
        <pt x="533" y="324" on="1"/>
        <pt x="256" y="324" on="1"/>
        <pt x="197" y="81" on="1"/>
        <pt x="533" y="81" on="1"/>
        <pt x="515" y="5" on="1"/>
        <pt x="502" y="-3" on="0"/>
        <pt x="471" y="-24" on="0"/>
        <pt x="454" y="-39" on="1"/>
        <pt x="448" y="-44" on="0"/>
        <pt x="432" y="-57" on="0"/>
        <pt x="418" y="-73" on="0"/>
        <pt x="408" y="-91" on="0"/>
        <pt x="408" y="-101" on="1"/>
        <pt x="408" y="-111" on="0"/>
        <pt x="425" y="-123" on="0"/>
        <pt x="445" y="-123" on="1"/>
        <pt x="455" y="-123" on="0"/>
        <pt x="476" y="-119" on="0"/>
        <pt x="485" y="-116" on="1"/>
        <pt x="477" y="-176" on="1"/>
        <pt x="453" y="-187" on="0"/>
      </contour>
    </TTGlyph>
    <TTGlyph name="Epsilon" xMin="81" yMin="0" xMax="656" yMax="693">
      <component glyphName="E" x="0" y="0" flags="0x204"/>
    </TTGlyph>
    <TTGlyph name="Epsilontonos" xMin="93" yMin="0" xMax="724" yMax="709">
      <component glyphName="E" x="68" y="0" flags="0x4"/>
      <component glyphName="tonos.cap" x="-154" y="0" flags="0x4"/>
    </TTGlyph>
    <TTGlyph name="Eta" xMin="81" yMin="0" xMax="762" yMax="693">
      <component glyphName="H" x="0" y="0" flags="0x204"/>
    </TTGlyph>
    <TTGlyph name="Etatonos" xMin="93" yMin="0" xMax="830" yMax="709">
      <component glyphName="H" x="68" y="0" flags="0x4"/>
      <component glyphName="tonos.cap" x="-154" y="0" flags="0x4"/>
    </TTGlyph>
    <TTGlyph name="Eth" xMin="97" yMin="-7" xMax="748" yMax="700">
      <contour>
        <pt x="442" y="700" on="1"/>
        <pt x="596" y="700" on="0"/>
        <pt x="748" y="555" on="0"/>
        <pt x="748" y="432" on="1"/>
        <pt x="748" y="346" on="0"/>
        <pt x="694" y="187" on="0"/>
        <pt x="580" y="65" on="0"/>
        <pt x="403" y="-7" on="0"/>
        <pt x="280" y="-7" on="1"/>
        <pt x="238" y="-7" on="0"/>
        <pt x="140" y="1" on="0"/>
        <pt x="103" y="11" on="1"/>
        <pt x="178" y="324" on="1"/>
        <pt x="97" y="324" on="1"/>
        <pt x="115" y="399" on="1"/>
        <pt x="196" y="399" on="1"/>
        <pt x="264" y="684" on="1"/>
        <pt x="306" y="694" on="0"/>
        <pt x="400" y="700" on="0"/>
      </contour>
      <contour>
        <pt x="434" y="618" on="1"/>
        <pt x="359" y="618" on="0"/>
        <pt x="344" y="614" on="1"/>
        <pt x="292" y="399" on="1"/>
        <pt x="422" y="399" on="1"/>
        <pt x="404" y="324" on="1"/>
        <pt x="274" y="324" on="1"/>
        <pt x="216" y="80" on="1"/>
        <pt x="224" y="78" on="0"/>
        <pt x="262" y="75" on="0"/>
        <pt x="305" y="75" on="1"/>
        <pt x="384" y="75" on="0"/>
        <pt x="511" y="128" on="0"/>
        <pt x="599" y="223" on="0"/>
        <pt x="647" y="354" on="0"/>
        <pt x="647" y="432" on="1"/>
        <pt x="647" y="520" on="0"/>
        <pt x="545" y="618" on="0"/>
      </contour>
    </TTGlyph>
    <TTGlyph name="Euro" xMin="104" yMin="-13" xMax="686" yMax="706">
      <contour>
        <pt x="288" y="227" on="1"/>
        <pt x="288" y="209" on="1"/>
        <pt x="288" y="167" on="0"/>
        <pt x="309" y="112" on="0"/>
        <pt x="345" y="80" on="0"/>
        <pt x="394" y="67" on="0"/>
        <pt x="422" y="67" on="1"/>
        <pt x="467" y="67" on="0"/>
        <pt x="531" y="84" on="0"/>
        <pt x="555" y="95" on="1"/>
        <pt x="558" y="16" on="1"/>
        <pt x="551" y="12" on="0"/>
        <pt x="521" y="2" on="0"/>
        <pt x="480" y="-7" on="0"/>
        <pt x="434" y="-13" on="0"/>
        <pt x="411" y="-13" on="1"/>
        <pt x="306" y="-13" on="0"/>
        <pt x="196" y="96" on="0"/>
        <pt x="196" y="204" on="1"/>
        <pt x="196" y="227" on="1"/>
        <pt x="104" y="227" on="1"/>
        <pt x="121" y="299" on="1"/>
        <pt x="201" y="299" on="1"/>
        <pt x="204" y="324" on="0"/>
        <pt x="214" y="374" on="0"/>
        <pt x="221" y="400" on="1"/>
        <pt x="144" y="400" on="1"/>
        <pt x="161" y="472" on="1"/>
        <pt x="245" y="472" on="1"/>
        <pt x="265" y="521" on="0"/>
        <pt x="323" y="606" on="0"/>
        <pt x="403" y="669" on="0"/>
        <pt x="504" y="706" on="0"/>
        <pt x="566" y="706" on="1"/>
        <pt x="605" y="706" on="0"/>
        <pt x="660" y="694" on="0"/>
        <pt x="686" y="683" on="1"/>
        <pt x="649" y="608" on="1"/>
        <pt x="633" y="616" on="0"/>
        <pt x="592" y="627" on="0"/>
        <pt x="554" y="627" on="1"/>
        <pt x="515" y="627" on="0"/>
        <pt x="451" y="603" on="0"/>
        <pt x="398" y="562" on="0"/>
        <pt x="357" y="505" on="0"/>
        <pt x="342" y="472" on="1"/>
        <pt x="579" y="472" on="1"/>
        <pt x="549" y="400" on="1"/>
        <pt x="315" y="400" on="1"/>
        <pt x="307" y="375" on="0"/>
        <pt x="297" y="324" on="0"/>
        <pt x="294" y="299" on="1"/>
        <pt x="505" y="299" on="1"/>
        <pt x="475" y="227" on="1"/>
      </contour>
    </TTGlyph>
    <TTGlyph name="Exclamdown" xMin="72" yMin="0" xMax="337" yMax="705">
      <component glyphName="exclamdown" x="43" y="185" flags="0x214"/>
    </TTGlyph>
    <TTGlyph name="F" xMin="81" yMin="0" xMax="652" yMax="693">
      <contour>
        <pt x="81" y="0" on="1"/>
        <pt x="247" y="693" on="1"/>
        <pt x="652" y="693" on="1"/>
        <pt x="633" y="612" on="1"/>
        <pt x="324" y="612" on="1"/>
        <pt x="273" y="400" on="1"/>
        <pt x="547" y="400" on="1"/>
        <pt x="528" y="321" on="1"/>
        <pt x="255" y="321" on="1"/>
        <pt x="178" y="0" on="1"/>
      </contour>
    </TTGlyph>
    <TTGlyph name="G" xMin="124" yMin="-14" xMax="729" yMax="709">
      <contour>
        <pt x="380" y="-14" on="1"/>
        <pt x="254" y="-14" on="0"/>
        <pt x="124" y="131" on="0"/>
        <pt x="124" y="254" on="1"/>
        <pt x="124" y="344" on="0"/>
        <pt x="181" y="508" on="0"/>
        <pt x="287" y="634" on="0"/>
        <pt x="436" y="709" on="0"/>
        <pt x="529" y="709" on="1"/>
        <pt x="575" y="709" on="0"/>
        <pt x="642" y="697" on="0"/>
        <pt x="690" y="681" on="0"/>
        <pt x="720" y="664" on="0"/>
        <pt x="729" y="658" on="1"/>
        <pt x="686" y="579" on="1"/>
        <pt x="678" y="584" on="0"/>
        <pt x="650" y="600" on="0"/>
        <pt x="610" y="615" on="0"/>
        <pt x="558" y="625" on="0"/>
        <pt x="525" y="625" on="1"/>
        <pt x="454" y="625" on="0"/>
        <pt x="342" y="560" on="0"/>
        <pt x="265" y="457" on="0"/>
        <pt x="225" y="328" on="0"/>
        <pt x="225" y="265" on="1"/>
        <pt x="225" y="166" on="0"/>
        <pt x="309" y="69" on="0"/>
        <pt x="400" y="69" on="1"/>
        <pt x="437" y="69" on="0"/>
        <pt x="497" y="79" on="0"/>
        <pt x="510" y="84" on="1"/>
        <pt x="570" y="338" on="1"/>
        <pt x="665" y="338" on="1"/>
        <pt x="589" y="22" on="1"/>
        <pt x="577" y="15" on="0"/>
        <pt x="535" y="2" on="0"/>
        <pt x="479" y="-8" on="0"/>
        <pt x="414" y="-14" on="0"/>
      </contour>
    </TTGlyph>
    <TTGlyph name="Gamma" xMin="81" yMin="0" xMax="639" yMax="693">
      <component glyphName="afii10020" x="0" y="0" flags="0x204"/>
    </TTGlyph>
    <TTGlyph name="Gbreve" xMin="124" yMin="-14" xMax="729" yMax="905">
      <component glyphName="G" x="0" y="0" flags="0x204"/>
      <component glyphName="breve" x="205" y="156" flags="0x4"/>
    </TTGlyph>
    <TTGlyph name="Gcaron" xMin="124" yMin="-14" xMax="729" yMax="930">
      <component glyphName="G" x="0" y="0" flags="0x204"/>
      <component glyphName="caron" x="205" y="156" flags="0x4"/>
    </TTGlyph>
    <TTGlyph name="Gcircumflex" xMin="124" yMin="-14" xMax="729" yMax="925">
      <component glyphName="G" x="0" y="0" flags="0x204"/>
      <component glyphName="circumflex" x="199" y="156" flags="0x4"/>
    </TTGlyph>
    <TTGlyph name="Gcommaaccent" xMin="124" yMin="-187" xMax="729" yMax="709">
      <component glyphName="G" x="0" y="0" flags="0x204"/>
      <component glyphName="commaaccent" x="260" y="0" flags="0x4"/>
    </TTGlyph>
    <TTGlyph name="Gdotaccent" xMin="124" yMin="-14" xMax="729" yMax="892">
      <component glyphName="G" x="0" y="0" flags="0x204"/>
      <component glyphName="dotaccent" x="229" y="156" flags="0x4"/>
    </TTGlyph>
    <TTGlyph name="Guillemotleft" xMin="110" yMin="125" xMax="579" yMax="567">
      <component glyphName="guilsinglleft" x="14" y="62" flags="0x4"/>
      <component glyphName="guilsinglleft" x="222" y="62" flags="0x4"/>
    </TTGlyph>
    <TTGlyph name="Guillemotright" xMin="84" yMin="125" xMax="553" yMax="567">
      <component glyphName="guilsinglright" x="14" y="62" flags="0x4"/>
      <component glyphName="guilsinglright" x="222" y="62" flags="0x4"/>
    </TTGlyph>
    <TTGlyph name="Guilsinglleft" xMin="110" yMin="125" xMax="371" yMax="567">
      <component glyphName="guilsinglleft" x="14" y="62" flags="0x214"/>
    </TTGlyph>
    <TTGlyph name="Guilsinglright" xMin="84" yMin="125" xMax="345" yMax="567">
      <component glyphName="guilsinglright" x="14" y="62" flags="0x214"/>
    </TTGlyph>
    <TTGlyph name="H" xMin="81" yMin="0" xMax="762" yMax="693">
      <contour>
        <pt x="596" y="0" on="1"/>
        <pt x="499" y="0" on="1"/>
        <pt x="576" y="322" on="1"/>
        <pt x="255" y="322" on="1"/>
        <pt x="178" y="0" on="1"/>
        <pt x="81" y="0" on="1"/>
        <pt x="247" y="693" on="1"/>
        <pt x="344" y="693" on="1"/>
        <pt x="274" y="403" on="1"/>
        <pt x="595" y="403" on="1"/>
        <pt x="665" y="693" on="1"/>
        <pt x="762" y="693" on="1"/>
      </contour>
    </TTGlyph>
    <TTGlyph name="Hbar" xMin="95" yMin="0" xMax="827" yMax="693">
      <contour>
        <pt x="752" y="594" on="1"/>
        <pt x="827" y="594" on="1"/>
        <pt x="810" y="523" on="1"/>
        <pt x="735" y="523" on="1"/>
        <pt x="610" y="0" on="1"/>
        <pt x="513" y="0" on="1"/>
        <pt x="590" y="322" on="1"/>
        <pt x="269" y="322" on="1"/>
        <pt x="192" y="0" on="1"/>
        <pt x="95" y="0" on="1"/>
        <pt x="220" y="523" on="1"/>
        <pt x="145" y="523" on="1"/>
        <pt x="162" y="594" on="1"/>
        <pt x="237" y="594" on="1"/>
        <pt x="261" y="693" on="1"/>
        <pt x="358" y="693" on="1"/>
        <pt x="334" y="594" on="1"/>
        <pt x="655" y="594" on="1"/>
        <pt x="679" y="693" on="1"/>
        <pt x="776" y="693" on="1"/>
      </contour>
      <contour>
        <pt x="609" y="403" on="1"/>
        <pt x="638" y="523" on="1"/>
        <pt x="317" y="523" on="1"/>
        <pt x="288" y="403" on="1"/>
      </contour>
    </TTGlyph>
    <TTGlyph name="Hcircumflex" xMin="81" yMin="0" xMax="762" yMax="925">
      <component glyphName="H" x="0" y="0" flags="0x204"/>
      <component glyphName="circumflex" x="180" y="156" flags="0x4"/>
    </TTGlyph>
    <TTGlyph name="Hyphen" xMin="92" yMin="303" xMax="354" yMax="390">
      <component glyphName="hyphen" x="5" y="47" flags="0x214"/>
    </TTGlyph>
    <TTGlyph name="I" xMin="81" yMin="0" xMax="344" yMax="693">
      <contour>
        <pt x="247" y="693" on="1"/>
        <pt x="344" y="693" on="1"/>
        <pt x="178" y="0" on="1"/>
        <pt x="81" y="0" on="1"/>
      </contour>
    </TTGlyph>
    <TTGlyph name="IJ" xMin="81" yMin="-15" xMax="834" yMax="693">
      <component glyphName="I" x="0" y="0" flags="0x4"/>
      <component glyphName="J" x="267" y="0" flags="0x4"/>
    </TTGlyph>
    <TTGlyph name="Iacute" xMin="81" yMin="0" xMax="444" yMax="936">
      <component glyphName="I" x="0" y="0" flags="0x204"/>
      <component glyphName="acute" x="-27" y="156" flags="0x4"/>
    </TTGlyph>
    <TTGlyph name="Ibreve" xMin="81" yMin="0" xMax="482" yMax="905">
      <component glyphName="I" x="0" y="0" flags="0x204"/>
      <component glyphName="breve" x="-20" y="156" flags="0x4"/>
    </TTGlyph>
    <TTGlyph name="Icircumflex" xMin="81" yMin="0" xMax="452" yMax="925">
      <component glyphName="I" x="0" y="0" flags="0x204"/>
      <component glyphName="circumflex" x="-26" y="156" flags="0x4"/>
    </TTGlyph>
    <TTGlyph name="Idieresis" xMin="81" yMin="0" xMax="484" yMax="890">
      <component glyphName="I" x="0" y="0" flags="0x204"/>
      <component glyphName="dieresis" x="-19" y="156" flags="0x4"/>
    </TTGlyph>
    <TTGlyph name="Idotaccent" xMin="81" yMin="0" xMax="388" yMax="892">
      <component glyphName="I" x="0" y="0" flags="0x204"/>
      <component glyphName="dotaccent" x="1" y="156" flags="0x4"/>
    </TTGlyph>
    <TTGlyph name="Igrave" xMin="81" yMin="0" xMax="399" yMax="935">
      <component glyphName="I" x="0" y="0" flags="0x204"/>
      <component glyphName="grave" x="-26" y="156" flags="0x4"/>
    </TTGlyph>
    <TTGlyph name="Imacron" xMin="81" yMin="0" xMax="479" yMax="867">
      <component glyphName="I" x="0" y="0" flags="0x204"/>
      <component glyphName="macron" x="-19" y="156" flags="0x4"/>
    </TTGlyph>
    <TTGlyph name="Iogonek" xMin="-12" yMin="-187" xMax="344" yMax="693">
      <contour>
        <pt x="247" y="693" on="1"/>
        <pt x="344" y="693" on="1"/>
        <pt x="178" y="0" on="1"/>
        <pt x="167" y="-6" on="0"/>
        <pt x="140" y="-23" on="0"/>
        <pt x="124" y="-37" on="1"/>
        <pt x="118" y="-42" on="0"/>
        <pt x="101" y="-56" on="0"/>
        <pt x="86" y="-72" on="0"/>
        <pt x="76" y="-91" on="0"/>
        <pt x="76" y="-101" on="1"/>
        <pt x="76" y="-111" on="0"/>
        <pt x="93" y="-123" on="0"/>
        <pt x="113" y="-123" on="1"/>
        <pt x="123" y="-123" on="0"/>
        <pt x="144" y="-119" on="0"/>
        <pt x="153" y="-116" on="1"/>
        <pt x="145" y="-176" on="1"/>
        <pt x="121" y="-187" on="0"/>
        <pt x="87" y="-187" on="1"/>
        <pt x="32" y="-187" on="0"/>
        <pt x="-12" y="-152" on="0"/>
        <pt x="-12" y="-124" on="1"/>
        <pt x="-12" y="-97" on="0"/>
        <pt x="24" y="-47" on="0"/>
        <pt x="48" y="-27" on="1"/>
        <pt x="57" y="-19" on="0"/>
        <pt x="73" y="-7" on="0"/>
        <pt x="81" y="-1" on="1"/>
      </contour>
    </TTGlyph>
    <TTGlyph name="Iota" xMin="81" yMin="0" xMax="344" yMax="693">
      <component glyphName="I" x="0" y="0" flags="0x204"/>
    </TTGlyph>
    <TTGlyph name="Iotadieresis" xMin="81" yMin="0" xMax="484" yMax="890">
      <component glyphName="I" x="0" y="0" flags="0x204"/>
      <component glyphName="dieresis" x="-19" y="156" flags="0x4"/>
    </TTGlyph>
    <TTGlyph name="Iotatonos" xMin="93" yMin="0" xMax="412" yMax="709">
      <component glyphName="I" x="68" y="0" flags="0x4"/>
      <component glyphName="tonos.cap" x="-154" y="0" flags="0x4"/>
    </TTGlyph>
    <TTGlyph name="Itilde" xMin="81" yMin="0" xMax="502" yMax="893">
      <component glyphName="I" x="0" y="0" flags="0x204"/>
      <component glyphName="tilde" x="-21" y="156" flags="0x4"/>
    </TTGlyph>
    <TTGlyph name="J" xMin="24" yMin="-15" xMax="567" yMax="693">
      <contour>
        <pt x="455" y="223" on="1"/>
        <pt x="443" y="175" on="0"/>
        <pt x="413" y="88" on="0"/>
        <pt x="358" y="23" on="0"/>
        <pt x="269" y="-15" on="0"/>
        <pt x="199" y="-15" on="1"/>
        <pt x="164" y="-15" on="0"/>
        <pt x="107" y="-2" on="0"/>
        <pt x="63" y="18" on="0"/>
        <pt x="32" y="39" on="0"/>
        <pt x="24" y="48" on="1"/>
        <pt x="72" y="121" on="1"/>
        <pt x="88" y="105" on="0"/>
        <pt x="152" y="69" on="0"/>
        <pt x="201" y="69" on="1"/>
        <pt x="237" y="69" on="0"/>
        <pt x="287" y="87" on="0"/>
        <pt x="323" y="126" on="0"/>
        <pt x="348" y="188" on="0"/>
        <pt x="359" y="232" on="1"/>
        <pt x="470" y="693" on="1"/>
        <pt x="567" y="693" on="1"/>
      </contour>
    </TTGlyph>
    <TTGlyph name="Jcircumflex" xMin="24" yMin="-15" xMax="671" yMax="925">
      <component glyphName="J" x="0" y="0" flags="0x204"/>
      <component glyphName="circumflex" x="193" y="156" flags="0x4"/>
    </TTGlyph>
    <TTGlyph name="K" xMin="81" yMin="0" xMax="750" yMax="693">
      <contour>
        <pt x="750" y="693" on="1"/>
        <pt x="712" y="659" on="0"/>
        <pt x="617" y="574" on="0"/>
        <pt x="514" y="486" on="0"/>
        <pt x="410" y="398" on="0"/>
        <pt x="363" y="361" on="1"/>
        <pt x="394" y="332" on="0"/>
        <pt x="463" y="246" on="0"/>
        <pt x="530" y="148" on="0"/>
        <pt x="591" y="46" on="0"/>
        <pt x="614" y="0" on="1"/>
        <pt x="506" y="0" on="1"/>
        <pt x="480" y="46" on="0"/>
        <pt x="420" y="142" on="0"/>
        <pt x="357" y="230" on="0"/>
        <pt x="291" y="307" on="0"/>
        <pt x="258" y="334" on="1"/>
        <pt x="178" y="0" on="1"/>
        <pt x="81" y="0" on="1"/>
        <pt x="247" y="693" on="1"/>
        <pt x="344" y="693" on="1"/>
        <pt x="271" y="390" on="1"/>
        <pt x="315" y="423" on="0"/>
        <pt x="417" y="507" on="0"/>
        <pt x="515" y="591" on="0"/>
        <pt x="600" y="667" on="0"/>
        <pt x="628" y="693" on="1"/>
      </contour>
    </TTGlyph>
    <TTGlyph name="Kappa" xMin="81" yMin="0" xMax="750" yMax="693">
      <component glyphName="K" x="0" y="0" flags="0x204"/>
    </TTGlyph>
    <TTGlyph name="Kcommaaccent" xMin="81" yMin="-187" xMax="750" yMax="693">
      <component glyphName="K" x="0" y="0" flags="0x204"/>
      <component glyphName="commaaccent" x="215" y="0" flags="0x4"/>
    </TTGlyph>
    <TTGlyph name="L" xMin="81" yMin="0" xMax="504" yMax="693">
      <contour>
        <pt x="504" y="81" on="1"/>
        <pt x="485" y="0" on="1"/>
        <pt x="81" y="0" on="1"/>
        <pt x="247" y="693" on="1"/>
        <pt x="344" y="693" on="1"/>
        <pt x="197" y="81" on="1"/>
      </contour>
    </TTGlyph>
    <TTGlyph name="Lacute" xMin="81" yMin="0" xMax="504" yMax="936">
      <component glyphName="L" x="0" y="0" flags="0x204"/>
      <component glyphName="acute" x="-5" y="156" flags="0x4"/>
    </TTGlyph>
    <TTGlyph name="Lambda" xMin="10" yMin="0" xMax="619" yMax="693">
      <contour>
        <pt x="454" y="578" on="1"/>
        <pt x="412" y="518" on="0"/>
        <pt x="325" y="380" on="0"/>
        <pt x="238" y="231" on="0"/>
        <pt x="155" y="76" on="0"/>
        <pt x="117" y="0" on="1"/>
        <pt x="10" y="0" on="1"/>
        <pt x="65" y="104" on="0"/>
        <pt x="170" y="291" on="0"/>
        <pt x="273" y="462" on="0"/>
        <pt x="376" y="619" on="0"/>
        <pt x="430" y="693" on="1"/>
        <pt x="525" y="693" on="1"/>
        <pt x="540" y="618" on="0"/>
        <pt x="566" y="465" on="0"/>
        <pt x="588" y="297" on="0"/>
        <pt x="609" y="109" on="0"/>
        <pt x="619" y="0" on="1"/>
        <pt x="519" y="0" on="1"/>
        <pt x="503" y="178" on="0"/>
        <pt x="474" y="460" on="0"/>
      </contour>
    </TTGlyph>
    <TTGlyph name="Lcaron" xMin="81" yMin="0" xMax="523" yMax="695">
      <component glyphName="L" x="0" y="0" flags="0x204"/>
      <component glyphName="caron.alt" x="98" y="-81" flags="0x4"/>
    </TTGlyph>
    <TTGlyph name="Lcommaaccent" xMin="81" yMin="-187" xMax="504" yMax="693">
      <component glyphName="L" x="0" y="0" flags="0x204"/>
      <component glyphName="commaaccent" x="156" y="0" flags="0x4"/>
    </TTGlyph>
    <TTGlyph name="Ldot" xMin="81" yMin="0" xMax="531" yMax="693">
      <component glyphName="L" x="0" y="0" flags="0x204"/>
      <component glyphName="dotaccent" x="144" y="-311" flags="0x4"/>
    </TTGlyph>
    <TTGlyph name="Lslash" xMin="76" yMin="0" xMax="524" yMax="693">
      <contour>
        <pt x="524" y="81" on="1"/>
        <pt x="505" y="0" on="1"/>
        <pt x="101" y="0" on="1"/>
        <pt x="169" y="283" on="1"/>
        <pt x="92" y="247" on="1"/>
        <pt x="76" y="316" on="1"/>
        <pt x="189" y="370" on="1"/>
        <pt x="267" y="693" on="1"/>
        <pt x="364" y="693" on="1"/>
        <pt x="296" y="412" on="1"/>
        <pt x="422" y="472" on="1"/>
        <pt x="438" y="403" on="1"/>
        <pt x="276" y="326" on="1"/>
        <pt x="217" y="81" on="1"/>
      </contour>
    </TTGlyph>
    <TTGlyph name="M" xMin="64" yMin="0" xMax="889" yMax="693">
      <contour>
        <pt x="783" y="544" on="1"/>
        <pt x="767" y="522" on="0"/>
        <pt x="719" y="452" on="0"/>
        <pt x="663" y="368" on="0"/>
        <pt x="603" y="277" on="0"/>
        <pt x="547" y="192" on="0"/>
        <pt x="499" y="119" on="0"/>
        <pt x="484" y="96" on="1"/>
        <pt x="406" y="96" on="1"/>
        <pt x="402" y="120" on="0"/>
        <pt x="389" y="193" on="0"/>
        <pt x="373" y="278" on="0"/>
        <pt x="356" y="369" on="0"/>
        <pt x="339" y="453" on="0"/>
        <pt x="325" y="522" on="0"/>
        <pt x="320" y="544" on="1"/>
        <pt x="278" y="415" on="0"/>
        <pt x="198" y="141" on="0"/>
        <pt x="160" y="0" on="1"/>
        <pt x="64" y="0" on="1"/>
        <pt x="88" y="90" on="0"/>
        <pt x="141" y="273" on="0"/>
        <pt x="196" y="450" on="0"/>
        <pt x="251" y="618" on="0"/>
        <pt x="277" y="693" on="1"/>
        <pt x="372" y="693" on="1"/>
        <pt x="384" y="649" on="0"/>
        <pt x="411" y="529" on="0"/>
        <pt x="438" y="398" on="0"/>
        <pt x="461" y="268" on="0"/>
        <pt x="469" y="215" on="1"/>
        <pt x="505" y="269" on="0"/>
        <pt x="592" y="399" on="0"/>
        <pt x="680" y="530" on="0"/>
        <pt x="763" y="649" on="0"/>
        <pt x="796" y="693" on="1"/>
        <pt x="889" y="693" on="1"/>
        <pt x="872" y="524" on="0"/>
        <pt x="815" y="175" on="0"/>
        <pt x="781" y="0" on="1"/>
        <pt x="684" y="0" on="1"/>
        <pt x="714" y="144" on="0"/>
        <pt x="764" y="415" on="0"/>
      </contour>
    </TTGlyph>
    <TTGlyph name="Mu" xMin="64" yMin="0" xMax="889" yMax="693">
      <component glyphName="M" x="0" y="0" flags="0x204"/>
    </TTGlyph>
    <TTGlyph name="N" xMin="81" yMin="0" xMax="778" yMax="693">
      <contour>
        <pt x="528" y="0" on="1"/>
        <pt x="510" y="58" on="0"/>
        <pt x="460" y="206" on="0"/>
        <pt x="401" y="358" on="0"/>
        <pt x="339" y="501" on="0"/>
        <pt x="309" y="554" on="1"/>
        <pt x="176" y="0" on="1"/>
        <pt x="81" y="0" on="1"/>
        <pt x="247" y="693" on="1"/>
        <pt x="330" y="693" on="1"/>
        <pt x="362" y="639" on="0"/>
        <pt x="429" y="502" on="0"/>
        <pt x="490" y="358" on="0"/>
        <pt x="542" y="220" on="0"/>
        <pt x="559" y="165" on="1"/>
        <pt x="683" y="693" on="1"/>
        <pt x="778" y="693" on="1"/>
        <pt x="613" y="0" on="1"/>
      </contour>
    </TTGlyph>
    <TTGlyph name="Nacute" xMin="81" yMin="0" xMax="778" yMax="936">
      <component glyphName="N" x="0" y="0" flags="0x204"/>
      <component glyphName="acute" x="189" y="156" flags="0x4"/>
    </TTGlyph>
    <TTGlyph name="Ncaron" xMin="81" yMin="0" xMax="778" yMax="930">
      <component glyphName="N" x="0" y="0" flags="0x204"/>
      <component glyphName="caron" x="195" y="156" flags="0x4"/>
    </TTGlyph>
    <TTGlyph name="Ncommaaccent" xMin="81" yMin="-187" xMax="778" yMax="693">
      <component glyphName="N" x="0" y="0" flags="0x204"/>
      <component glyphName="commaaccent" x="220" y="0" flags="0x4"/>
    </TTGlyph>
    <TTGlyph name="Ntilde" xMin="81" yMin="0" xMax="778" yMax="893">
      <component glyphName="N" x="0" y="0" flags="0x204"/>
      <component glyphName="tilde" x="195" y="156" flags="0x4"/>
    </TTGlyph>
    <TTGlyph name="Nu" xMin="81" yMin="0" xMax="778" yMax="693">
      <component glyphName="N" x="0" y="0" flags="0x204"/>
    </TTGlyph>
    <TTGlyph name="O" xMin="124" yMin="-15" xMax="777" yMax="709">
      <contour>
        <pt x="525" y="709" on="1"/>
        <pt x="580" y="709" on="0"/>
        <pt x="673" y="676" on="0"/>
        <pt x="740" y="610" on="0"/>
        <pt x="777" y="511" on="0"/>
        <pt x="777" y="445" on="1"/>
        <pt x="777" y="362" on="0"/>
        <pt x="726" y="198" on="0"/>
        <pt x="626" y="67" on="0"/>
        <pt x="476" y="-15" on="0"/>
        <pt x="376" y="-15" on="1"/>
        <pt x="320" y="-15" on="0"/>
        <pt x="228" y="18" on="0"/>
        <pt x="161" y="84" on="0"/>
        <pt x="124" y="183" on="0"/>
        <pt x="124" y="249" on="1"/>
        <pt x="124" y="331" on="0"/>
        <pt x="174" y="496" on="0"/>
        <pt x="275" y="627" on="0"/>
        <pt x="425" y="709" on="0"/>
      </contour>
      <contour>
        <pt x="386" y="69" on="1"/>
        <pt x="453" y="69" on="0"/>
        <pt x="561" y="134" on="0"/>
        <pt x="636" y="238" on="0"/>
        <pt x="676" y="368" on="0"/>
        <pt x="676" y="433" on="1"/>
        <pt x="676" y="522" on="0"/>
        <pt x="599" y="625" on="0"/>
        <pt x="515" y="625" on="1"/>
        <pt x="447" y="625" on="0"/>
        <pt x="340" y="560" on="0"/>
        <pt x="265" y="456" on="0"/>
        <pt x="225" y="326" on="0"/>
        <pt x="225" y="261" on="1"/>
        <pt x="225" y="172" on="0"/>
        <pt x="302" y="69" on="0"/>
      </contour>
    </TTGlyph>
    <TTGlyph name="OE" xMin="124" yMin="-7" xMax="1059" yMax="700">
      <contour>
        <pt x="430" y="-7" on="1"/>
        <pt x="353" y="-7" on="0"/>
        <pt x="238" y="31" on="0"/>
        <pt x="162" y="101" on="0"/>
        <pt x="124" y="200" on="0"/>
        <pt x="124" y="262" on="1"/>
        <pt x="124" y="348" on="0"/>
        <pt x="178" y="507" on="0"/>
        <pt x="292" y="628" on="0"/>
        <pt x="469" y="700" on="0"/>
        <pt x="592" y="700" on="1"/>
        <pt x="618" y="700" on="0"/>
        <pt x="667" y="696" on="0"/>
        <pt x="687" y="693" on="1"/>
        <pt x="1059" y="693" on="1"/>
        <pt x="1040" y="612" on="1"/>
        <pt x="742" y="612" on="1"/>
        <pt x="692" y="403" on="1"/>
        <pt x="955" y="403" on="1"/>
        <pt x="936" y="324" on="1"/>
        <pt x="674" y="324" on="1"/>
        <pt x="615" y="81" on="1"/>
        <pt x="936" y="81" on="1"/>
        <pt x="917" y="0" on="1"/>
        <pt x="534" y="0" on="1"/>
        <pt x="506" y="-3" on="0"/>
        <pt x="450" y="-7" on="0"/>
      </contour>
      <contour>
        <pt x="567" y="618" on="1"/>
        <pt x="488" y="618" on="0"/>
        <pt x="361" y="565" on="0"/>
        <pt x="273" y="471" on="0"/>
        <pt x="225" y="340" on="0"/>
        <pt x="225" y="262" on="1"/>
        <pt x="225" y="174" on="0"/>
        <pt x="327" y="75" on="0"/>
        <pt x="438" y="75" on="1"/>
        <pt x="462" y="75" on="0"/>
        <pt x="505" y="78" on="0"/>
        <pt x="519" y="80" on="1"/>
        <pt x="646" y="613" on="1"/>
        <pt x="635" y="615" on="0"/>
        <pt x="599" y="618" on="0"/>
      </contour>
    </TTGlyph>
    <TTGlyph name="Oacute" xMin="124" yMin="-15" xMax="777" yMax="936">
      <component glyphName="O" x="0" y="0" flags="0x204"/>
      <component glyphName="acute" x="209" y="156" flags="0x4"/>
    </TTGlyph>
    <TTGlyph name="Obreve" xMin="124" yMin="-15" xMax="777" yMax="905">
      <component glyphName="O" x="0" y="0" flags="0x204"/>
      <component glyphName="breve" x="215" y="156" flags="0x4"/>
    </TTGlyph>
    <TTGlyph name="Ocircumflex" xMin="124" yMin="-15" xMax="777" yMax="925">
      <component glyphName="O" x="0" y="0" flags="0x204"/>
      <component glyphName="circumflex" x="210" y="156" flags="0x4"/>
    </TTGlyph>
    <TTGlyph name="Odieresis" xMin="124" yMin="-15" xMax="777" yMax="890">
      <component glyphName="O" x="0" y="0" flags="0x204"/>
      <component glyphName="dieresis" x="217" y="156" flags="0x4"/>
    </TTGlyph>
    <TTGlyph name="Ograve" xMin="124" yMin="-15" xMax="777" yMax="935">
      <component glyphName="O" x="0" y="0" flags="0x204"/>
      <component glyphName="grave" x="210" y="156" flags="0x4"/>
    </TTGlyph>
    <TTGlyph name="Ohorn" xMin="124" yMin="-15" xMax="867" yMax="801">
      <contour>
        <pt x="525" y="709" on="1"/>
        <pt x="633" y="709" on="0"/>
        <pt x="699" y="649" on="1"/>
        <pt x="722" y="665" on="0"/>
        <pt x="750" y="703" on="0"/>
        <pt x="766" y="743" on="0"/>
        <pt x="772" y="783" on="0"/>
        <pt x="774" y="801" on="1"/>
        <pt x="867" y="801" on="1"/>
        <pt x="860" y="734" on="0"/>
        <pt x="798" y="626" on="0"/>
        <pt x="744" y="592" on="1"/>
        <pt x="760" y="563" on="0"/>
        <pt x="777" y="490" on="0"/>
        <pt x="777" y="445" on="1"/>
        <pt x="777" y="362" on="0"/>
        <pt x="726" y="198" on="0"/>
        <pt x="626" y="67" on="0"/>
        <pt x="476" y="-15" on="0"/>
        <pt x="376" y="-15" on="1"/>
        <pt x="320" y="-15" on="0"/>
        <pt x="228" y="18" on="0"/>
        <pt x="161" y="84" on="0"/>
        <pt x="124" y="183" on="0"/>
        <pt x="124" y="249" on="1"/>
        <pt x="124" y="331" on="0"/>
        <pt x="174" y="496" on="0"/>
        <pt x="275" y="627" on="0"/>
        <pt x="425" y="709" on="0"/>
      </contour>
      <contour>
        <pt x="386" y="69" on="1"/>
        <pt x="453" y="69" on="0"/>
        <pt x="561" y="134" on="0"/>
        <pt x="636" y="238" on="0"/>
        <pt x="676" y="368" on="0"/>
        <pt x="676" y="433" on="1"/>
        <pt x="676" y="522" on="0"/>
        <pt x="599" y="625" on="0"/>
        <pt x="515" y="625" on="1"/>
        <pt x="447" y="625" on="0"/>
        <pt x="340" y="560" on="0"/>
        <pt x="265" y="456" on="0"/>
        <pt x="225" y="326" on="0"/>
        <pt x="225" y="261" on="1"/>
        <pt x="225" y="172" on="0"/>
        <pt x="302" y="69" on="0"/>
      </contour>
    </TTGlyph>
    <TTGlyph name="Ohungarumlaut" xMin="124" yMin="-15" xMax="790" yMax="932">
      <component glyphName="O" x="0" y="0" flags="0x204"/>
      <component glyphName="hungarumlaut" x="244" y="156" flags="0x4"/>
    </TTGlyph>
    <TTGlyph name="Omacron" xMin="124" yMin="-15" xMax="777" yMax="867">
      <component glyphName="O" x="0" y="0" flags="0x204"/>
      <component glyphName="macron" x="217" y="156" flags="0x4"/>
    </TTGlyph>
    <TTGlyph name="Omega" xMin="55" yMin="0" xMax="788" yMax="709">
      <contour>
        <pt x="537" y="709" on="1"/>
        <pt x="591" y="709" on="0"/>
        <pt x="683" y="679" on="0"/>
        <pt x="750" y="617" on="0"/>
        <pt x="788" y="525" on="0"/>
        <pt x="788" y="462" on="1"/>
        <pt x="788" y="403" on="0"/>
        <pt x="758" y="297" on="0"/>
        <pt x="705" y="202" on="0"/>
        <pt x="631" y="118" on="0"/>
        <pt x="586" y="81" on="1"/>
        <pt x="723" y="81" on="1"/>
        <pt x="704" y="0" on="1"/>
        <pt x="444" y="0" on="1"/>
        <pt x="461" y="68" on="1"/>
        <pt x="509" y="105" on="0"/>
        <pt x="592" y="195" on="0"/>
        <pt x="652" y="296" on="0"/>
        <pt x="687" y="403" on="0"/>
        <pt x="687" y="458" on="1"/>
        <pt x="687" y="543" on="0"/>
        <pt x="602" y="625" on="0"/>
        <pt x="527" y="625" on="1"/>
        <pt x="454" y="625" on="0"/>
        <pt x="347" y="564" on="0"/>
        <pt x="276" y="468" on="0"/>
        <pt x="242" y="349" on="0"/>
        <pt x="242" y="291" on="1"/>
        <pt x="242" y="213" on="0"/>
        <pt x="287" y="106" on="0"/>
        <pt x="324" y="68" on="1"/>
        <pt x="308" y="0" on="1"/>
        <pt x="55" y="0" on="1"/>
        <pt x="75" y="81" on="1"/>
        <pt x="216" y="81" on="1"/>
        <pt x="188" y="116" on="0"/>
        <pt x="142" y="228" on="0"/>
        <pt x="142" y="294" on="1"/>
        <pt x="142" y="376" on="0"/>
        <pt x="194" y="527" on="0"/>
        <pt x="294" y="641" on="0"/>
        <pt x="442" y="709" on="0"/>
      </contour>
    </TTGlyph>
    <TTGlyph name="Omegatonos" xMin="93" yMin="0" xMax="835" yMax="709">
      <component glyphName="Omega" x="47" y="0" flags="0x4"/>
      <component glyphName="tonos.cap" x="-154" y="0" flags="0x4"/>
    </TTGlyph>
    <TTGlyph name="Omicron" xMin="124" yMin="-15" xMax="777" yMax="709">
      <component glyphName="O" x="0" y="0" flags="0x204"/>
    </TTGlyph>
    <TTGlyph name="Omicrontonos" xMin="93" yMin="-15" xMax="822" yMax="709">
      <component glyphName="O" x="45" y="0" flags="0x4"/>
      <component glyphName="tonos.cap" x="-154" y="0" flags="0x4"/>
    </TTGlyph>
    <TTGlyph name="Oslash" xMin="104" yMin="-36" xMax="796" yMax="730">
      <contour>
        <pt x="525" y="709" on="1"/>
        <pt x="617" y="709" on="0"/>
        <pt x="681" y="663" on="1"/>
        <pt x="740" y="730" on="1"/>
        <pt x="796" y="687" on="1"/>
        <pt x="731" y="613" on="1"/>
        <pt x="753" y="581" on="0"/>
        <pt x="777" y="499" on="0"/>
        <pt x="777" y="445" on="1"/>
        <pt x="777" y="362" on="0"/>
        <pt x="726" y="198" on="0"/>
        <pt x="626" y="67" on="0"/>
        <pt x="476" y="-15" on="0"/>
        <pt x="376" y="-15" on="1"/>
        <pt x="282" y="-15" on="0"/>
        <pt x="219" y="30" on="1"/>
        <pt x="161" y="-36" on="1"/>
        <pt x="104" y="7" on="1"/>
        <pt x="169" y="81" on="1"/>
        <pt x="124" y="145" on="0"/>
        <pt x="124" y="249" on="1"/>
        <pt x="124" y="331" on="0"/>
        <pt x="174" y="496" on="0"/>
        <pt x="275" y="627" on="0"/>
        <pt x="425" y="709" on="0"/>
      </contour>
      <contour>
        <pt x="386" y="69" on="1"/>
        <pt x="453" y="69" on="0"/>
        <pt x="561" y="134" on="0"/>
        <pt x="636" y="238" on="0"/>
        <pt x="676" y="368" on="0"/>
        <pt x="676" y="433" on="1"/>
        <pt x="676" y="462" on="0"/>
        <pt x="670" y="512" on="0"/>
        <pt x="662" y="534" on="1"/>
        <pt x="281" y="101" on="1"/>
        <pt x="300" y="84" on="0"/>
        <pt x="353" y="69" on="0"/>
      </contour>
      <contour>
        <pt x="225" y="261" on="1"/>
        <pt x="225" y="232" on="0"/>
        <pt x="231" y="180" on="0"/>
        <pt x="239" y="160" on="1"/>
        <pt x="619" y="593" on="1"/>
        <pt x="581" y="625" on="0"/>
        <pt x="515" y="625" on="1"/>
        <pt x="447" y="625" on="0"/>
        <pt x="340" y="560" on="0"/>
        <pt x="265" y="456" on="0"/>
        <pt x="225" y="326" on="0"/>
      </contour>
    </TTGlyph>
    <TTGlyph name="Oslashacute" xMin="104" yMin="-36" xMax="796" yMax="936">
      <component glyphName="Oslash" x="0" y="0" flags="0x204"/>
      <component glyphName="acute" x="209" y="156" flags="0x4"/>
    </TTGlyph>
    <TTGlyph name="Otilde" xMin="124" yMin="-15" xMax="777" yMax="893">
      <component glyphName="O" x="0" y="0" flags="0x204"/>
      <component glyphName="tilde" x="215" y="156" flags="0x4"/>
    </TTGlyph>
    <TTGlyph name="P" xMin="81" yMin="0" xMax="667" yMax="700">
      <contour>
        <pt x="423" y="700" on="1"/>
        <pt x="544" y="700" on="0"/>
        <pt x="667" y="608" on="0"/>
        <pt x="667" y="520" on="1"/>
        <pt x="667" y="452" on="0"/>
        <pt x="616" y="353" on="0"/>
        <pt x="522" y="289" on="0"/>
        <pt x="390" y="258" on="0"/>
        <pt x="309" y="258" on="1"/>
        <pt x="240" y="258" on="1"/>
        <pt x="178" y="0" on="1"/>
        <pt x="81" y="0" on="1"/>
        <pt x="245" y="684" on="1"/>
        <pt x="287" y="694" on="0"/>
        <pt x="381" y="700" on="0"/>
      </contour>
      <contour>
        <pt x="411" y="618" on="1"/>
        <pt x="340" y="618" on="0"/>
        <pt x="325" y="614" on="1"/>
        <pt x="259" y="339" on="1"/>
        <pt x="322" y="339" on="1"/>
        <pt x="364" y="339" on="0"/>
        <pt x="452" y="354" on="0"/>
        <pt x="522" y="392" on="0"/>
        <pt x="567" y="459" on="0"/>
        <pt x="567" y="512" on="1"/>
        <pt x="567" y="569" on="0"/>
        <pt x="483" y="618" on="0"/>
      </contour>
    </TTGlyph>
    <TTGlyph name="Parenleft" xMin="136" yMin="-136" xMax="501" yMax="828">
      <component glyphName="parenleft" x="10" y="45" flags="0x214"/>
    </TTGlyph>
    <TTGlyph name="Parenright" xMin="-39" yMin="-136" xMax="326" yMax="828">
      <component glyphName="parenright" x="11" y="49" flags="0x214"/>
    </TTGlyph>
    <TTGlyph name="Phi" xMin="124" yMin="0" xMax="860" yMax="738">
      <component glyphName="afii10038" x="0" y="0" flags="0x204"/>
    </TTGlyph>
    <TTGlyph name="Pi" xMin="81" yMin="0" xMax="756" yMax="693">
      <component glyphName="afii10033" x="0" y="0" flags="0x204"/>
    </TTGlyph>
    <TTGlyph name="Psi" xMin="164" yMin="0" xMax="887" yMax="693">
      <contour>
        <pt x="384" y="177" on="1"/>
        <pt x="272" y="185" on="0"/>
        <pt x="164" y="291" on="0"/>
        <pt x="164" y="385" on="1"/>
        <pt x="164" y="405" on="0"/>
        <pt x="170" y="448" on="0"/>
        <pt x="175" y="471" on="1"/>
        <pt x="228" y="693" on="1"/>
        <pt x="322" y="693" on="1"/>
        <pt x="272" y="484" on="1"/>
        <pt x="266" y="459" on="0"/>
        <pt x="259" y="414" on="0"/>
        <pt x="259" y="393" on="1"/>
        <pt x="259" y="365" on="0"/>
        <pt x="274" y="317" on="0"/>
        <pt x="308" y="283" on="0"/>
        <pt x="363" y="262" on="0"/>
        <pt x="404" y="261" on="1"/>
        <pt x="508" y="693" on="1"/>
        <pt x="603" y="693" on="1"/>
        <pt x="499" y="261" on="1"/>
        <pt x="602" y="263" on="0"/>
        <pt x="714" y="364" on="0"/>
        <pt x="740" y="472" on="1"/>
        <pt x="793" y="693" on="1"/>
        <pt x="887" y="693" on="1"/>
        <pt x="831" y="459" on="1"/>
        <pt x="817" y="400" on="0"/>
        <pt x="770" y="297" on="0"/>
        <pt x="690" y="221" on="0"/>
        <pt x="568" y="177" on="0"/>
        <pt x="479" y="177" on="1"/>
        <pt x="437" y="0" on="1"/>
        <pt x="342" y="0" on="1"/>
      </contour>
    </TTGlyph>
    <TTGlyph name="Q" xMin="124" yMin="-185" xMax="777" yMax="709">
      <contour>
        <pt x="433" y="-11" on="1"/>
        <pt x="432" y="-14" on="0"/>
        <pt x="432" y="-22" on="0"/>
        <pt x="432" y="-24" on="1"/>
        <pt x="432" y="-44" on="0"/>
        <pt x="463" y="-72" on="0"/>
        <pt x="514" y="-92" on="0"/>
        <pt x="581" y="-105" on="0"/>
        <pt x="617" y="-109" on="1"/>
        <pt x="583" y="-185" on="1"/>
        <pt x="548" y="-181" on="0"/>
        <pt x="462" y="-165" on="0"/>
        <pt x="387" y="-130" on="0"/>
        <pt x="337" y="-72" on="0"/>
        <pt x="337" y="-26" on="1"/>
        <pt x="337" y="-24" on="0"/>
        <pt x="337" y="-18" on="0"/>
        <pt x="338" y="-13" on="1"/>
        <pt x="242" y="-3" on="0"/>
        <pt x="124" y="129" on="0"/>
        <pt x="124" y="249" on="1"/>
        <pt x="124" y="331" on="0"/>
        <pt x="174" y="496" on="0"/>
        <pt x="275" y="627" on="0"/>
        <pt x="425" y="709" on="0"/>
        <pt x="525" y="709" on="1"/>
        <pt x="580" y="709" on="0"/>
        <pt x="673" y="676" on="0"/>
        <pt x="740" y="610" on="0"/>
        <pt x="777" y="511" on="0"/>
        <pt x="777" y="445" on="1"/>
        <pt x="777" y="368" on="0"/>
        <pt x="734" y="216" on="0"/>
        <pt x="647" y="89" on="0"/>
        <pt x="518" y="1" on="0"/>
      </contour>
      <contour>
        <pt x="386" y="69" on="1"/>
        <pt x="453" y="69" on="0"/>
        <pt x="561" y="134" on="0"/>
        <pt x="636" y="238" on="0"/>
        <pt x="676" y="368" on="0"/>
        <pt x="676" y="433" on="1"/>
        <pt x="676" y="522" on="0"/>
        <pt x="599" y="625" on="0"/>
        <pt x="515" y="625" on="1"/>
        <pt x="447" y="625" on="0"/>
        <pt x="340" y="560" on="0"/>
        <pt x="265" y="456" on="0"/>
        <pt x="225" y="326" on="0"/>
        <pt x="225" y="261" on="1"/>
        <pt x="225" y="172" on="0"/>
        <pt x="302" y="69" on="0"/>
      </contour>
    </TTGlyph>
    <TTGlyph name="Questiondown" xMin="66" yMin="-3" xMax="422" yMax="705">
      <component glyphName="questiondown" x="27" y="185" flags="0x214"/>
    </TTGlyph>
    <TTGlyph name="R" xMin="81" yMin="0" xMax="664" yMax="700">
      <contour>
        <pt x="423" y="700" on="1"/>
        <pt x="534" y="700" on="0"/>
        <pt x="664" y="610" on="0"/>
        <pt x="664" y="523" on="1"/>
        <pt x="664" y="435" on="0"/>
        <pt x="561" y="316" on="0"/>
        <pt x="468" y="290" on="1"/>
        <pt x="480" y="269" on="0"/>
        <pt x="512" y="204" on="0"/>
        <pt x="546" y="125" on="0"/>
        <pt x="578" y="40" on="0"/>
        <pt x="590" y="0" on="1"/>
        <pt x="491" y="0" on="1"/>
        <pt x="477" y="38" on="0"/>
        <pt x="447" y="116" on="0"/>
        <pt x="416" y="188" on="0"/>
        <pt x="385" y="251" on="0"/>
        <pt x="372" y="275" on="1"/>
        <pt x="359" y="274" on="0"/>
        <pt x="333" y="273" on="0"/>
        <pt x="320" y="273" on="1"/>
        <pt x="243" y="273" on="1"/>
        <pt x="178" y="0" on="1"/>
        <pt x="81" y="0" on="1"/>
        <pt x="245" y="684" on="1"/>
        <pt x="287" y="694" on="0"/>
        <pt x="381" y="700" on="0"/>
      </contour>
      <contour>
        <pt x="411" y="618" on="1"/>
        <pt x="340" y="618" on="0"/>
        <pt x="325" y="614" on="1"/>
        <pt x="262" y="352" on="1"/>
        <pt x="321" y="352" on="1"/>
        <pt x="362" y="352" on="0"/>
        <pt x="448" y="364" on="0"/>
        <pt x="519" y="399" on="0"/>
        <pt x="564" y="462" on="0"/>
        <pt x="564" y="514" on="1"/>
        <pt x="564" y="570" on="0"/>
        <pt x="479" y="618" on="0"/>
      </contour>
    </TTGlyph>
    <TTGlyph name="Racute" xMin="81" yMin="0" xMax="664" yMax="936">
      <component glyphName="R" x="0" y="0" flags="0x204"/>
      <component glyphName="acute" x="123" y="156" flags="0x4"/>
    </TTGlyph>
    <TTGlyph name="Rcaron" xMin="81" yMin="0" xMax="664" yMax="930">
      <component glyphName="R" x="0" y="0" flags="0x204"/>
      <component glyphName="caron" x="130" y="156" flags="0x4"/>
    </TTGlyph>
    <TTGlyph name="Rcommaaccent" xMin="81" yMin="-187" xMax="664" yMax="700">
      <component glyphName="R" x="0" y="0" flags="0x204"/>
      <component glyphName="commaaccent" x="207" y="0" flags="0x4"/>
    </TTGlyph>
    <TTGlyph name="Rho" xMin="81" yMin="0" xMax="667" yMax="700">
      <component glyphName="P" x="0" y="0" flags="0x204"/>
    </TTGlyph>
    <TTGlyph name="S" xMin="37" yMin="-15" xMax="599" yMax="709">
      <contour>
        <pt x="246" y="69" on="1"/>
        <pt x="277" y="69" on="0"/>
        <pt x="338" y="82" on="0"/>
        <pt x="386" y="112" on="0"/>
        <pt x="416" y="161" on="0"/>
        <pt x="416" y="197" on="1"/>
        <pt x="416" y="222" on="0"/>
        <pt x="397" y="259" on="0"/>
        <pt x="364" y="288" on="0"/>
        <pt x="319" y="313" on="0"/>
        <pt x="292" y="327" on="1"/>
        <pt x="269" y="339" on="0"/>
        <pt x="222" y="367" on="0"/>
        <pt x="185" y="408" on="0"/>
        <pt x="162" y="464" on="0"/>
        <pt x="162" y="503" on="1"/>
        <pt x="162" y="548" on="0"/>
        <pt x="197" y="624" on="0"/>
        <pt x="265" y="679" on="0"/>
        <pt x="364" y="709" on="0"/>
        <pt x="428" y="709" on="1"/>
        <pt x="458" y="709" on="0"/>
        <pt x="512" y="700" on="0"/>
        <pt x="557" y="686" on="0"/>
        <pt x="591" y="671" on="0"/>
        <pt x="599" y="665" on="1"/>
        <pt x="554" y="589" on="1"/>
        <pt x="537" y="603" on="0"/>
        <pt x="462" y="626" on="0"/>
        <pt x="411" y="626" on="1"/>
        <pt x="379" y="626" on="0"/>
        <pt x="324" y="613" on="0"/>
        <pt x="284" y="585" on="0"/>
        <pt x="260" y="542" on="0"/>
        <pt x="260" y="512" on="1"/>
        <pt x="260" y="486" on="0"/>
        <pt x="276" y="451" on="0"/>
        <pt x="304" y="424" on="0"/>
        <pt x="345" y="402" on="0"/>
        <pt x="369" y="390" on="1"/>
        <pt x="399" y="375" on="0"/>
        <pt x="452" y="344" on="0"/>
        <pt x="492" y="302" on="0"/>
        <pt x="515" y="246" on="0"/>
        <pt x="515" y="206" on="1"/>
        <pt x="515" y="151" on="0"/>
        <pt x="472" y="68" on="0"/>
        <pt x="397" y="13" on="0"/>
        <pt x="294" y="-15" on="0"/>
        <pt x="234" y="-15" on="1"/>
        <pt x="194" y="-15" on="0"/>
        <pt x="129" y="-4" on="0"/>
        <pt x="80" y="12" on="0"/>
        <pt x="46" y="29" on="0"/>
        <pt x="37" y="36" on="1"/>
        <pt x="82" y="115" on="1"/>
        <pt x="101" y="102" on="0"/>
        <pt x="183" y="69" on="0"/>
      </contour>
    </TTGlyph>
    <TTGlyph name="Sacute" xMin="37" yMin="-15" xMax="599" yMax="936">
      <component glyphName="S" x="0" y="0" flags="0x204"/>
      <component glyphName="acute" x="95" y="156" flags="0x4"/>
    </TTGlyph>
    <TTGlyph name="Scaron" xMin="37" yMin="-15" xMax="599" yMax="930">
      <component glyphName="S" x="0" y="0" flags="0x204"/>
      <component glyphName="caron" x="102" y="156" flags="0x4"/>
    </TTGlyph>
    <TTGlyph name="Scedilla" xMin="37" yMin="-189" xMax="599" yMax="709">
      <contour>
        <pt x="256" y="-38" on="1"/>
        <pt x="276" y="-49" on="0"/>
        <pt x="296" y="-75" on="0"/>
        <pt x="296" y="-98" on="1"/>
        <pt x="296" y="-143" on="0"/>
        <pt x="234" y="-189" on="0"/>
        <pt x="180" y="-189" on="1"/>
        <pt x="151" y="-189" on="0"/>
        <pt x="112" y="-180" on="0"/>
        <pt x="99" y="-174" on="1"/>
        <pt x="122" y="-119" on="1"/>
        <pt x="130" y="-123" on="0"/>
        <pt x="156" y="-130" on="0"/>
        <pt x="175" y="-130" on="1"/>
        <pt x="192" y="-130" on="0"/>
        <pt x="214" y="-119" on="0"/>
        <pt x="214" y="-105" on="1"/>
        <pt x="214" y="-93" on="0"/>
        <pt x="198" y="-81" on="0"/>
        <pt x="179" y="-72" on="1"/>
        <pt x="173" y="-69" on="1"/>
        <pt x="186" y="-44" on="0"/>
        <pt x="210" y="-14" on="1"/>
        <pt x="140" y="-11" on="0"/>
        <pt x="54" y="23" on="0"/>
        <pt x="37" y="36" on="1"/>
        <pt x="82" y="115" on="1"/>
        <pt x="101" y="102" on="0"/>
        <pt x="183" y="69" on="0"/>
        <pt x="246" y="69" on="1"/>
        <pt x="277" y="69" on="0"/>
        <pt x="338" y="82" on="0"/>
        <pt x="386" y="112" on="0"/>
        <pt x="416" y="161" on="0"/>
        <pt x="416" y="197" on="1"/>
        <pt x="416" y="222" on="0"/>
        <pt x="397" y="259" on="0"/>
        <pt x="364" y="288" on="0"/>
        <pt x="319" y="313" on="0"/>
        <pt x="292" y="327" on="1"/>
        <pt x="269" y="339" on="0"/>
        <pt x="222" y="367" on="0"/>
        <pt x="185" y="408" on="0"/>
        <pt x="162" y="464" on="0"/>
        <pt x="162" y="503" on="1"/>
        <pt x="162" y="548" on="0"/>
        <pt x="197" y="624" on="0"/>
        <pt x="265" y="679" on="0"/>
        <pt x="364" y="709" on="0"/>
        <pt x="428" y="709" on="1"/>
        <pt x="458" y="709" on="0"/>
        <pt x="512" y="700" on="0"/>
        <pt x="557" y="686" on="0"/>
        <pt x="591" y="671" on="0"/>
        <pt x="599" y="665" on="1"/>
        <pt x="554" y="589" on="1"/>
        <pt x="537" y="603" on="0"/>
        <pt x="462" y="626" on="0"/>
        <pt x="411" y="626" on="1"/>
        <pt x="379" y="626" on="0"/>
        <pt x="324" y="613" on="0"/>
        <pt x="284" y="585" on="0"/>
        <pt x="260" y="542" on="0"/>
        <pt x="260" y="512" on="1"/>
        <pt x="260" y="486" on="0"/>
        <pt x="276" y="451" on="0"/>
        <pt x="304" y="424" on="0"/>
        <pt x="345" y="402" on="0"/>
        <pt x="369" y="390" on="1"/>
        <pt x="399" y="375" on="0"/>
        <pt x="452" y="344" on="0"/>
        <pt x="492" y="302" on="0"/>
        <pt x="515" y="246" on="0"/>
        <pt x="515" y="206" on="1"/>
        <pt x="515" y="156" on="0"/>
        <pt x="479" y="78" on="0"/>
        <pt x="414" y="23" on="0"/>
        <pt x="325" y="-9" on="0"/>
        <pt x="273" y="-13" on="1"/>
        <pt x="268" y="-20" on="0"/>
        <pt x="260" y="-32" on="0"/>
      </contour>
    </TTGlyph>
    <TTGlyph name="Scircumflex" xMin="37" yMin="-15" xMax="599" yMax="925">
      <component glyphName="S" x="0" y="0" flags="0x204"/>
      <component glyphName="circumflex" x="96" y="156" flags="0x4"/>
    </TTGlyph>
    <TTGlyph name="Scommaaccent" xMin="37" yMin="-187" xMax="599" yMax="709">
      <component glyphName="S" x="0" y="0" flags="0x204"/>
      <component glyphName="commaaccent" x="126" y="0" flags="0x4"/>
    </TTGlyph>
    <TTGlyph name="Sigma" xMin="38" yMin="0" xMax="675" yMax="693">
      <contour>
        <pt x="55" y="74" on="1"/>
        <pt x="80" y="105" on="0"/>
        <pt x="148" y="177" on="0"/>
        <pt x="224" y="251" on="0"/>
        <pt x="303" y="326" on="0"/>
        <pt x="341" y="361" on="1"/>
        <pt x="317" y="404" on="0"/>
        <pt x="272" y="489" on="0"/>
        <pt x="235" y="563" on="0"/>
        <pt x="208" y="619" on="0"/>
        <pt x="202" y="633" on="1"/>
        <pt x="217" y="693" on="1"/>
        <pt x="675" y="693" on="1"/>
        <pt x="656" y="612" on="1"/>
        <pt x="312" y="612" on="1"/>
        <pt x="337" y="551" on="0"/>
        <pt x="410" y="422" on="0"/>
        <pt x="449" y="350" on="1"/>
        <pt x="379" y="284" on="0"/>
        <pt x="238" y="154" on="0"/>
        <pt x="169" y="81" on="1"/>
        <pt x="527" y="81" on="1"/>
        <pt x="508" y="0" on="1"/>
        <pt x="38" y="0" on="1"/>
      </contour>
    </TTGlyph>
    <TTGlyph name="Slash" xMin="-55" yMin="-138" xMax="597" yMax="830">
      <component glyphName="slash" x="11" y="47" flags="0x214"/>
    </TTGlyph>
    <TTGlyph name="T" xMin="165" yMin="0" xMax="699" yMax="693">
      <contour>
        <pt x="699" y="693" on="1"/>
        <pt x="680" y="612" on="1"/>
        <pt x="471" y="612" on="1"/>
        <pt x="324" y="0" on="1"/>
        <pt x="227" y="0" on="1"/>
        <pt x="374" y="612" on="1"/>
        <pt x="165" y="612" on="1"/>
        <pt x="184" y="693" on="1"/>
      </contour>
    </TTGlyph>
    <TTGlyph name="Tau" xMin="165" yMin="0" xMax="699" yMax="693">
      <component glyphName="T" x="0" y="0" flags="0x204"/>
    </TTGlyph>
    <TTGlyph name="Tbar" xMin="165" yMin="0" xMax="699" yMax="693">
      <contour>
        <pt x="699" y="693" on="1"/>
        <pt x="680" y="612" on="1"/>
        <pt x="471" y="612" on="1"/>
        <pt x="418" y="393" on="1"/>
        <pt x="544" y="393" on="1"/>
        <pt x="526" y="318" on="1"/>
        <pt x="400" y="318" on="1"/>
        <pt x="324" y="0" on="1"/>
        <pt x="227" y="0" on="1"/>
        <pt x="303" y="318" on="1"/>
        <pt x="180" y="318" on="1"/>
        <pt x="198" y="393" on="1"/>
        <pt x="321" y="393" on="1"/>
        <pt x="374" y="612" on="1"/>
        <pt x="165" y="612" on="1"/>
        <pt x="184" y="693" on="1"/>
      </contour>
    </TTGlyph>
    <TTGlyph name="Tcaron" xMin="165" yMin="0" xMax="699" yMax="930">
      <component glyphName="T" x="0" y="0" flags="0x204"/>
      <component glyphName="caron" x="124" y="156" flags="0x4"/>
    </TTGlyph>
    <TTGlyph name="Theta" xMin="124" yMin="-15" xMax="777" yMax="709">
      <contour>
        <pt x="323" y="389" on="1"/>
        <pt x="598" y="389" on="1"/>
        <pt x="579" y="309" on="1"/>
        <pt x="304" y="309" on="1"/>
      </contour>
      <contour>
        <pt x="525" y="709" on="1"/>
        <pt x="580" y="709" on="0"/>
        <pt x="673" y="676" on="0"/>
        <pt x="740" y="610" on="0"/>
        <pt x="777" y="511" on="0"/>
        <pt x="777" y="445" on="1"/>
        <pt x="777" y="362" on="0"/>
        <pt x="726" y="198" on="0"/>
        <pt x="626" y="67" on="0"/>
        <pt x="476" y="-15" on="0"/>
        <pt x="376" y="-15" on="1"/>
        <pt x="320" y="-15" on="0"/>
        <pt x="228" y="18" on="0"/>
        <pt x="161" y="84" on="0"/>
        <pt x="124" y="183" on="0"/>
        <pt x="124" y="249" on="1"/>
        <pt x="124" y="331" on="0"/>
        <pt x="174" y="496" on="0"/>
        <pt x="275" y="627" on="0"/>
        <pt x="425" y="709" on="0"/>
      </contour>
      <contour>
        <pt x="386" y="69" on="1"/>
        <pt x="453" y="69" on="0"/>
        <pt x="561" y="134" on="0"/>
        <pt x="636" y="238" on="0"/>
        <pt x="676" y="368" on="0"/>
        <pt x="676" y="433" on="1"/>
        <pt x="676" y="522" on="0"/>
        <pt x="599" y="625" on="0"/>
        <pt x="515" y="625" on="1"/>
        <pt x="447" y="625" on="0"/>
        <pt x="340" y="560" on="0"/>
        <pt x="265" y="456" on="0"/>
        <pt x="225" y="326" on="0"/>
        <pt x="225" y="261" on="1"/>
        <pt x="225" y="172" on="0"/>
        <pt x="302" y="69" on="0"/>
      </contour>
    </TTGlyph>
    <TTGlyph name="Thorn" xMin="80" yMin="0" xMax="638" yMax="693">
      <contour>
        <pt x="344" y="693" on="1"/>
        <pt x="317" y="579" on="1"/>
        <pt x="336" y="581" on="0"/>
        <pt x="377" y="582" on="0"/>
        <pt x="396" y="582" on="1"/>
        <pt x="517" y="582" on="0"/>
        <pt x="638" y="492" on="0"/>
        <pt x="638" y="404" on="1"/>
        <pt x="638" y="336" on="0"/>
        <pt x="587" y="237" on="0"/>
        <pt x="493" y="173" on="0"/>
        <pt x="361" y="142" on="0"/>
        <pt x="280" y="142" on="1"/>
        <pt x="211" y="142" on="1"/>
        <pt x="177" y="0" on="1"/>
        <pt x="80" y="0" on="1"/>
        <pt x="247" y="693" on="1"/>
      </contour>
      <contour>
        <pt x="382" y="500" on="1"/>
        <pt x="345" y="500" on="0"/>
        <pt x="303" y="497" on="0"/>
        <pt x="296" y="496" on="1"/>
        <pt x="231" y="223" on="1"/>
        <pt x="293" y="223" on="1"/>
        <pt x="335" y="223" on="0"/>
        <pt x="423" y="238" on="0"/>
        <pt x="493" y="276" on="0"/>
        <pt x="538" y="343" on="0"/>
        <pt x="538" y="396" on="1"/>
        <pt x="538" y="453" on="0"/>
        <pt x="454" y="500" on="0"/>
      </contour>
    </TTGlyph>
    <TTGlyph name="U" xMin="132" yMin="-15" xMax="751" yMax="693">
      <contour>
        <pt x="334" y="-15" on="1"/>
        <pt x="282" y="-15" on="0"/>
        <pt x="206" y="16" on="0"/>
        <pt x="156" y="69" on="0"/>
        <pt x="132" y="142" on="0"/>
        <pt x="132" y="184" on="1"/>
        <pt x="132" y="206" on="0"/>
        <pt x="140" y="260" on="0"/>
        <pt x="145" y="283" on="1"/>
        <pt x="243" y="693" on="1"/>
        <pt x="340" y="693" on="1"/>
        <pt x="240" y="277" on="1"/>
        <pt x="235" y="258" on="0"/>
        <pt x="229" y="212" on="0"/>
        <pt x="229" y="192" on="1"/>
        <pt x="229" y="166" on="0"/>
        <pt x="241" y="122" on="0"/>
        <pt x="270" y="89" on="0"/>
        <pt x="316" y="70" on="0"/>
        <pt x="349" y="70" on="1"/>
        <pt x="434" y="70" on="0"/>
        <pt x="528" y="165" on="0"/>
        <pt x="552" y="269" on="1"/>
        <pt x="654" y="693" on="1"/>
        <pt x="751" y="693" on="1"/>
        <pt x="647" y="258" on="1"/>
        <pt x="633" y="201" on="0"/>
        <pt x="596" y="101" on="0"/>
        <pt x="528" y="28" on="0"/>
        <pt x="419" y="-15" on="0"/>
      </contour>
    </TTGlyph>
    <TTGlyph name="Uacute" xMin="132" yMin="-15" xMax="751" yMax="936">
      <component glyphName="U" x="0" y="0" flags="0x204"/>
      <component glyphName="acute" x="168" y="156" flags="0x4"/>
    </TTGlyph>
    <TTGlyph name="Ubreve" xMin="132" yMin="-15" xMax="751" yMax="905">
      <component glyphName="U" x="0" y="0" flags="0x204"/>
      <component glyphName="breve" x="175" y="156" flags="0x4"/>
    </TTGlyph>
    <TTGlyph name="Ucircumflex" xMin="132" yMin="-15" xMax="751" yMax="925">
      <component glyphName="U" x="0" y="0" flags="0x204"/>
      <component glyphName="circumflex" x="169" y="156" flags="0x4"/>
    </TTGlyph>
    <TTGlyph name="Udieresis" xMin="132" yMin="-15" xMax="751" yMax="890">
      <component glyphName="U" x="0" y="0" flags="0x204"/>
      <component glyphName="dieresis" x="176" y="156" flags="0x4"/>
    </TTGlyph>
    <TTGlyph name="Ugrave" xMin="132" yMin="-15" xMax="751" yMax="935">
      <component glyphName="U" x="0" y="0" flags="0x204"/>
      <component glyphName="grave" x="169" y="156" flags="0x4"/>
    </TTGlyph>
    <TTGlyph name="Uhorn" xMin="132" yMin="-15" xMax="898" yMax="801">
      <contour>
        <pt x="647" y="258" on="1"/>
        <pt x="633" y="201" on="0"/>
        <pt x="596" y="101" on="0"/>
        <pt x="528" y="28" on="0"/>
        <pt x="419" y="-15" on="0"/>
        <pt x="334" y="-15" on="1"/>
        <pt x="282" y="-15" on="0"/>
        <pt x="206" y="16" on="0"/>
        <pt x="156" y="69" on="0"/>
        <pt x="132" y="142" on="0"/>
        <pt x="132" y="184" on="1"/>
        <pt x="132" y="206" on="0"/>
        <pt x="140" y="260" on="0"/>
        <pt x="145" y="283" on="1"/>
        <pt x="243" y="693" on="1"/>
        <pt x="340" y="693" on="1"/>
        <pt x="240" y="277" on="1"/>
        <pt x="235" y="258" on="0"/>
        <pt x="229" y="212" on="0"/>
        <pt x="229" y="192" on="1"/>
        <pt x="229" y="166" on="0"/>
        <pt x="241" y="122" on="0"/>
        <pt x="270" y="89" on="0"/>
        <pt x="316" y="70" on="0"/>
        <pt x="349" y="70" on="1"/>
        <pt x="434" y="70" on="0"/>
        <pt x="528" y="165" on="0"/>
        <pt x="552" y="269" on="1"/>
        <pt x="654" y="693" on="1"/>
        <pt x="715" y="693" on="1"/>
        <pt x="742" y="693" on="0"/>
        <pt x="776" y="714" on="0"/>
        <pt x="795" y="746" on="0"/>
        <pt x="804" y="784" on="0"/>
        <pt x="805" y="801" on="1"/>
        <pt x="898" y="801" on="1"/>
        <pt x="895" y="769" on="0"/>
        <pt x="875" y="711" on="0"/>
        <pt x="837" y="665" on="0"/>
        <pt x="778" y="632" on="0"/>
        <pt x="735" y="626" on="1"/>
      </contour>
    </TTGlyph>
    <TTGlyph name="Uhungarumlaut" xMin="132" yMin="-15" xMax="751" yMax="932">
      <component glyphName="U" x="0" y="0" flags="0x204"/>
      <component glyphName="hungarumlaut" x="203" y="156" flags="0x4"/>
    </TTGlyph>
    <TTGlyph name="Umacron" xMin="132" yMin="-15" xMax="751" yMax="867">
      <component glyphName="U" x="0" y="0" flags="0x204"/>
      <component glyphName="macron" x="176" y="156" flags="0x4"/>
    </TTGlyph>
    <TTGlyph name="Uogonek" xMin="132" yMin="-187" xMax="751" yMax="693">
      <contour>
        <pt x="381" y="-187" on="1"/>
        <pt x="326" y="-187" on="0"/>
        <pt x="282" y="-152" on="0"/>
        <pt x="282" y="-124" on="1"/>
        <pt x="282" y="-97" on="0"/>
        <pt x="318" y="-47" on="0"/>
        <pt x="342" y="-27" on="1"/>
        <pt x="346" y="-24" on="0"/>
        <pt x="357" y="-15" on="0"/>
        <pt x="361" y="-13" on="1"/>
        <pt x="355" y="-14" on="0"/>
        <pt x="340" y="-14" on="0"/>
        <pt x="334" y="-14" on="1"/>
        <pt x="282" y="-14" on="0"/>
        <pt x="206" y="16" on="0"/>
        <pt x="156" y="70" on="0"/>
        <pt x="132" y="142" on="0"/>
        <pt x="132" y="184" on="1"/>
        <pt x="132" y="206" on="0"/>
        <pt x="140" y="260" on="0"/>
        <pt x="145" y="283" on="1"/>
        <pt x="243" y="693" on="1"/>
        <pt x="340" y="693" on="1"/>
        <pt x="240" y="277" on="1"/>
        <pt x="235" y="258" on="0"/>
        <pt x="229" y="212" on="0"/>
        <pt x="229" y="192" on="1"/>
        <pt x="229" y="166" on="0"/>
        <pt x="241" y="122" on="0"/>
        <pt x="270" y="89" on="0"/>
        <pt x="316" y="70" on="0"/>
        <pt x="349" y="70" on="1"/>
        <pt x="434" y="70" on="0"/>
        <pt x="528" y="165" on="0"/>
        <pt x="552" y="269" on="1"/>
        <pt x="654" y="693" on="1"/>
        <pt x="751" y="693" on="1"/>
        <pt x="647" y="258" on="1"/>
        <pt x="637" y="217" on="0"/>
        <pt x="613" y="143" on="0"/>
        <pt x="578" y="80" on="0"/>
        <pt x="528" y="31" on="0"/>
        <pt x="492" y="14" on="1"/>
        <pt x="474" y="6" on="0"/>
        <pt x="434" y="-23" on="0"/>
        <pt x="416" y="-38" on="1"/>
        <pt x="403" y="-49" on="0"/>
        <pt x="370" y="-82" on="0"/>
        <pt x="370" y="-101" on="1"/>
        <pt x="370" y="-111" on="0"/>
        <pt x="387" y="-123" on="0"/>
        <pt x="407" y="-123" on="1"/>
        <pt x="417" y="-123" on="0"/>
        <pt x="438" y="-119" on="0"/>
        <pt x="447" y="-116" on="1"/>
        <pt x="439" y="-176" on="1"/>
        <pt x="415" y="-187" on="0"/>
      </contour>
    </TTGlyph>
    <TTGlyph name="Upsilon" xMin="164" yMin="0" xMax="728" yMax="693">
      <component glyphName="Y" x="0" y="0" flags="0x204"/>
    </TTGlyph>
    <TTGlyph name="Upsilondieresis" xMin="164" yMin="0" xMax="728" yMax="890">
      <component glyphName="Y" x="0" y="0" flags="0x204"/>
      <component glyphName="dieresis" x="127" y="156" flags="0x4"/>
    </TTGlyph>
    <TTGlyph name="Upsilontonos" xMin="93" yMin="0" xMax="860" yMax="709">
      <component glyphName="Y" x="132" y="0" flags="0x4"/>
      <component glyphName="tonos.cap" x="-154" y="0" flags="0x4"/>
    </TTGlyph>
    <TTGlyph name="Uring" xMin="132" yMin="-15" xMax="751" yMax="935">
      <component glyphName="U" x="0" y="0" flags="0x204"/>
      <component glyphName="ring" x="184" y="156" flags="0x4"/>
    </TTGlyph>
    <TTGlyph name="Utilde" xMin="132" yMin="-15" xMax="751" yMax="893">
      <component glyphName="U" x="0" y="0" flags="0x204"/>
      <component glyphName="tilde" x="174" y="156" flags="0x4"/>
    </TTGlyph>
    <TTGlyph name="V" xMin="166" yMin="0" xMax="775" yMax="693">
      <contour>
        <pt x="331" y="115" on="1"/>
        <pt x="373" y="175" on="0"/>
        <pt x="460" y="313" on="0"/>
        <pt x="547" y="462" on="0"/>
        <pt x="630" y="616" on="0"/>
        <pt x="668" y="693" on="1"/>
        <pt x="775" y="693" on="1"/>
        <pt x="720" y="589" on="0"/>
        <pt x="615" y="402" on="0"/>
        <pt x="512" y="231" on="0"/>
        <pt x="409" y="74" on="0"/>
        <pt x="355" y="0" on="1"/>
        <pt x="260" y="0" on="1"/>
        <pt x="245" y="75" on="0"/>
        <pt x="219" y="228" on="0"/>
        <pt x="197" y="396" on="0"/>
        <pt x="176" y="583" on="0"/>
        <pt x="166" y="693" on="1"/>
        <pt x="266" y="693" on="1"/>
        <pt x="282" y="515" on="0"/>
        <pt x="311" y="233" on="0"/>
      </contour>
    </TTGlyph>
    <TTGlyph name="W" xMin="177" yMin="0" xMax="1046" yMax="693">
      <contour>
        <pt x="637" y="609" on="1"/>
        <pt x="645" y="475" on="0"/>
        <pt x="674" y="223" on="0"/>
        <pt x="688" y="124" on="1"/>
        <pt x="718" y="180" on="0"/>
        <pt x="783" y="314" on="0"/>
        <pt x="848" y="461" on="0"/>
        <pt x="913" y="616" on="0"/>
        <pt x="943" y="693" on="1"/>
        <pt x="1046" y="693" on="1"/>
        <pt x="966" y="495" on="0"/>
        <pt x="807" y="153" on="0"/>
        <pt x="719" y="0" on="1"/>
        <pt x="621" y="0" on="1"/>
        <pt x="604" y="106" on="0"/>
        <pt x="572" y="331" on="0"/>
        <pt x="562" y="464" on="1"/>
        <pt x="494" y="340" on="0"/>
        <pt x="363" y="115" on="0"/>
        <pt x="289" y="0" on="1"/>
        <pt x="191" y="0" on="1"/>
        <pt x="183" y="81" on="0"/>
        <pt x="177" y="243" on="0"/>
        <pt x="177" y="330" on="1"/>
        <pt x="177" y="417" on="0"/>
        <pt x="183" y="594" on="0"/>
        <pt x="189" y="693" on="1"/>
        <pt x="285" y="693" on="1"/>
        <pt x="278" y="588" on="0"/>
        <pt x="270" y="383" on="0"/>
        <pt x="270" y="277" on="1"/>
        <pt x="270" y="200" on="0"/>
        <pt x="273" y="124" on="1"/>
        <pt x="342" y="230" on="0"/>
        <pt x="479" y="476" on="0"/>
        <pt x="548" y="609" on="1"/>
      </contour>
    </TTGlyph>
    <TTGlyph name="Wacute" xMin="177" yMin="0" xMax="1046" yMax="936">
      <component glyphName="W" x="0" y="0" flags="0x204"/>
      <component glyphName="acute" x="291" y="156" flags="0x4"/>
    </TTGlyph>
    <TTGlyph name="Wcircumflex" xMin="177" yMin="0" xMax="1046" yMax="925">
      <component glyphName="W" x="0" y="0" flags="0x204"/>
      <component glyphName="circumflex" x="292" y="156" flags="0x4"/>
    </TTGlyph>
    <TTGlyph name="Wdieresis" xMin="177" yMin="0" xMax="1046" yMax="890">
      <component glyphName="W" x="0" y="0" flags="0x204"/>
      <component glyphName="dieresis" x="299" y="156" flags="0x4"/>
    </TTGlyph>
    <TTGlyph name="Wgrave" xMin="177" yMin="0" xMax="1046" yMax="935">
      <component glyphName="W" x="0" y="0" flags="0x204"/>
      <component glyphName="grave" x="292" y="156" flags="0x4"/>
    </TTGlyph>
    <TTGlyph name="X" xMin="13" yMin="0" xMax="717" yMax="693">
      <contour>
        <pt x="484" y="0" on="1"/>
        <pt x="461" y="70" on="0"/>
        <pt x="406" y="215" on="0"/>
        <pt x="372" y="290" on="1"/>
        <pt x="127" y="0" on="1"/>
        <pt x="13" y="0" on="1"/>
        <pt x="332" y="370" on="1"/>
        <pt x="191" y="693" on="1"/>
        <pt x="298" y="693" on="1"/>
        <pt x="403" y="438" on="1"/>
        <pt x="457" y="501" on="0"/>
        <pt x="561" y="629" on="0"/>
        <pt x="606" y="693" on="1"/>
        <pt x="717" y="693" on="1"/>
        <pt x="657" y="611" on="0"/>
        <pt x="513" y="442" on="0"/>
        <pt x="443" y="364" on="1"/>
        <pt x="481" y="274" on="0"/>
        <pt x="556" y="88" on="0"/>
        <pt x="585" y="0" on="1"/>
      </contour>
    </TTGlyph>
    <TTGlyph name="Xi" xMin="34" yMin="0" xMax="651" yMax="693">
      <contour>
        <pt x="631" y="610" on="1"/>
        <pt x="189" y="610" on="1"/>
        <pt x="209" y="693" on="1"/>
        <pt x="651" y="693" on="1"/>
      </contour>
      <contour>
        <pt x="54" y="83" on="1"/>
        <pt x="514" y="83" on="1"/>
        <pt x="494" y="0" on="1"/>
        <pt x="34" y="0" on="1"/>
      </contour>
      <contour>
        <pt x="181" y="405" on="1"/>
        <pt x="540" y="405" on="1"/>
        <pt x="520" y="322" on="1"/>
        <pt x="161" y="322" on="1"/>
      </contour>
    </TTGlyph>
    <TTGlyph name="Y" xMin="164" yMin="0" xMax="728" yMax="693">
      <contour>
        <pt x="232" y="0" on="1"/>
        <pt x="298" y="278" on="1"/>
        <pt x="259" y="383" on="0"/>
        <pt x="192" y="594" on="0"/>
        <pt x="164" y="693" on="1"/>
        <pt x="269" y="693" on="1"/>
        <pt x="288" y="612" on="0"/>
        <pt x="335" y="444" on="0"/>
        <pt x="364" y="366" on="1"/>
        <pt x="430" y="443" on="0"/>
        <pt x="565" y="613" on="0"/>
        <pt x="617" y="693" on="1"/>
        <pt x="728" y="693" on="1"/>
        <pt x="653" y="591" on="0"/>
        <pt x="489" y="386" on="0"/>
        <pt x="395" y="278" on="1"/>
        <pt x="329" y="0" on="1"/>
      </contour>
    </TTGlyph>
    <TTGlyph name="Yacute" xMin="164" yMin="0" xMax="728" yMax="936">
      <component glyphName="Y" x="0" y="0" flags="0x204"/>
      <component glyphName="acute" x="119" y="156" flags="0x4"/>
    </TTGlyph>
    <TTGlyph name="Ycircumflex" xMin="164" yMin="0" xMax="728" yMax="925">
      <component glyphName="Y" x="0" y="0" flags="0x204"/>
      <component glyphName="circumflex" x="120" y="156" flags="0x4"/>
    </TTGlyph>
    <TTGlyph name="Ydieresis" xMin="164" yMin="0" xMax="728" yMax="890">
      <component glyphName="Y" x="0" y="0" flags="0x204"/>
      <component glyphName="dieresis" x="127" y="156" flags="0x4"/>
    </TTGlyph>
    <TTGlyph name="Ygrave" xMin="164" yMin="0" xMax="728" yMax="935">
      <component glyphName="Y" x="0" y="0" flags="0x204"/>
      <component glyphName="grave" x="120" y="156" flags="0x4"/>
    </TTGlyph>
    <TTGlyph name="Z" xMin="35" yMin="0" xMax="684" yMax="693">
      <contour>
        <pt x="666" y="616" on="1"/>
        <pt x="638" y="591" on="0"/>
        <pt x="562" y="517" on="0"/>
        <pt x="474" y="428" on="0"/>
        <pt x="381" y="329" on="0"/>
        <pt x="289" y="226" on="0"/>
        <pt x="205" y="126" on="0"/>
        <pt x="171" y="81" on="1"/>
        <pt x="545" y="81" on="1"/>
        <pt x="526" y="0" on="1"/>
        <pt x="35" y="0" on="1"/>
        <pt x="50" y="65" on="1"/>
        <pt x="79" y="104" on="0"/>
        <pt x="155" y="197" on="0"/>
        <pt x="241" y="298" on="0"/>
        <pt x="333" y="400" on="0"/>
        <pt x="423" y="496" on="0"/>
        <pt x="507" y="580" on="0"/>
        <pt x="542" y="612" on="1"/>
        <pt x="199" y="612" on="1"/>
        <pt x="218" y="693" on="1"/>
        <pt x="684" y="693" on="1"/>
      </contour>
    </TTGlyph>
    <TTGlyph name="Zacute" xMin="35" yMin="0" xMax="684" yMax="936">
      <component glyphName="Z" x="0" y="0" flags="0x204"/>
      <component glyphName="acute" x="121" y="156" flags="0x4"/>
    </TTGlyph>
    <TTGlyph name="Zcaron" xMin="35" yMin="0" xMax="684" yMax="930">
      <component glyphName="Z" x="0" y="0" flags="0x204"/>
      <component glyphName="caron" x="128" y="156" flags="0x4"/>
    </TTGlyph>
    <TTGlyph name="Zdotaccent" xMin="35" yMin="0" xMax="684" yMax="892">
      <component glyphName="Z" x="0" y="0" flags="0x204"/>
      <component glyphName="dotaccent" x="151" y="156" flags="0x4"/>
    </TTGlyph>
    <TTGlyph name="Zeta" xMin="35" yMin="0" xMax="684" yMax="693">
      <component glyphName="Z" x="0" y="0" flags="0x204"/>
    </TTGlyph>
    <TTGlyph name="a" xMin="98" yMin="-13" xMax="585" yMax="531">
      <contour>
        <pt x="432" y="-6" on="1"/>
        <pt x="427" y="5" on="0"/>
        <pt x="417" y="32" on="0"/>
        <pt x="414" y="47" on="1"/>
        <pt x="392" y="27" on="0"/>
        <pt x="318" y="-13" on="0"/>
        <pt x="264" y="-13" on="1"/>
        <pt x="220" y="-13" on="0"/>
        <pt x="157" y="15" on="0"/>
        <pt x="117" y="65" on="0"/>
        <pt x="98" y="133" on="0"/>
        <pt x="98" y="174" on="1"/>
        <pt x="98" y="241" on="0"/>
        <pt x="143" y="369" on="0"/>
        <pt x="233" y="469" on="0"/>
        <pt x="369" y="531" on="0"/>
        <pt x="460" y="531" on="1"/>
        <pt x="487" y="531" on="0"/>
        <pt x="559" y="519" on="0"/>
        <pt x="585" y="505" on="1"/>
        <pt x="508" y="191" on="1"/>
        <pt x="503" y="168" on="0"/>
        <pt x="496" y="126" on="0"/>
        <pt x="496" y="103" on="1"/>
        <pt x="496" y="80" on="0"/>
        <pt x="504" y="33" on="0"/>
        <pt x="514" y="6" on="1"/>
      </contour>
      <contour>
        <pt x="283" y="66" on="1"/>
        <pt x="325" y="66" on="0"/>
        <pt x="385" y="102" on="0"/>
        <pt x="407" y="126" on="1"/>
        <pt x="408" y="143" on="0"/>
        <pt x="413" y="180" on="0"/>
        <pt x="417" y="199" on="1"/>
        <pt x="477" y="447" on="1"/>
        <pt x="472" y="449" on="0"/>
        <pt x="449" y="451" on="0"/>
        <pt x="440" y="451" on="1"/>
        <pt x="383" y="451" on="0"/>
        <pt x="291" y="407" on="0"/>
        <pt x="226" y="334" on="0"/>
        <pt x="191" y="237" on="0"/>
        <pt x="191" y="184" on="1"/>
        <pt x="191" y="163" on="0"/>
        <pt x="199" y="120" on="0"/>
        <pt x="220" y="87" on="0"/>
        <pt x="255" y="66" on="0"/>
      </contour>
    </TTGlyph>
    <TTGlyph name="aacute" xMin="98" yMin="-13" xMax="585" yMax="780">
      <component glyphName="a" x="0" y="0" flags="0x204"/>
      <component glyphName="acute" x="83" y="0" flags="0x4"/>
    </TTGlyph>
    <TTGlyph name="abreve" xMin="98" yMin="-13" xMax="593" yMax="749">
      <component glyphName="a" x="0" y="0" flags="0x204"/>
      <component glyphName="breve" x="91" y="0" flags="0x4"/>
    </TTGlyph>
    <TTGlyph name="acircumflex" xMin="98" yMin="-13" xMax="585" yMax="769">
      <component glyphName="a" x="0" y="0" flags="0x204"/>
      <component glyphName="circumflex" x="85" y="0" flags="0x4"/>
    </TTGlyph>
    <TTGlyph name="acute" xMin="262" yMin="580" xMax="471" yMax="780">
      <contour>
        <pt x="471" y="708" on="1"/>
        <pt x="302" y="580" on="1"/>
        <pt x="262" y="629" on="1"/>
        <pt x="420" y="780" on="1"/>
      </contour>
    </TTGlyph>
    <TTGlyph name="acute.asc" xMin="298" yMin="819" xMax="487" yMax="952">
      <contour>
        <pt x="487" y="880" on="1"/>
        <pt x="315" y="819" on="1"/>
        <pt x="298" y="869" on="1"/>
        <pt x="466" y="952" on="1"/>
      </contour>
    </TTGlyph>
    <TTGlyph name="adieresis" xMin="98" yMin="-13" xMax="594" yMax="734">
      <component glyphName="a" x="0" y="0" flags="0x204"/>
      <component glyphName="dieresis" x="91" y="0" flags="0x4"/>
    </TTGlyph>
    <TTGlyph name="ae" xMin="98" yMin="-13" xMax="876" yMax="530">
      <contour>
        <pt x="786" y="23" on="1"/>
        <pt x="760" y="9" on="0"/>
        <pt x="673" y="-13" on="0"/>
        <pt x="625" y="-13" on="1"/>
        <pt x="598" y="-13" on="0"/>
        <pt x="545" y="-3" on="0"/>
        <pt x="499" y="20" on="0"/>
        <pt x="462" y="57" on="0"/>
        <pt x="451" y="85" on="1"/>
        <pt x="416" y="39" on="0"/>
        <pt x="308" y="-13" on="0"/>
        <pt x="245" y="-13" on="1"/>
        <pt x="216" y="-13" on="0"/>
        <pt x="162" y="2" on="0"/>
        <pt x="122" y="33" on="0"/>
        <pt x="98" y="81" on="0"/>
        <pt x="98" y="114" on="1"/>
        <pt x="98" y="184" on="0"/>
        <pt x="167" y="263" on="0"/>
        <pt x="272" y="301" on="0"/>
        <pt x="396" y="312" on="0"/>
        <pt x="452" y="315" on="1"/>
        <pt x="453" y="323" on="0"/>
        <pt x="454" y="338" on="0"/>
        <pt x="454" y="346" on="1"/>
        <pt x="454" y="400" on="0"/>
        <pt x="394" y="449" on="0"/>
        <pt x="328" y="449" on="1"/>
        <pt x="308" y="449" on="0"/>
        <pt x="268" y="441" on="0"/>
        <pt x="232" y="431" on="0"/>
        <pt x="203" y="419" on="0"/>
        <pt x="196" y="415" on="1"/>
        <pt x="188" y="494" on="1"/>
        <pt x="211" y="506" on="0"/>
        <pt x="298" y="530" on="0"/>
        <pt x="346" y="530" on="1"/>
        <pt x="372" y="530" on="0"/>
        <pt x="424" y="520" on="0"/>
        <pt x="471" y="498" on="0"/>
        <pt x="510" y="459" on="0"/>
        <pt x="523" y="431" on="1"/>
        <pt x="542" y="456" on="0"/>
        <pt x="590" y="493" on="0"/>
        <pt x="644" y="518" on="0"/>
        <pt x="700" y="530" on="0"/>
        <pt x="727" y="530" on="1"/>
        <pt x="757" y="530" on="0"/>
        <pt x="812" y="516" on="0"/>
        <pt x="852" y="485" on="0"/>
        <pt x="876" y="437" on="0"/>
        <pt x="876" y="403" on="1"/>
        <pt x="876" y="356" on="0"/>
        <pt x="844" y="291" on="0"/>
        <pt x="790" y="247" on="0"/>
        <pt x="719" y="223" on="0"/>
        <pt x="640" y="209" on="0"/>
        <pt x="559" y="204" on="0"/>
        <pt x="522" y="202" on="1"/>
        <pt x="521" y="194" on="0"/>
        <pt x="520" y="179" on="0"/>
        <pt x="520" y="172" on="1"/>
        <pt x="520" y="115" on="0"/>
        <pt x="580" y="68" on="0"/>
        <pt x="646" y="68" on="1"/>
        <pt x="665" y="68" on="0"/>
        <pt x="706" y="75" on="0"/>
        <pt x="743" y="86" on="0"/>
        <pt x="772" y="97" on="0"/>
        <pt x="778" y="102" on="1"/>
      </contour>
      <contour>
        <pt x="441" y="244" on="1"/>
        <pt x="370" y="242" on="0"/>
        <pt x="274" y="226" on="0"/>
        <pt x="215" y="196" on="0"/>
        <pt x="189" y="154" on="0"/>
        <pt x="189" y="127" on="1"/>
        <pt x="189" y="95" on="0"/>
        <pt x="231" y="64" on="0"/>
        <pt x="265" y="64" on="1"/>
        <pt x="331" y="64" on="0"/>
        <pt x="424" y="157" on="0"/>
      </contour>
      <contour>
        <pt x="533" y="273" on="1"/>
        <pt x="603" y="274" on="0"/>
        <pt x="700" y="291" on="0"/>
        <pt x="759" y="321" on="0"/>
        <pt x="785" y="363" on="0"/>
        <pt x="785" y="390" on="1"/>
        <pt x="785" y="422" on="0"/>
        <pt x="743" y="453" on="0"/>
        <pt x="709" y="453" on="1"/>
        <pt x="643" y="453" on="0"/>
        <pt x="550" y="360" on="0"/>
      </contour>
    </TTGlyph>
    <TTGlyph name="aeacute" xMin="98" yMin="-13" xMax="876" yMax="780">
      <component glyphName="ae" x="0" y="0" flags="0x204"/>
      <component glyphName="acute" x="229" y="0" flags="0x4"/>
    </TTGlyph>
    <TTGlyph name="afii00208" xMin="61" yMin="260" xMax="1080" yMax="339">
      <component glyphName="emdash" x="0" y="0" flags="0x204"/>
    </TTGlyph>
    <TTGlyph name="afii10017" xMin="10" yMin="0" xMax="632" yMax="693">
      <component glyphName="A" x="0" y="0" flags="0x204"/>
    </TTGlyph>
    <TTGlyph name="afii10018" xMin="83" yMin="-7" xMax="654" yMax="693">
      <contour>
        <pt x="247" y="693" on="1"/>
        <pt x="654" y="693" on="1"/>
        <pt x="636" y="612" on="1"/>
        <pt x="324" y="612" on="1"/>
        <pt x="281" y="434" on="1"/>
        <pt x="362" y="434" on="1"/>
        <pt x="483" y="434" on="0"/>
        <pt x="609" y="350" on="0"/>
        <pt x="609" y="256" on="1"/>
        <pt x="609" y="190" on="0"/>
        <pt x="559" y="91" on="0"/>
        <pt x="470" y="25" on="0"/>
        <pt x="346" y="-7" on="0"/>
        <pt x="271" y="-7" on="1"/>
        <pt x="249" y="-7" on="0"/>
        <pt x="199" y="-5" on="0"/>
        <pt x="149" y="-1" on="0"/>
        <pt x="102" y="6" on="0"/>
        <pt x="83" y="11" on="1"/>
      </contour>
      <contour>
        <pt x="196" y="80" on="1"/>
        <pt x="204" y="78" on="0"/>
        <pt x="247" y="75" on="0"/>
        <pt x="276" y="75" on="1"/>
        <pt x="324" y="75" on="0"/>
        <pt x="408" y="93" on="0"/>
        <pt x="472" y="134" on="0"/>
        <pt x="509" y="200" on="0"/>
        <pt x="509" y="248" on="1"/>
        <pt x="509" y="278" on="0"/>
        <pt x="486" y="319" on="0"/>
        <pt x="444" y="344" on="0"/>
        <pt x="385" y="354" on="0"/>
        <pt x="350" y="354" on="1"/>
        <pt x="262" y="354" on="1"/>
      </contour>
    </TTGlyph>
    <TTGlyph name="afii10019" xMin="84" yMin="-7" xMax="663" yMax="700">
      <component glyphName="B" x="0" y="0" flags="0x204"/>
    </TTGlyph>
    <TTGlyph name="afii10020" xMin="81" yMin="0" xMax="639" yMax="693">
      <contour>
        <pt x="639" y="693" on="1"/>
        <pt x="620" y="612" on="1"/>
        <pt x="325" y="612" on="1"/>
        <pt x="178" y="0" on="1"/>
        <pt x="81" y="0" on="1"/>
        <pt x="247" y="693" on="1"/>
      </contour>
    </TTGlyph>
    <TTGlyph name="afii10021" xMin="-27" yMin="-185" xMax="759" yMax="693">
      <contour>
        <pt x="108" y="81" on="1"/>
        <pt x="165" y="132" on="0"/>
        <pt x="246" y="253" on="0"/>
        <pt x="307" y="402" on="0"/>
        <pt x="353" y="582" on="0"/>
        <pt x="376" y="693" on="1"/>
        <pt x="759" y="693" on="1"/>
        <pt x="613" y="81" on="1"/>
        <pt x="700" y="81" on="1"/>
        <pt x="636" y="-185" on="1"/>
        <pt x="546" y="-185" on="1"/>
        <pt x="591" y="0" on="1"/>
        <pt x="107" y="0" on="1"/>
        <pt x="63" y="-185" on="1"/>
        <pt x="-27" y="-185" on="1"/>
        <pt x="37" y="81" on="1"/>
      </contour>
      <contour>
        <pt x="454" y="610" on="1"/>
        <pt x="440" y="548" on="0"/>
        <pt x="400" y="400" on="0"/>
        <pt x="345" y="255" on="0"/>
        <pt x="273" y="125" on="0"/>
        <pt x="227" y="81" on="1"/>
        <pt x="517" y="81" on="1"/>
        <pt x="644" y="610" on="1"/>
      </contour>
    </TTGlyph>
    <TTGlyph name="afii10022" xMin="81" yMin="0" xMax="656" yMax="693">
      <component glyphName="E" x="0" y="0" flags="0x204"/>
    </TTGlyph>
    <TTGlyph name="afii10023" xMin="81" yMin="0" xMax="656" yMax="890">
      <component glyphName="E" x="0" y="0" flags="0x204"/>
      <component glyphName="dieresis" x="135" y="156" flags="0x4"/>
    </TTGlyph>
    <TTGlyph name="afii10024" xMin="9" yMin="0" xMax="993" yMax="693">
      <contour>
        <pt x="188" y="693" on="1"/>
        <pt x="289" y="693" on="1"/>
        <pt x="458" y="384" on="1"/>
        <pt x="532" y="693" on="1"/>
        <pt x="625" y="693" on="1"/>
        <pt x="551" y="383" on="1"/>
        <pt x="645" y="467" on="0"/>
        <pt x="805" y="618" on="0"/>
        <pt x="874" y="693" on="1"/>
        <pt x="993" y="693" on="1"/>
        <pt x="899" y="597" on="0"/>
        <pt x="718" y="431" on="0"/>
        <pt x="637" y="359" on="1"/>
        <pt x="665" y="323" on="0"/>
        <pt x="722" y="237" on="0"/>
        <pt x="773" y="143" on="0"/>
        <pt x="817" y="46" on="0"/>
        <pt x="834" y="0" on="1"/>
        <pt x="731" y="0" on="1"/>
        <pt x="716" y="44" on="0"/>
        <pt x="671" y="138" on="0"/>
        <pt x="619" y="226" on="0"/>
        <pt x="564" y="304" on="0"/>
        <pt x="539" y="333" on="1"/>
        <pt x="459" y="0" on="1"/>
        <pt x="366" y="0" on="1"/>
        <pt x="446" y="334" on="1"/>
        <pt x="407" y="305" on="0"/>
        <pt x="322" y="228" on="0"/>
        <pt x="236" y="141" on="0"/>
        <pt x="155" y="46" on="0"/>
        <pt x="119" y="0" on="1"/>
        <pt x="9" y="0" on="1"/>
        <pt x="43" y="47" on="0"/>
        <pt x="126" y="147" on="0"/>
        <pt x="218" y="245" on="0"/>
        <pt x="317" y="336" on="0"/>
        <pt x="367" y="375" on="1"/>
      </contour>
    </TTGlyph>
    <TTGlyph name="afii10025" xMin="38" yMin="-15" xMax="595" yMax="708">
      <contour>
        <pt x="396" y="708" on="1"/>
        <pt x="492" y="708" on="0"/>
        <pt x="595" y="628" on="0"/>
        <pt x="595" y="552" on="1"/>
        <pt x="595" y="516" on="0"/>
        <pt x="570" y="457" on="0"/>
        <pt x="528" y="412" on="0"/>
        <pt x="474" y="380" on="0"/>
        <pt x="445" y="371" on="1"/>
        <pt x="493" y="354" on="0"/>
        <pt x="549" y="283" on="0"/>
        <pt x="549" y="226" on="1"/>
        <pt x="549" y="166" on="0"/>
        <pt x="504" y="76" on="0"/>
        <pt x="422" y="15" on="0"/>
        <pt x="308" y="-15" on="0"/>
        <pt x="240" y="-15" on="1"/>
        <pt x="198" y="-15" on="0"/>
        <pt x="131" y="-4" on="0"/>
        <pt x="80" y="12" on="0"/>
        <pt x="47" y="29" on="0"/>
        <pt x="38" y="36" on="1"/>
        <pt x="83" y="115" on="1"/>
        <pt x="102" y="102" on="0"/>
        <pt x="184" y="69" on="0"/>
        <pt x="247" y="69" on="1"/>
        <pt x="290" y="69" on="0"/>
        <pt x="365" y="87" on="0"/>
        <pt x="419" y="124" on="0"/>
        <pt x="450" y="181" on="0"/>
        <pt x="450" y="220" on="1"/>
        <pt x="450" y="251" on="0"/>
        <pt x="425" y="292" on="0"/>
        <pt x="381" y="316" on="0"/>
        <pt x="322" y="326" on="0"/>
        <pt x="288" y="326" on="1"/>
        <pt x="215" y="326" on="1"/>
        <pt x="235" y="405" on="1"/>
        <pt x="309" y="405" on="1"/>
        <pt x="342" y="405" on="0"/>
        <pt x="409" y="421" on="0"/>
        <pt x="463" y="455" on="0"/>
        <pt x="497" y="507" on="0"/>
        <pt x="497" y="542" on="1"/>
        <pt x="497" y="579" on="0"/>
        <pt x="448" y="625" on="0"/>
        <pt x="387" y="625" on="1"/>
        <pt x="327" y="625" on="0"/>
        <pt x="244" y="597" on="0"/>
        <pt x="219" y="584" on="1"/>
        <pt x="206" y="663" on="1"/>
        <pt x="219" y="671" on="0"/>
        <pt x="262" y="687" on="0"/>
        <pt x="314" y="700" on="0"/>
        <pt x="370" y="708" on="0"/>
      </contour>
    </TTGlyph>
    <TTGlyph name="afii10026" xMin="81" yMin="0" xMax="782" yMax="693">
      <contour>
        <pt x="81" y="0" on="1"/>
        <pt x="248" y="693" on="1"/>
        <pt x="343" y="693" on="1"/>
        <pt x="218" y="175" on="1"/>
        <pt x="260" y="227" on="0"/>
        <pt x="379" y="365" on="0"/>
        <pt x="511" y="509" on="0"/>
        <pt x="644" y="644" on="0"/>
        <pt x="699" y="693" on="1"/>
        <pt x="782" y="693" on="1"/>
        <pt x="615" y="0" on="1"/>
        <pt x="520" y="0" on="1"/>
        <pt x="649" y="539" on="1"/>
        <pt x="598" y="490" on="0"/>
        <pt x="469" y="351" on="0"/>
        <pt x="336" y="202" on="0"/>
        <pt x="213" y="56" on="0"/>
        <pt x="169" y="0" on="1"/>
      </contour>
    </TTGlyph>
    <TTGlyph name="afii10027" xMin="81" yMin="0" xMax="782" yMax="900">
      <component glyphName="afii10026" x="0" y="0" flags="0x204"/>
      <component glyphName="kratka" x="204" y="156" flags="0x4"/>
    </TTGlyph>
    <TTGlyph name="afii10028" xMin="81" yMin="0" xMax="750" yMax="693">
      <component glyphName="K" x="0" y="0" flags="0x204"/>
    </TTGlyph>
    <TTGlyph name="afii10029" xMin="22" yMin="-9" xMax="741" yMax="693">
      <contour>
        <pt x="436" y="610" on="1"/>
        <pt x="413" y="498" on="0"/>
        <pt x="350" y="287" on="0"/>
        <pt x="308" y="199" on="1"/>
        <pt x="294" y="170" on="0"/>
        <pt x="251" y="101" on="0"/>
        <pt x="185" y="39" on="0"/>
        <pt x="94" y="-5" on="0"/>
        <pt x="32" y="-9" on="1"/>
        <pt x="22" y="75" on="1"/>
        <pt x="86" y="83" on="0"/>
        <pt x="183" y="154" on="0"/>
        <pt x="217" y="221" on="1"/>
        <pt x="253" y="292" on="0"/>
        <pt x="323" y="517" on="0"/>
        <pt x="356" y="693" on="1"/>
        <pt x="741" y="693" on="1"/>
        <pt x="576" y="0" on="1"/>
        <pt x="480" y="0" on="1"/>
        <pt x="626" y="610" on="1"/>
      </contour>
    </TTGlyph>
    <TTGlyph name="afii10030" xMin="64" yMin="0" xMax="889" yMax="693">
      <component glyphName="M" x="0" y="0" flags="0x204"/>
    </TTGlyph>
    <TTGlyph name="afii10031" xMin="81" yMin="0" xMax="762" yMax="693">
      <component glyphName="H" x="0" y="0" flags="0x204"/>
    </TTGlyph>
    <TTGlyph name="afii10032" xMin="124" yMin="-15" xMax="777" yMax="709">
      <component glyphName="O" x="0" y="0" flags="0x204"/>
    </TTGlyph>
    <TTGlyph name="afii10033" xMin="81" yMin="0" xMax="756" yMax="693">
      <contour>
        <pt x="756" y="693" on="1"/>
        <pt x="589" y="0" on="1"/>
        <pt x="492" y="0" on="1"/>
        <pt x="639" y="612" on="1"/>
        <pt x="325" y="612" on="1"/>
        <pt x="178" y="0" on="1"/>
        <pt x="81" y="0" on="1"/>
        <pt x="247" y="693" on="1"/>
      </contour>
    </TTGlyph>
    <TTGlyph name="afii10034" xMin="81" yMin="0" xMax="667" yMax="700">
      <component glyphName="P" x="0" y="0" flags="0x204"/>
    </TTGlyph>
    <TTGlyph name="afii10035" xMin="124" yMin="-15" xMax="716" yMax="709">
      <component glyphName="C" x="0" y="0" flags="0x204"/>
    </TTGlyph>
    <TTGlyph name="afii10036" xMin="165" yMin="0" xMax="699" yMax="693">
      <component glyphName="T" x="0" y="0" flags="0x204"/>
    </TTGlyph>
    <TTGlyph name="afii10037" xMin="34" yMin="-9" xMax="706" yMax="693">
      <contour>
        <pt x="422" y="212" on="1"/>
        <pt x="392" y="165" on="0"/>
        <pt x="334" y="85" on="0"/>
        <pt x="266" y="25" on="0"/>
        <pt x="181" y="-9" on="0"/>
        <pt x="124" y="-9" on="1"/>
        <pt x="92" y="-9" on="0"/>
        <pt x="42" y="5" on="0"/>
        <pt x="34" y="11" on="1"/>
        <pt x="66" y="90" on="1"/>
        <pt x="77" y="85" on="0"/>
        <pt x="108" y="74" on="0"/>
        <pt x="137" y="74" on="1"/>
        <pt x="164" y="74" on="0"/>
        <pt x="209" y="87" on="0"/>
        <pt x="248" y="113" on="0"/>
        <pt x="284" y="154" on="0"/>
        <pt x="303" y="181" on="1"/>
        <pt x="279" y="250" on="0"/>
        <pt x="237" y="392" on="0"/>
        <pt x="204" y="527" on="0"/>
        <pt x="181" y="646" on="0"/>
        <pt x="175" y="693" on="1"/>
        <pt x="272" y="693" on="1"/>
        <pt x="283" y="606" on="0"/>
        <pt x="331" y="391" on="0"/>
        <pt x="365" y="274" on="1"/>
        <pt x="395" y="320" on="0"/>
        <pt x="456" y="423" on="0"/>
        <pt x="516" y="531" on="0"/>
        <pt x="574" y="641" on="0"/>
        <pt x="600" y="693" on="1"/>
        <pt x="706" y="693" on="1"/>
        <pt x="667" y="621" on="0"/>
        <pt x="596" y="494" on="0"/>
        <pt x="527" y="377" on="0"/>
        <pt x="458" y="266" on="0"/>
      </contour>
    </TTGlyph>
    <TTGlyph name="afii10038" xMin="124" yMin="0" xMax="860" yMax="738">
      <contour>
        <pt x="489" y="164" on="1"/>
        <pt x="545" y="166" on="0"/>
        <pt x="644" y="204" on="0"/>
        <pt x="718" y="272" on="0"/>
        <pt x="761" y="365" on="0"/>
        <pt x="761" y="422" on="1"/>
        <pt x="761" y="462" on="0"/>
        <pt x="735" y="519" on="0"/>
        <pt x="690" y="557" on="0"/>
        <pt x="626" y="576" on="0"/>
        <pt x="589" y="578" on="1"/>
      </contour>
      <contour>
        <pt x="533" y="738" on="1"/>
        <pt x="627" y="738" on="1"/>
        <pt x="608" y="658" on="1"/>
        <pt x="660" y="656" on="0"/>
        <pt x="752" y="625" on="0"/>
        <pt x="820" y="568" on="0"/>
        <pt x="860" y="486" on="0"/>
        <pt x="860" y="434" on="1"/>
        <pt x="860" y="350" on="0"/>
        <pt x="795" y="220" on="0"/>
        <pt x="686" y="131" on="0"/>
        <pt x="545" y="85" on="0"/>
        <pt x="470" y="84" on="1"/>
        <pt x="450" y="0" on="1"/>
        <pt x="356" y="0" on="1"/>
        <pt x="376" y="84" on="1"/>
        <pt x="324" y="86" on="0"/>
        <pt x="232" y="117" on="0"/>
        <pt x="164" y="174" on="0"/>
        <pt x="124" y="255" on="0"/>
        <pt x="124" y="308" on="1"/>
        <pt x="124" y="392" on="0"/>
        <pt x="189" y="522" on="0"/>
        <pt x="298" y="610" on="0"/>
        <pt x="439" y="657" on="0"/>
        <pt x="514" y="658" on="1"/>
      </contour>
      <contour>
        <pt x="495" y="578" on="1"/>
        <pt x="439" y="576" on="0"/>
        <pt x="340" y="537" on="0"/>
        <pt x="266" y="470" on="0"/>
        <pt x="223" y="377" on="0"/>
        <pt x="223" y="320" on="1"/>
        <pt x="223" y="281" on="0"/>
        <pt x="249" y="223" on="0"/>
        <pt x="294" y="185" on="0"/>
        <pt x="357" y="165" on="0"/>
        <pt x="395" y="164" on="1"/>
      </contour>
    </TTGlyph>
    <TTGlyph name="afii10039" xMin="13" yMin="0" xMax="717" yMax="693">
      <component glyphName="X" x="0" y="0" flags="0x204"/>
    </TTGlyph>
    <TTGlyph name="afii10040" xMin="81" yMin="-185" xMax="758" yMax="693">
      <contour>
        <pt x="81" y="0" on="1"/>
        <pt x="247" y="693" on="1"/>
        <pt x="344" y="693" on="1"/>
        <pt x="197" y="81" on="1"/>
        <pt x="514" y="81" on="1"/>
        <pt x="661" y="693" on="1"/>
        <pt x="758" y="693" on="1"/>
        <pt x="611" y="81" on="1"/>
        <pt x="698" y="81" on="1"/>
        <pt x="634" y="-185" on="1"/>
        <pt x="544" y="-185" on="1"/>
        <pt x="589" y="0" on="1"/>
      </contour>
    </TTGlyph>
    <TTGlyph name="afii10041" xMin="163" yMin="0" xMax="690" yMax="693">
      <contour>
        <pt x="490" y="263" on="1"/>
        <pt x="481" y="260" on="0"/>
        <pt x="450" y="253" on="0"/>
        <pt x="417" y="247" on="0"/>
        <pt x="383" y="243" on="0"/>
        <pt x="371" y="243" on="1"/>
        <pt x="311" y="243" on="0"/>
        <pt x="231" y="267" on="0"/>
        <pt x="183" y="309" on="0"/>
        <pt x="163" y="367" on="0"/>
        <pt x="163" y="401" on="1"/>
        <pt x="163" y="417" on="0"/>
        <pt x="167" y="471" on="0"/>
        <pt x="175" y="501" on="1"/>
        <pt x="222" y="693" on="1"/>
        <pt x="318" y="693" on="1"/>
        <pt x="269" y="493" on="1"/>
        <pt x="259" y="454" on="0"/>
        <pt x="259" y="421" on="1"/>
        <pt x="259" y="370" on="0"/>
        <pt x="317" y="326" on="0"/>
        <pt x="383" y="326" on="1"/>
        <pt x="418" y="326" on="0"/>
        <pt x="489" y="338" on="0"/>
        <pt x="510" y="346" on="1"/>
        <pt x="593" y="693" on="1"/>
        <pt x="690" y="693" on="1"/>
        <pt x="524" y="0" on="1"/>
        <pt x="427" y="0" on="1"/>
      </contour>
    </TTGlyph>
    <TTGlyph name="afii10042" xMin="81" yMin="0" xMax="1032" yMax="693">
      <contour>
        <pt x="197" y="81" on="1"/>
        <pt x="444" y="81" on="1"/>
        <pt x="591" y="693" on="1"/>
        <pt x="688" y="693" on="1"/>
        <pt x="541" y="81" on="1"/>
        <pt x="788" y="81" on="1"/>
        <pt x="935" y="693" on="1"/>
        <pt x="1032" y="693" on="1"/>
        <pt x="866" y="0" on="1"/>
        <pt x="81" y="0" on="1"/>
        <pt x="247" y="693" on="1"/>
        <pt x="344" y="693" on="1"/>
      </contour>
    </TTGlyph>
    <TTGlyph name="afii10043" xMin="81" yMin="-185" xMax="1032" yMax="693">
      <contour>
        <pt x="81" y="0" on="1"/>
        <pt x="247" y="693" on="1"/>
        <pt x="344" y="693" on="1"/>
        <pt x="197" y="81" on="1"/>
        <pt x="444" y="81" on="1"/>
        <pt x="591" y="693" on="1"/>
        <pt x="688" y="693" on="1"/>
        <pt x="541" y="81" on="1"/>
        <pt x="788" y="81" on="1"/>
        <pt x="935" y="693" on="1"/>
        <pt x="1032" y="693" on="1"/>
        <pt x="885" y="81" on="1"/>
        <pt x="972" y="81" on="1"/>
        <pt x="908" y="-185" on="1"/>
        <pt x="818" y="-185" on="1"/>
        <pt x="863" y="0" on="1"/>
      </contour>
    </TTGlyph>
    <TTGlyph name="afii10044" xMin="165" yMin="-7" xMax="720" yMax="693">
      <contour>
        <pt x="377" y="-7" on="1"/>
        <pt x="355" y="-7" on="0"/>
        <pt x="305" y="-5" on="0"/>
        <pt x="255" y="-1" on="0"/>
        <pt x="209" y="6" on="0"/>
        <pt x="191" y="11" on="1"/>
        <pt x="335" y="612" on="1"/>
        <pt x="165" y="612" on="1"/>
        <pt x="184" y="693" on="1"/>
        <pt x="452" y="693" on="1"/>
        <pt x="391" y="441" on="1"/>
        <pt x="412" y="443" on="0"/>
        <pt x="454" y="444" on="0"/>
        <pt x="472" y="444" on="1"/>
        <pt x="599" y="444" on="0"/>
        <pt x="720" y="352" on="0"/>
        <pt x="720" y="264" on="1"/>
        <pt x="720" y="195" on="0"/>
        <pt x="669" y="93" on="0"/>
        <pt x="577" y="26" on="0"/>
        <pt x="452" y="-7" on="0"/>
      </contour>
      <contour>
        <pt x="386" y="75" on="1"/>
        <pt x="432" y="75" on="0"/>
        <pt x="518" y="93" on="0"/>
        <pt x="582" y="136" on="0"/>
        <pt x="621" y="205" on="0"/>
        <pt x="621" y="256" on="1"/>
        <pt x="621" y="314" on="0"/>
        <pt x="532" y="363" on="0"/>
        <pt x="459" y="363" on="1"/>
        <pt x="421" y="363" on="0"/>
        <pt x="378" y="360" on="0"/>
        <pt x="371" y="359" on="1"/>
        <pt x="304" y="80" on="1"/>
        <pt x="324" y="75" on="0"/>
      </contour>
    </TTGlyph>
    <TTGlyph name="afii10045" xMin="83" yMin="-7" xMax="908" yMax="693">
      <contour>
        <pt x="266" y="-7" on="1"/>
        <pt x="245" y="-7" on="0"/>
        <pt x="197" y="-5" on="0"/>
        <pt x="147" y="-1" on="0"/>
        <pt x="101" y="6" on="0"/>
        <pt x="83" y="11" on="1"/>
        <pt x="247" y="693" on="1"/>
        <pt x="344" y="693" on="1"/>
        <pt x="283" y="441" on="1"/>
        <pt x="304" y="443" on="0"/>
        <pt x="345" y="444" on="0"/>
        <pt x="361" y="444" on="1"/>
        <pt x="482" y="444" on="0"/>
        <pt x="602" y="352" on="0"/>
        <pt x="602" y="264" on="1"/>
        <pt x="602" y="196" on="0"/>
        <pt x="553" y="94" on="0"/>
        <pt x="464" y="27" on="0"/>
        <pt x="340" y="-7" on="0"/>
      </contour>
      <contour>
        <pt x="275" y="75" on="1"/>
        <pt x="321" y="75" on="0"/>
        <pt x="404" y="94" on="0"/>
        <pt x="467" y="137" on="0"/>
        <pt x="503" y="206" on="0"/>
        <pt x="503" y="256" on="1"/>
        <pt x="503" y="311" on="0"/>
        <pt x="420" y="363" on="0"/>
        <pt x="348" y="363" on="1"/>
        <pt x="312" y="363" on="0"/>
        <pt x="270" y="360" on="0"/>
        <pt x="263" y="359" on="1"/>
        <pt x="196" y="80" on="1"/>
        <pt x="216" y="75" on="0"/>
      </contour>
      <contour>
        <pt x="811" y="693" on="1"/>
        <pt x="908" y="693" on="1"/>
        <pt x="742" y="0" on="1"/>
        <pt x="645" y="0" on="1"/>
      </contour>
    </TTGlyph>
    <TTGlyph name="afii10046" xMin="84" yMin="-7" xMax="613" yMax="693">
      <contour>
        <pt x="270" y="-7" on="1"/>
        <pt x="248" y="-7" on="0"/>
        <pt x="198" y="-5" on="0"/>
        <pt x="148" y="-1" on="0"/>
        <pt x="102" y="6" on="0"/>
        <pt x="84" y="11" on="1"/>
        <pt x="248" y="693" on="1"/>
        <pt x="345" y="693" on="1"/>
        <pt x="284" y="441" on="1"/>
        <pt x="305" y="443" on="0"/>
        <pt x="347" y="444" on="0"/>
        <pt x="365" y="444" on="1"/>
        <pt x="492" y="444" on="0"/>
        <pt x="613" y="352" on="0"/>
        <pt x="613" y="264" on="1"/>
        <pt x="613" y="195" on="0"/>
        <pt x="562" y="93" on="0"/>
        <pt x="470" y="26" on="0"/>
        <pt x="345" y="-7" on="0"/>
      </contour>
      <contour>
        <pt x="279" y="75" on="1"/>
        <pt x="325" y="75" on="0"/>
        <pt x="411" y="93" on="0"/>
        <pt x="475" y="136" on="0"/>
        <pt x="514" y="205" on="0"/>
        <pt x="514" y="256" on="1"/>
        <pt x="514" y="314" on="0"/>
        <pt x="425" y="363" on="0"/>
        <pt x="352" y="363" on="1"/>
        <pt x="314" y="363" on="0"/>
        <pt x="271" y="360" on="0"/>
        <pt x="264" y="359" on="1"/>
        <pt x="197" y="80" on="1"/>
        <pt x="217" y="75" on="0"/>
      </contour>
    </TTGlyph>
    <TTGlyph name="afii10047" xMin="35" yMin="-15" xMax="632" yMax="709">
      <contour>
        <pt x="379" y="709" on="1"/>
        <pt x="439" y="709" on="0"/>
        <pt x="533" y="673" on="0"/>
        <pt x="598" y="607" on="0"/>
        <pt x="632" y="514" on="0"/>
        <pt x="632" y="457" on="1"/>
        <pt x="632" y="363" on="0"/>
        <pt x="581" y="192" on="0"/>
        <pt x="481" y="62" on="0"/>
        <pt x="330" y="-15" on="0"/>
        <pt x="231" y="-15" on="1"/>
        <pt x="187" y="-15" on="0"/>
        <pt x="119" y="-3" on="0"/>
        <pt x="69" y="14" on="0"/>
        <pt x="40" y="30" on="0"/>
        <pt x="35" y="34" on="1"/>
        <pt x="80" y="113" on="1"/>
        <pt x="87" y="108" on="0"/>
        <pt x="116" y="93" on="0"/>
        <pt x="155" y="79" on="0"/>
        <pt x="205" y="70" on="0"/>
        <pt x="235" y="70" on="1"/>
        <pt x="292" y="70" on="0"/>
        <pt x="385" y="109" on="0"/>
        <pt x="455" y="175" on="0"/>
        <pt x="503" y="264" on="0"/>
        <pt x="516" y="314" on="1"/>
        <pt x="218" y="314" on="1"/>
        <pt x="238" y="394" on="1"/>
        <pt x="529" y="394" on="1"/>
        <pt x="530" y="405" on="0"/>
        <pt x="531" y="429" on="0"/>
        <pt x="531" y="440" on="1"/>
        <pt x="531" y="534" on="0"/>
        <pt x="447" y="623" on="0"/>
        <pt x="362" y="623" on="1"/>
        <pt x="299" y="623" on="0"/>
        <pt x="215" y="598" on="0"/>
        <pt x="193" y="587" on="1"/>
        <pt x="186" y="671" on="1"/>
        <pt x="192" y="675" on="0"/>
        <pt x="224" y="688" on="0"/>
        <pt x="274" y="700" on="0"/>
        <pt x="340" y="709" on="0"/>
      </contour>
    </TTGlyph>
    <TTGlyph name="afii10048" xMin="81" yMin="-15" xMax="1034" yMax="709">
      <contour>
        <pt x="788" y="709" on="1"/>
        <pt x="841" y="709" on="0"/>
        <pt x="931" y="676" on="0"/>
        <pt x="997" y="610" on="0"/>
        <pt x="1034" y="511" on="0"/>
        <pt x="1034" y="445" on="1"/>
        <pt x="1034" y="362" on="0"/>
        <pt x="984" y="198" on="0"/>
        <pt x="885" y="67" on="0"/>
        <pt x="739" y="-15" on="0"/>
        <pt x="643" y="-15" on="1"/>
        <pt x="590" y="-15" on="0"/>
        <pt x="500" y="18" on="0"/>
        <pt x="434" y="84" on="0"/>
        <pt x="397" y="183" on="0"/>
        <pt x="397" y="249" on="1"/>
        <pt x="397" y="267" on="0"/>
        <pt x="400" y="303" on="0"/>
        <pt x="402" y="322" on="1"/>
        <pt x="255" y="322" on="1"/>
        <pt x="178" y="0" on="1"/>
        <pt x="81" y="0" on="1"/>
        <pt x="247" y="693" on="1"/>
        <pt x="344" y="693" on="1"/>
        <pt x="274" y="403" on="1"/>
        <pt x="419" y="403" on="1"/>
        <pt x="437" y="465" on="0"/>
        <pt x="501" y="576" on="0"/>
        <pt x="594" y="660" on="0"/>
        <pt x="714" y="709" on="0"/>
      </contour>
      <contour>
        <pt x="653" y="69" on="1"/>
        <pt x="717" y="69" on="0"/>
        <pt x="821" y="134" on="0"/>
        <pt x="894" y="238" on="0"/>
        <pt x="933" y="368" on="0"/>
        <pt x="933" y="433" on="1"/>
        <pt x="933" y="523" on="0"/>
        <pt x="859" y="625" on="0"/>
        <pt x="778" y="625" on="1"/>
        <pt x="713" y="625" on="0"/>
        <pt x="610" y="560" on="0"/>
        <pt x="537" y="456" on="0"/>
        <pt x="498" y="326" on="0"/>
        <pt x="498" y="261" on="1"/>
        <pt x="498" y="171" on="0"/>
        <pt x="572" y="69" on="0"/>
      </contour>
    </TTGlyph>
    <TTGlyph name="afii10049" xMin="30" yMin="0" xMax="689" yMax="700">
      <contour>
        <pt x="416" y="271" on="1"/>
        <pt x="382" y="271" on="0"/>
        <pt x="351" y="274" on="1"/>
        <pt x="328" y="250" on="0"/>
        <pt x="274" y="186" on="0"/>
        <pt x="217" y="112" on="0"/>
        <pt x="161" y="36" on="0"/>
        <pt x="136" y="0" on="1"/>
        <pt x="30" y="0" on="1"/>
        <pt x="56" y="38" on="0"/>
        <pt x="118" y="120" on="0"/>
        <pt x="179" y="199" on="0"/>
        <pt x="238" y="269" on="0"/>
        <pt x="261" y="295" on="1"/>
        <pt x="218" y="312" on="0"/>
        <pt x="164" y="380" on="0"/>
        <pt x="164" y="440" on="1"/>
        <pt x="164" y="504" on="0"/>
        <pt x="218" y="602" on="0"/>
        <pt x="310" y="667" on="0"/>
        <pt x="431" y="700" on="0"/>
        <pt x="499" y="700" on="1"/>
        <pt x="522" y="700" on="0"/>
        <pt x="574" y="698" on="0"/>
        <pt x="625" y="694" on="0"/>
        <pt x="671" y="688" on="0"/>
        <pt x="689" y="683" on="1"/>
        <pt x="526" y="0" on="1"/>
        <pt x="429" y="0" on="1"/>
        <pt x="494" y="271" on="1"/>
      </contour>
      <contour>
        <pt x="487" y="618" on="1"/>
        <pt x="447" y="618" on="0"/>
        <pt x="367" y="603" on="0"/>
        <pt x="304" y="564" on="0"/>
        <pt x="264" y="499" on="0"/>
        <pt x="264" y="449" on="1"/>
        <pt x="264" y="391" on="0"/>
        <pt x="342" y="351" on="0"/>
        <pt x="415" y="351" on="1"/>
        <pt x="513" y="351" on="1"/>
        <pt x="576" y="614" on="1"/>
        <pt x="568" y="616" on="0"/>
        <pt x="522" y="618" on="0"/>
      </contour>
    </TTGlyph>
    <TTGlyph name="afii10050" xMin="80" yMin="0" xMax="670" yMax="825">
      <contour>
        <pt x="324" y="612" on="1"/>
        <pt x="177" y="0" on="1"/>
        <pt x="80" y="0" on="1"/>
        <pt x="246" y="693" on="1"/>
        <pt x="550" y="693" on="1"/>
        <pt x="582" y="825" on="1"/>
        <pt x="670" y="825" on="1"/>
        <pt x="619" y="612" on="1"/>
      </contour>
    </TTGlyph>
    <TTGlyph name="afii10051" xMin="165" yMin="-2" xMax="747" yMax="693">
      <contour>
        <pt x="533" y="437" on="1"/>
        <pt x="591" y="437" on="0"/>
        <pt x="673" y="407" on="0"/>
        <pt x="724" y="356" on="0"/>
        <pt x="747" y="288" on="0"/>
        <pt x="747" y="251" on="1"/>
        <pt x="747" y="199" on="0"/>
        <pt x="718" y="107" on="0"/>
        <pt x="657" y="38" on="0"/>
        <pt x="565" y="-2" on="0"/>
        <pt x="502" y="-2" on="1"/>
        <pt x="484" y="-2" on="0"/>
        <pt x="456" y="2" on="0"/>
        <pt x="445" y="4" on="1"/>
        <pt x="465" y="79" on="1"/>
        <pt x="470" y="77" on="0"/>
        <pt x="489" y="75" on="0"/>
        <pt x="500" y="75" on="1"/>
        <pt x="541" y="75" on="0"/>
        <pt x="597" y="103" on="0"/>
        <pt x="632" y="149" on="0"/>
        <pt x="647" y="207" on="0"/>
        <pt x="647" y="237" on="1"/>
        <pt x="647" y="297" on="0"/>
        <pt x="580" y="354" on="0"/>
        <pt x="505" y="354" on="1"/>
        <pt x="493" y="354" on="0"/>
        <pt x="462" y="351" on="0"/>
        <pt x="429" y="347" on="0"/>
        <pt x="400" y="341" on="0"/>
        <pt x="391" y="338" on="1"/>
        <pt x="310" y="0" on="1"/>
        <pt x="213" y="0" on="1"/>
        <pt x="360" y="612" on="1"/>
        <pt x="165" y="612" on="1"/>
        <pt x="184" y="693" on="1"/>
        <pt x="699" y="693" on="1"/>
        <pt x="680" y="612" on="1"/>
        <pt x="457" y="612" on="1"/>
        <pt x="410" y="419" on="1"/>
        <pt x="419" y="422" on="0"/>
        <pt x="449" y="428" on="0"/>
        <pt x="482" y="434" on="0"/>
        <pt x="518" y="437" on="0"/>
      </contour>
    </TTGlyph>
    <TTGlyph name="afii10052" xMin="81" yMin="0" xMax="639" yMax="936">
      <component glyphName="afii10020" x="0" y="0" flags="0x204"/>
      <component glyphName="acute" x="134" y="156" flags="0x4"/>
    </TTGlyph>
    <TTGlyph name="afii10053" xMin="124" yMin="-15" xMax="716" yMax="709">
      <contour>
        <pt x="387" y="-15" on="1"/>
        <pt x="322" y="-15" on="0"/>
        <pt x="223" y="23" on="0"/>
        <pt x="157" y="93" on="0"/>
        <pt x="124" y="192" on="0"/>
        <pt x="124" y="254" on="1"/>
        <pt x="124" y="344" on="0"/>
        <pt x="181" y="508" on="0"/>
        <pt x="286" y="634" on="0"/>
        <pt x="434" y="709" on="0"/>
        <pt x="525" y="709" on="1"/>
        <pt x="603" y="709" on="0"/>
        <pt x="696" y="677" on="0"/>
        <pt x="716" y="663" on="1"/>
        <pt x="676" y="583" on="1"/>
        <pt x="653" y="598" on="0"/>
        <pt x="574" y="625" on="0"/>
        <pt x="520" y="625" on="1"/>
        <pt x="468" y="625" on="0"/>
        <pt x="380" y="588" on="0"/>
        <pt x="310" y="524" on="0"/>
        <pt x="259" y="440" on="0"/>
        <pt x="244" y="394" on="1"/>
        <pt x="540" y="394" on="1"/>
        <pt x="520" y="314" on="1"/>
        <pt x="227" y="314" on="1"/>
        <pt x="224" y="288" on="0"/>
        <pt x="224" y="265" on="1"/>
        <pt x="224" y="70" on="0"/>
        <pt x="394" y="70" on="1"/>
        <pt x="430" y="70" on="0"/>
        <pt x="487" y="80" on="0"/>
        <pt x="531" y="93" on="0"/>
        <pt x="565" y="109" on="0"/>
        <pt x="578" y="115" on="1"/>
        <pt x="590" y="31" on="1"/>
        <pt x="578" y="24" on="0"/>
        <pt x="539" y="8" on="0"/>
        <pt x="487" y="-6" on="0"/>
        <pt x="423" y="-15" on="0"/>
      </contour>
    </TTGlyph>
    <TTGlyph name="afii10054" xMin="37" yMin="-15" xMax="599" yMax="709">
      <component glyphName="S" x="0" y="0" flags="0x204"/>
    </TTGlyph>
    <TTGlyph name="afii10055" xMin="81" yMin="0" xMax="344" yMax="693">
      <component glyphName="I" x="0" y="0" flags="0x204"/>
    </TTGlyph>
    <TTGlyph name="afii10056" xMin="81" yMin="0" xMax="484" yMax="890">
      <component glyphName="I" x="0" y="0" flags="0x204"/>
      <component glyphName="dieresis" x="-19" y="156" flags="0x4"/>
    </TTGlyph>
    <TTGlyph name="afii10057" xMin="24" yMin="-15" xMax="567" yMax="693">
      <component glyphName="J" x="0" y="0" flags="0x204"/>
    </TTGlyph>
    <TTGlyph name="afii10058" xMin="22" yMin="-9" xMax="1001" yMax="693">
      <contour>
        <pt x="626" y="610" on="1"/>
        <pt x="436" y="610" on="1"/>
        <pt x="413" y="498" on="0"/>
        <pt x="350" y="287" on="0"/>
        <pt x="308" y="199" on="1"/>
        <pt x="294" y="170" on="0"/>
        <pt x="251" y="101" on="0"/>
        <pt x="185" y="39" on="0"/>
        <pt x="94" y="-5" on="0"/>
        <pt x="32" y="-9" on="1"/>
        <pt x="22" y="75" on="1"/>
        <pt x="86" y="83" on="0"/>
        <pt x="183" y="154" on="0"/>
        <pt x="217" y="221" on="1"/>
        <pt x="253" y="292" on="0"/>
        <pt x="323" y="517" on="0"/>
        <pt x="356" y="693" on="1"/>
        <pt x="741" y="693" on="1"/>
        <pt x="682" y="441" on="1"/>
        <pt x="703" y="443" on="0"/>
        <pt x="744" y="444" on="0"/>
        <pt x="760" y="444" on="1"/>
        <pt x="881" y="444" on="0"/>
        <pt x="1001" y="352" on="0"/>
        <pt x="1001" y="264" on="1"/>
        <pt x="1001" y="196" on="0"/>
        <pt x="952" y="94" on="0"/>
        <pt x="863" y="27" on="0"/>
        <pt x="739" y="-7" on="0"/>
        <pt x="665" y="-7" on="1"/>
        <pt x="644" y="-7" on="0"/>
        <pt x="596" y="-5" on="0"/>
        <pt x="546" y="-1" on="0"/>
        <pt x="500" y="6" on="0"/>
        <pt x="482" y="11" on="1"/>
      </contour>
      <contour>
        <pt x="674" y="75" on="1"/>
        <pt x="720" y="75" on="0"/>
        <pt x="803" y="94" on="0"/>
        <pt x="866" y="137" on="0"/>
        <pt x="902" y="206" on="0"/>
        <pt x="902" y="256" on="1"/>
        <pt x="902" y="311" on="0"/>
        <pt x="819" y="363" on="0"/>
        <pt x="747" y="363" on="1"/>
        <pt x="711" y="363" on="0"/>
        <pt x="669" y="360" on="0"/>
        <pt x="662" y="359" on="1"/>
        <pt x="595" y="80" on="1"/>
        <pt x="615" y="75" on="0"/>
      </contour>
    </TTGlyph>
    <TTGlyph name="afii10059" xMin="81" yMin="-7" xMax="1021" yMax="693">
      <contour>
        <pt x="701" y="437" on="1"/>
        <pt x="722" y="439" on="0"/>
        <pt x="763" y="441" on="0"/>
        <pt x="779" y="441" on="1"/>
        <pt x="1021" y="441" on="0"/>
        <pt x="1021" y="264" on="1"/>
        <pt x="1021" y="196" on="0"/>
        <pt x="972" y="94" on="0"/>
        <pt x="883" y="27" on="0"/>
        <pt x="759" y="-7" on="0"/>
        <pt x="685" y="-7" on="1"/>
        <pt x="664" y="-7" on="0"/>
        <pt x="616" y="-5" on="0"/>
        <pt x="566" y="-1" on="0"/>
        <pt x="520" y="6" on="0"/>
        <pt x="502" y="11" on="1"/>
        <pt x="581" y="343" on="1"/>
        <pt x="260" y="343" on="1"/>
        <pt x="178" y="0" on="1"/>
        <pt x="81" y="0" on="1"/>
        <pt x="247" y="693" on="1"/>
        <pt x="344" y="693" on="1"/>
        <pt x="279" y="424" on="1"/>
        <pt x="600" y="424" on="1"/>
        <pt x="665" y="693" on="1"/>
        <pt x="762" y="693" on="1"/>
      </contour>
      <contour>
        <pt x="694" y="75" on="1"/>
        <pt x="740" y="75" on="0"/>
        <pt x="823" y="94" on="0"/>
        <pt x="886" y="137" on="0"/>
        <pt x="922" y="206" on="0"/>
        <pt x="922" y="256" on="1"/>
        <pt x="922" y="312" on="0"/>
        <pt x="836" y="360" on="0"/>
        <pt x="765" y="360" on="1"/>
        <pt x="729" y="360" on="0"/>
        <pt x="688" y="356" on="0"/>
        <pt x="681" y="355" on="1"/>
        <pt x="615" y="80" on="1"/>
        <pt x="635" y="75" on="0"/>
      </contour>
    </TTGlyph>
    <TTGlyph name="afii10060" xMin="165" yMin="0" xMax="717" yMax="693">
      <contour>
        <pt x="310" y="0" on="1"/>
        <pt x="213" y="0" on="1"/>
        <pt x="360" y="612" on="1"/>
        <pt x="165" y="612" on="1"/>
        <pt x="184" y="693" on="1"/>
        <pt x="699" y="693" on="1"/>
        <pt x="680" y="612" on="1"/>
        <pt x="457" y="612" on="1"/>
        <pt x="410" y="419" on="1"/>
        <pt x="419" y="422" on="0"/>
        <pt x="449" y="428" on="0"/>
        <pt x="482" y="434" on="0"/>
        <pt x="518" y="437" on="0"/>
        <pt x="533" y="437" on="1"/>
        <pt x="621" y="437" on="0"/>
        <pt x="717" y="365" on="0"/>
        <pt x="717" y="292" on="1"/>
        <pt x="717" y="260" on="0"/>
        <pt x="706" y="208" on="1"/>
        <pt x="656" y="0" on="1"/>
        <pt x="560" y="0" on="1"/>
        <pt x="610" y="207" on="1"/>
        <pt x="620" y="241" on="0"/>
        <pt x="620" y="271" on="1"/>
        <pt x="620" y="289" on="0"/>
        <pt x="610" y="319" on="0"/>
        <pt x="584" y="341" on="0"/>
        <pt x="539" y="354" on="0"/>
        <pt x="505" y="354" on="1"/>
        <pt x="493" y="354" on="0"/>
        <pt x="462" y="351" on="0"/>
        <pt x="429" y="347" on="0"/>
        <pt x="400" y="341" on="0"/>
        <pt x="391" y="338" on="1"/>
      </contour>
    </TTGlyph>
    <TTGlyph name="afii10061" xMin="81" yMin="0" xMax="750" yMax="936">
      <component glyphName="K" x="0" y="0" flags="0x204"/>
      <component glyphName="acute" x="159" y="156" flags="0x4"/>
    </TTGlyph>
    <TTGlyph name="afii10062" xMin="34" yMin="-9" xMax="706" yMax="900">
      <component glyphName="afii10037" x="0" y="0" flags="0x204"/>
      <component glyphName="kratka" x="118" y="156" flags="0x4"/>
    </TTGlyph>
    <TTGlyph name="afii10065" xMin="98" yMin="-13" xMax="585" yMax="531">
      <component glyphName="a" x="0" y="0" flags="0x204"/>
    </TTGlyph>
    <TTGlyph name="afii10066" xMin="107" yMin="-13" xMax="640" yMax="776">
      <contour>
        <pt x="399" y="512" on="1"/>
        <pt x="442" y="512" on="0"/>
        <pt x="505" y="484" on="0"/>
        <pt x="545" y="436" on="0"/>
        <pt x="564" y="370" on="0"/>
        <pt x="564" y="333" on="1"/>
        <pt x="564" y="264" on="0"/>
        <pt x="529" y="138" on="0"/>
        <pt x="457" y="43" on="0"/>
        <pt x="348" y="-13" on="0"/>
        <pt x="275" y="-13" on="1"/>
        <pt x="191" y="-13" on="0"/>
        <pt x="107" y="95" on="0"/>
        <pt x="107" y="183" on="1"/>
        <pt x="107" y="249" on="0"/>
        <pt x="141" y="392" on="0"/>
        <pt x="164" y="461" on="1"/>
        <pt x="185" y="525" on="0"/>
        <pt x="245" y="628" on="0"/>
        <pt x="331" y="703" on="0"/>
        <pt x="446" y="749" on="0"/>
        <pt x="522" y="757" on="1"/>
        <pt x="550" y="760" on="0"/>
        <pt x="587" y="765" on="0"/>
        <pt x="613" y="770" on="0"/>
        <pt x="631" y="774" on="0"/>
        <pt x="640" y="776" on="1"/>
        <pt x="636" y="692" on="1"/>
        <pt x="623" y="687" on="0"/>
        <pt x="573" y="679" on="0"/>
        <pt x="522" y="674" on="1"/>
        <pt x="464" y="668" on="0"/>
        <pt x="380" y="633" on="0"/>
        <pt x="319" y="580" on="0"/>
        <pt x="278" y="512" on="0"/>
        <pt x="263" y="472" on="1"/>
        <pt x="291" y="490" on="0"/>
        <pt x="367" y="512" on="0"/>
      </contour>
      <contour>
        <pt x="235" y="381" on="1"/>
        <pt x="216" y="321" on="0"/>
        <pt x="200" y="227" on="0"/>
        <pt x="200" y="194" on="1"/>
        <pt x="200" y="128" on="0"/>
        <pt x="243" y="67" on="0"/>
        <pt x="291" y="67" on="1"/>
        <pt x="334" y="67" on="0"/>
        <pt x="402" y="113" on="0"/>
        <pt x="447" y="187" on="0"/>
        <pt x="471" y="277" on="0"/>
        <pt x="471" y="322" on="1"/>
        <pt x="471" y="342" on="0"/>
        <pt x="464" y="382" on="0"/>
        <pt x="443" y="413" on="0"/>
        <pt x="406" y="432" on="0"/>
        <pt x="376" y="432" on="1"/>
        <pt x="334" y="432" on="0"/>
        <pt x="261" y="401" on="0"/>
      </contour>
    </TTGlyph>
    <TTGlyph name="afii10066.locl" xMin="98" yMin="-13" xMax="617" yMax="776">
      <contour>
        <pt x="562" y="303" on="1"/>
        <pt x="562" y="247" on="0"/>
        <pt x="533" y="135" on="0"/>
        <pt x="467" y="44" on="0"/>
        <pt x="360" y="-13" on="0"/>
        <pt x="281" y="-13" on="1"/>
        <pt x="236" y="-13" on="0"/>
        <pt x="167" y="16" on="0"/>
        <pt x="121" y="69" on="0"/>
        <pt x="98" y="141" on="0"/>
        <pt x="98" y="183" on="1"/>
        <pt x="98" y="238" on="0"/>
        <pt x="128" y="334" on="0"/>
        <pt x="182" y="413" on="0"/>
        <pt x="256" y="474" on="0"/>
        <pt x="301" y="494" on="1"/>
        <pt x="278" y="512" on="0"/>
        <pt x="246" y="565" on="0"/>
        <pt x="246" y="607" on="1"/>
        <pt x="246" y="651" on="0"/>
        <pt x="281" y="713" on="0"/>
        <pt x="339" y="753" on="0"/>
        <pt x="413" y="771" on="0"/>
        <pt x="452" y="771" on="1"/>
        <pt x="483" y="771" on="0"/>
        <pt x="532" y="771" on="0"/>
        <pt x="571" y="772" on="0"/>
        <pt x="603" y="774" on="0"/>
        <pt x="617" y="776" on="1"/>
        <pt x="603" y="697" on="1"/>
        <pt x="572" y="694" on="0"/>
        <pt x="502" y="693" on="0"/>
        <pt x="457" y="693" on="1"/>
        <pt x="403" y="693" on="0"/>
        <pt x="336" y="661" on="0"/>
        <pt x="336" y="616" on="1"/>
        <pt x="336" y="593" on="0"/>
        <pt x="366" y="559" on="0"/>
        <pt x="401" y="538" on="1"/>
        <pt x="433" y="518" on="0"/>
        <pt x="492" y="477" on="0"/>
        <pt x="536" y="424" on="0"/>
        <pt x="562" y="353" on="0"/>
      </contour>
      <contour>
        <pt x="469" y="297" on="1"/>
        <pt x="469" y="331" on="0"/>
        <pt x="452" y="382" on="0"/>
        <pt x="426" y="418" on="0"/>
        <pt x="394" y="442" on="0"/>
        <pt x="378" y="451" on="1"/>
        <pt x="336" y="436" on="0"/>
        <pt x="268" y="387" on="0"/>
        <pt x="218" y="320" on="0"/>
        <pt x="191" y="237" on="0"/>
        <pt x="191" y="188" on="1"/>
        <pt x="191" y="164" on="0"/>
        <pt x="203" y="121" on="0"/>
        <pt x="229" y="87" on="0"/>
        <pt x="267" y="67" on="0"/>
        <pt x="294" y="67" on="1"/>
        <pt x="341" y="67" on="0"/>
        <pt x="408" y="112" on="0"/>
        <pt x="450" y="180" on="0"/>
        <pt x="469" y="261" on="0"/>
      </contour>
    </TTGlyph>
    <TTGlyph name="afii10067" xMin="75" yMin="-11" xMax="553" yMax="533">
      <contour>
        <pt x="553" y="407" on="1"/>
        <pt x="552" y="351" on="0"/>
        <pt x="500" y="289" on="0"/>
        <pt x="457" y="272" on="1"/>
        <pt x="491" y="261" on="0"/>
        <pt x="532" y="208" on="0"/>
        <pt x="532" y="173" on="1"/>
        <pt x="532" y="117" on="0"/>
        <pt x="487" y="46" on="0"/>
        <pt x="414" y="5" on="0"/>
        <pt x="319" y="-11" on="0"/>
        <pt x="270" y="-11" on="1"/>
        <pt x="218" y="-11" on="0"/>
        <pt x="112" y="1" on="0"/>
        <pt x="75" y="15" on="1"/>
        <pt x="151" y="337" on="1"/>
        <pt x="165" y="395" on="0"/>
        <pt x="213" y="471" on="0"/>
        <pt x="278" y="515" on="0"/>
        <pt x="355" y="533" on="0"/>
        <pt x="399" y="533" on="1"/>
        <pt x="438" y="533" on="0"/>
        <pt x="496" y="513" on="0"/>
        <pt x="534" y="479" on="0"/>
        <pt x="553" y="433" on="0"/>
      </contour>
      <contour>
        <pt x="219" y="238" on="1"/>
        <pt x="180" y="69" on="1"/>
        <pt x="194" y="67" on="0"/>
        <pt x="243" y="63" on="0"/>
        <pt x="278" y="63" on="1"/>
        <pt x="310" y="63" on="0"/>
        <pt x="369" y="73" on="0"/>
        <pt x="414" y="96" on="0"/>
        <pt x="441" y="136" on="0"/>
        <pt x="441" y="166" on="1"/>
        <pt x="441" y="204" on="0"/>
        <pt x="389" y="238" on="0"/>
        <pt x="334" y="238" on="1"/>
      </contour>
      <contour>
        <pt x="236" y="306" on="1"/>
        <pt x="313" y="306" on="1"/>
        <pt x="345" y="306" on="0"/>
        <pt x="400" y="315" on="0"/>
        <pt x="440" y="336" on="0"/>
        <pt x="463" y="372" on="0"/>
        <pt x="463" y="400" on="1"/>
        <pt x="463" y="426" on="0"/>
        <pt x="426" y="459" on="0"/>
        <pt x="387" y="459" on="1"/>
        <pt x="363" y="459" on="0"/>
        <pt x="317" y="448" on="0"/>
        <pt x="277" y="417" on="0"/>
        <pt x="246" y="361" on="0"/>
        <pt x="238" y="316" on="1"/>
      </contour>
    </TTGlyph>
    <TTGlyph name="afii10068" xMin="73" yMin="-13" xMax="473" yMax="533">
      <contour>
        <pt x="255" y="298" on="1"/>
        <pt x="282" y="307" on="0"/>
        <pt x="329" y="325" on="0"/>
        <pt x="364" y="347" on="0"/>
        <pt x="383" y="378" on="0"/>
        <pt x="383" y="399" on="1"/>
        <pt x="383" y="415" on="0"/>
        <pt x="370" y="437" on="0"/>
        <pt x="348" y="451" on="0"/>
        <pt x="321" y="456" on="0"/>
        <pt x="306" y="456" on="1"/>
        <pt x="260" y="456" on="0"/>
        <pt x="190" y="431" on="0"/>
        <pt x="176" y="424" on="1"/>
        <pt x="171" y="502" on="1"/>
        <pt x="189" y="512" on="0"/>
        <pt x="271" y="533" on="0"/>
        <pt x="319" y="533" on="1"/>
        <pt x="389" y="533" on="0"/>
        <pt x="473" y="469" on="0"/>
        <pt x="473" y="409" on="1"/>
        <pt x="473" y="364" on="0"/>
        <pt x="438" y="303" on="0"/>
        <pt x="383" y="262" on="0"/>
        <pt x="313" y="235" on="0"/>
        <pt x="278" y="223" on="1"/>
        <pt x="258" y="216" on="0"/>
        <pt x="218" y="200" on="0"/>
        <pt x="185" y="178" on="0"/>
        <pt x="164" y="146" on="0"/>
        <pt x="164" y="123" on="1"/>
        <pt x="164" y="91" on="0"/>
        <pt x="213" y="65" on="0"/>
        <pt x="259" y="65" on="1"/>
        <pt x="285" y="65" on="0"/>
        <pt x="332" y="73" on="0"/>
        <pt x="370" y="85" on="0"/>
        <pt x="397" y="96" on="0"/>
        <pt x="403" y="99" on="1"/>
        <pt x="408" y="18" on="1"/>
        <pt x="401" y="14" on="0"/>
        <pt x="370" y="4" on="0"/>
        <pt x="328" y="-6" on="0"/>
        <pt x="278" y="-13" on="0"/>
        <pt x="251" y="-13" on="1"/>
        <pt x="164" y="-13" on="0"/>
        <pt x="73" y="50" on="0"/>
        <pt x="73" y="113" on="1"/>
        <pt x="73" y="156" on="0"/>
        <pt x="105" y="216" on="0"/>
        <pt x="156" y="259" on="0"/>
        <pt x="221" y="287" on="0"/>
      </contour>
    </TTGlyph>
    <TTGlyph name="afii10068.locl.ita" xMin="76" yMin="0" xMax="433" yMax="706">
      <contour>
        <pt x="152" y="706" on="1"/>
        <pt x="433" y="706" on="1"/>
        <pt x="417" y="639" on="1"/>
        <pt x="136" y="639" on="1"/>
      </contour>
      <contour>
        <pt x="169" y="0" on="1"/>
        <pt x="76" y="0" on="1"/>
        <pt x="201" y="520" on="1"/>
        <pt x="294" y="520" on="1"/>
      </contour>
    </TTGlyph>
    <TTGlyph name="afii10069" xMin="100" yMin="-13" xMax="566" yMax="776">
      <contour>
        <pt x="294" y="698" on="1"/>
        <pt x="259" y="698" on="0"/>
        <pt x="219" y="687" on="0"/>
        <pt x="211" y="683" on="1"/>
        <pt x="204" y="761" on="1"/>
        <pt x="211" y="764" on="0"/>
        <pt x="267" y="776" on="0"/>
        <pt x="309" y="776" on="1"/>
        <pt x="432" y="776" on="0"/>
        <pt x="566" y="620" on="0"/>
        <pt x="566" y="460" on="1"/>
        <pt x="566" y="426" on="0"/>
        <pt x="559" y="329" on="0"/>
        <pt x="538" y="223" on="0"/>
        <pt x="499" y="120" on="0"/>
        <pt x="433" y="38" on="0"/>
        <pt x="338" y="-13" on="0"/>
        <pt x="271" y="-13" on="1"/>
        <pt x="190" y="-13" on="0"/>
        <pt x="100" y="83" on="0"/>
        <pt x="100" y="168" on="1"/>
        <pt x="100" y="227" on="0"/>
        <pt x="129" y="350" on="0"/>
        <pt x="195" y="450" on="0"/>
        <pt x="300" y="514" on="0"/>
        <pt x="376" y="514" on="1"/>
        <pt x="401" y="514" on="0"/>
        <pt x="454" y="501" on="0"/>
        <pt x="474" y="492" on="1"/>
        <pt x="472" y="523" on="0"/>
        <pt x="460" y="595" on="0"/>
        <pt x="423" y="657" on="0"/>
        <pt x="354" y="698" on="0"/>
      </contour>
      <contour>
        <pt x="284" y="67" on="1"/>
        <pt x="335" y="67" on="0"/>
        <pt x="406" y="137" on="0"/>
        <pt x="451" y="241" on="0"/>
        <pt x="472" y="361" on="0"/>
        <pt x="472" y="411" on="1"/>
        <pt x="458" y="421" on="0"/>
        <pt x="413" y="434" on="0"/>
        <pt x="374" y="434" on="1"/>
        <pt x="326" y="434" on="0"/>
        <pt x="257" y="387" on="0"/>
        <pt x="214" y="313" on="0"/>
        <pt x="193" y="222" on="0"/>
        <pt x="193" y="177" on="1"/>
        <pt x="193" y="126" on="0"/>
        <pt x="233" y="67" on="0"/>
      </contour>
    </TTGlyph>
    <TTGlyph name="afii10069.locl.ita" xMin="26" yMin="-188" xMax="590" yMax="531">
      <component glyphName="g" x="0" y="0" flags="0x204"/>
    </TTGlyph>
    <TTGlyph name="afii10070" xMin="100" yMin="-13" xMax="558" yMax="532">
      <component glyphName="e" x="0" y="0" flags="0x204"/>
    </TTGlyph>
    <TTGlyph name="afii10071" xMin="100" yMin="-13" xMax="585" yMax="734">
      <component glyphName="e" x="0" y="0" flags="0x204"/>
      <component glyphName="dieresis" x="82" y="0" flags="0x4"/>
    </TTGlyph>
    <TTGlyph name="afii10072" xMin="26" yMin="-11" xMax="940" yMax="528">
      <contour>
        <pt x="542" y="303" on="1"/>
        <pt x="638" y="303" on="1"/>
        <pt x="649" y="346" on="0"/>
        <pt x="688" y="427" on="0"/>
        <pt x="747" y="490" on="0"/>
        <pt x="827" y="528" on="0"/>
        <pt x="879" y="528" on="1"/>
        <pt x="899" y="528" on="0"/>
        <pt x="927" y="522" on="0"/>
        <pt x="940" y="515" on="1"/>
        <pt x="915" y="439" on="1"/>
        <pt x="899" y="449" on="0"/>
        <pt x="871" y="449" on="1"/>
        <pt x="822" y="449" on="0"/>
        <pt x="758" y="393" on="0"/>
        <pt x="720" y="309" on="0"/>
        <pt x="705" y="213" on="0"/>
        <pt x="705" y="173" on="1"/>
        <pt x="705" y="153" on="0"/>
        <pt x="712" y="115" on="0"/>
        <pt x="730" y="85" on="0"/>
        <pt x="759" y="67" on="0"/>
        <pt x="782" y="67" on="1"/>
        <pt x="803" y="67" on="0"/>
        <pt x="833" y="74" on="0"/>
        <pt x="841" y="78" on="1"/>
        <pt x="845" y="5" on="1"/>
        <pt x="838" y="2" on="0"/>
        <pt x="793" y="-11" on="0"/>
        <pt x="765" y="-11" on="1"/>
        <pt x="727" y="-11" on="0"/>
        <pt x="673" y="17" on="0"/>
        <pt x="638" y="65" on="0"/>
        <pt x="621" y="128" on="0"/>
        <pt x="621" y="163" on="1"/>
        <pt x="621" y="179" on="0"/>
        <pt x="623" y="213" on="0"/>
        <pt x="625" y="230" on="1"/>
        <pt x="524" y="230" on="1"/>
        <pt x="469" y="0" on="1"/>
        <pt x="380" y="0" on="1"/>
        <pt x="435" y="230" on="1"/>
        <pt x="339" y="230" on="1"/>
        <pt x="328" y="185" on="0"/>
        <pt x="289" y="98" on="0"/>
        <pt x="231" y="30" on="0"/>
        <pt x="150" y="-11" on="0"/>
        <pt x="96" y="-11" on="1"/>
        <pt x="76" y="-11" on="0"/>
        <pt x="42" y="-4" on="0"/>
        <pt x="26" y="4" on="1"/>
        <pt x="51" y="80" on="1"/>
        <pt x="65" y="72" on="0"/>
        <pt x="91" y="68" on="0"/>
        <pt x="104" y="68" on="1"/>
        <pt x="152" y="68" on="0"/>
        <pt x="216" y="126" on="0"/>
        <pt x="254" y="210" on="0"/>
        <pt x="270" y="307" on="0"/>
        <pt x="270" y="346" on="1"/>
        <pt x="270" y="365" on="0"/>
        <pt x="264" y="403" on="0"/>
        <pt x="249" y="432" on="0"/>
        <pt x="223" y="450" on="0"/>
        <pt x="204" y="450" on="1"/>
        <pt x="186" y="450" on="0"/>
        <pt x="161" y="445" on="0"/>
        <pt x="155" y="443" on="1"/>
        <pt x="150" y="516" on="1"/>
        <pt x="155" y="518" on="0"/>
        <pt x="197" y="528" on="0"/>
        <pt x="221" y="528" on="1"/>
        <pt x="256" y="528" on="0"/>
        <pt x="307" y="500" on="0"/>
        <pt x="339" y="453" on="0"/>
        <pt x="354" y="390" on="0"/>
        <pt x="354" y="355" on="1"/>
        <pt x="354" y="330" on="0"/>
        <pt x="351" y="303" on="1"/>
        <pt x="453" y="303" on="1"/>
        <pt x="505" y="520" on="1"/>
        <pt x="594" y="520" on="1"/>
      </contour>
    </TTGlyph>
    <TTGlyph name="afii10073" xMin="42" yMin="-12" xMax="473" yMax="533">
      <contour>
        <pt x="307" y="533" on="1"/>
        <pt x="382" y="533" on="0"/>
        <pt x="473" y="470" on="0"/>
        <pt x="473" y="401" on="1"/>
        <pt x="473" y="361" on="0"/>
        <pt x="421" y="291" on="0"/>
        <pt x="367" y="273" on="1"/>
        <pt x="438" y="244" on="0"/>
        <pt x="438" y="172" on="1"/>
        <pt x="438" y="123" on="0"/>
        <pt x="396" y="53" on="0"/>
        <pt x="327" y="9" on="0"/>
        <pt x="238" y="-12" on="0"/>
        <pt x="190" y="-12" on="1"/>
        <pt x="139" y="-12" on="0"/>
        <pt x="63" y="3" on="0"/>
        <pt x="42" y="14" on="1"/>
        <pt x="70" y="92" on="1"/>
        <pt x="86" y="84" on="0"/>
        <pt x="144" y="68" on="0"/>
        <pt x="201" y="68" on="1"/>
        <pt x="223" y="68" on="0"/>
        <pt x="274" y="77" on="0"/>
        <pt x="318" y="100" on="0"/>
        <pt x="346" y="139" on="0"/>
        <pt x="346" y="169" on="1"/>
        <pt x="346" y="190" on="0"/>
        <pt x="325" y="216" on="0"/>
        <pt x="294" y="229" on="0"/>
        <pt x="256" y="234" on="0"/>
        <pt x="239" y="234" on="1"/>
        <pt x="180" y="234" on="1"/>
        <pt x="198" y="308" on="1"/>
        <pt x="258" y="308" on="1"/>
        <pt x="277" y="308" on="0"/>
        <pt x="321" y="316" on="0"/>
        <pt x="357" y="336" on="0"/>
        <pt x="381" y="370" on="0"/>
        <pt x="381" y="397" on="1"/>
        <pt x="381" y="432" on="0"/>
        <pt x="333" y="456" on="0"/>
        <pt x="291" y="456" on="1"/>
        <pt x="271" y="456" on="0"/>
        <pt x="230" y="450" on="0"/>
        <pt x="194" y="441" on="0"/>
        <pt x="166" y="431" on="0"/>
        <pt x="160" y="427" on="1"/>
        <pt x="154" y="507" on="1"/>
        <pt x="168" y="513" on="0"/>
        <pt x="247" y="533" on="0"/>
      </contour>
    </TTGlyph>
    <TTGlyph name="afii10074" xMin="110" yMin="-13" xMax="594" yMax="520">
      <component glyphName="u" x="0" y="0" flags="0x204"/>
    </TTGlyph>
    <TTGlyph name="afii10075" xMin="110" yMin="-13" xMax="594" yMax="744">
      <component glyphName="u" x="0" y="0" flags="0x204"/>
      <component glyphName="kratka" x="76" y="0" flags="0x4"/>
    </TTGlyph>
    <TTGlyph name="afii10076" xMin="76" yMin="0" xMax="608" yMax="520">
      <contour>
        <pt x="169" y="0" on="1"/>
        <pt x="76" y="0" on="1"/>
        <pt x="201" y="520" on="1"/>
        <pt x="294" y="520" on="1"/>
        <pt x="243" y="307" on="1"/>
        <pt x="280" y="332" on="0"/>
        <pt x="355" y="391" on="0"/>
        <pt x="422" y="449" on="0"/>
        <pt x="478" y="501" on="0"/>
        <pt x="496" y="520" on="1"/>
        <pt x="608" y="520" on="1"/>
        <pt x="585" y="495" on="0"/>
        <pt x="517" y="431" on="0"/>
        <pt x="440" y="364" on="0"/>
        <pt x="363" y="302" on="0"/>
        <pt x="332" y="280" on="1"/>
        <pt x="360" y="256" on="0"/>
        <pt x="419" y="188" on="0"/>
        <pt x="473" y="112" on="0"/>
        <pt x="518" y="34" on="0"/>
        <pt x="533" y="0" on="1"/>
        <pt x="431" y="0" on="1"/>
        <pt x="393" y="78" on="0"/>
        <pt x="291" y="214" on="0"/>
        <pt x="231" y="257" on="1"/>
      </contour>
    </TTGlyph>
    <TTGlyph name="afii10077" xMin="29" yMin="-9" xMax="607" yMax="520">
      <contour>
        <pt x="29" y="68" on="1"/>
        <pt x="56" y="70" on="0"/>
        <pt x="97" y="86" on="0"/>
        <pt x="127" y="110" on="0"/>
        <pt x="149" y="140" on="0"/>
        <pt x="157" y="155" on="1"/>
        <pt x="178" y="195" on="0"/>
        <pt x="210" y="286" on="0"/>
        <pt x="235" y="381" on="0"/>
        <pt x="255" y="476" on="0"/>
        <pt x="264" y="520" on="1"/>
        <pt x="607" y="520" on="1"/>
        <pt x="482" y="0" on="1"/>
        <pt x="389" y="0" on="1"/>
        <pt x="495" y="442" on="1"/>
        <pt x="338" y="442" on="1"/>
        <pt x="330" y="409" on="0"/>
        <pt x="311" y="334" on="0"/>
        <pt x="289" y="259" on="0"/>
        <pt x="265" y="186" on="0"/>
        <pt x="251" y="154" on="1"/>
        <pt x="234" y="115" on="0"/>
        <pt x="194" y="57" on="0"/>
        <pt x="141" y="16" on="0"/>
        <pt x="74" y="-6" on="0"/>
        <pt x="30" y="-9" on="1"/>
      </contour>
    </TTGlyph>
    <TTGlyph name="afii10078" xMin="61" yMin="0" xMax="718" yMax="520">
      <contour>
        <pt x="269" y="395" on="1"/>
        <pt x="233" y="286" on="0"/>
        <pt x="174" y="88" on="0"/>
        <pt x="150" y="0" on="1"/>
        <pt x="61" y="0" on="1"/>
        <pt x="78" y="61" on="0"/>
        <pt x="118" y="194" on="0"/>
        <pt x="160" y="329" on="0"/>
        <pt x="204" y="460" on="0"/>
        <pt x="225" y="520" on="1"/>
        <pt x="319" y="520" on="1"/>
        <pt x="325" y="494" on="0"/>
        <pt x="342" y="411" on="0"/>
        <pt x="361" y="313" on="0"/>
        <pt x="381" y="208" on="0"/>
        <pt x="390" y="159" on="1"/>
        <pt x="426" y="218" on="0"/>
        <pt x="495" y="326" on="0"/>
        <pt x="555" y="419" on="0"/>
        <pt x="606" y="494" on="0"/>
        <pt x="624" y="520" on="1"/>
        <pt x="718" y="520" on="1"/>
        <pt x="714" y="466" on="0"/>
        <pt x="699" y="335" on="0"/>
        <pt x="680" y="197" on="0"/>
        <pt x="657" y="60" on="0"/>
        <pt x="645" y="0" on="1"/>
        <pt x="555" y="0" on="1"/>
        <pt x="573" y="88" on="0"/>
        <pt x="607" y="289" on="0"/>
        <pt x="623" y="395" on="1"/>
        <pt x="599" y="360" on="0"/>
        <pt x="539" y="269" on="0"/>
        <pt x="480" y="178" on="0"/>
        <pt x="429" y="96" on="0"/>
        <pt x="414" y="69" on="1"/>
        <pt x="334" y="69" on="1"/>
        <pt x="329" y="94" on="0"/>
        <pt x="313" y="176" on="0"/>
        <pt x="295" y="269" on="0"/>
        <pt x="276" y="361" on="0"/>
      </contour>
    </TTGlyph>
    <TTGlyph name="afii10079" xMin="76" yMin="0" xMax="612" yMax="520">
      <contour>
        <pt x="487" y="0" on="1"/>
        <pt x="394" y="0" on="1"/>
        <pt x="449" y="230" on="1"/>
        <pt x="224" y="230" on="1"/>
        <pt x="169" y="0" on="1"/>
        <pt x="76" y="0" on="1"/>
        <pt x="201" y="520" on="1"/>
        <pt x="294" y="520" on="1"/>
        <pt x="243" y="308" on="1"/>
        <pt x="468" y="308" on="1"/>
        <pt x="519" y="520" on="1"/>
        <pt x="612" y="520" on="1"/>
      </contour>
    </TTGlyph>
    <TTGlyph name="afii10080" xMin="100" yMin="-13" xMax="575" yMax="533">
      <component glyphName="o" x="0" y="0" flags="0x204"/>
    </TTGlyph>
    <TTGlyph name="afii10081" xMin="76" yMin="0" xMax="560" yMax="531">
      <component glyphName="n" x="0" y="0" flags="0x204"/>
    </TTGlyph>
    <TTGlyph name="afii10081.locl.ita" xMin="110" yMin="-13" xMax="639" yMax="706">
      <contour>
        <pt x="266" y="-13" on="1"/>
        <pt x="222" y="-13" on="0"/>
        <pt x="163" y="13" on="0"/>
        <pt x="126" y="57" on="0"/>
        <pt x="110" y="117" on="0"/>
        <pt x="110" y="151" on="1"/>
        <pt x="110" y="177" on="0"/>
        <pt x="119" y="228" on="0"/>
        <pt x="125" y="254" on="1"/>
        <pt x="189" y="520" on="1"/>
        <pt x="282" y="520" on="1"/>
        <pt x="223" y="274" on="1"/>
        <pt x="218" y="251" on="0"/>
        <pt x="202" y="189" on="0"/>
        <pt x="202" y="158" on="1"/>
        <pt x="202" y="140" on="0"/>
        <pt x="209" y="107" on="0"/>
        <pt x="228" y="82" on="0"/>
        <pt x="260" y="67" on="0"/>
        <pt x="284" y="67" on="1"/>
        <pt x="327" y="67" on="0"/>
        <pt x="392" y="104" on="0"/>
        <pt x="414" y="129" on="1"/>
        <pt x="415" y="145" on="0"/>
        <pt x="419" y="179" on="0"/>
        <pt x="424" y="199" on="1"/>
        <pt x="501" y="520" on="1"/>
        <pt x="594" y="520" on="1"/>
        <pt x="515" y="191" on="1"/>
        <pt x="510" y="168" on="0"/>
        <pt x="503" y="125" on="0"/>
        <pt x="503" y="102" on="1"/>
        <pt x="503" y="79" on="0"/>
        <pt x="511" y="33" on="0"/>
        <pt x="521" y="6" on="1"/>
        <pt x="439" y="-6" on="1"/>
        <pt x="434" y="5" on="0"/>
        <pt x="424" y="33" on="0"/>
        <pt x="421" y="49" on="1"/>
        <pt x="410" y="39" on="0"/>
        <pt x="380" y="17" on="0"/>
        <pt x="341" y="-1" on="0"/>
        <pt x="294" y="-13" on="0"/>
      </contour>
      <contour>
        <pt x="234" y="706" on="1"/>
        <pt x="639" y="706" on="1"/>
        <pt x="623" y="639" on="1"/>
        <pt x="218" y="639" on="1"/>
      </contour>
    </TTGlyph>
    <TTGlyph name="afii10082" xMin="32" yMin="-185" xMax="568" yMax="533">
      <component glyphName="p" x="0" y="0" flags="0x204"/>
    </TTGlyph>
    <TTGlyph name="afii10083" xMin="100" yMin="-13" xMax="532" yMax="533">
      <component glyphName="c" x="0" y="0" flags="0x204"/>
    </TTGlyph>
    <TTGlyph name="afii10084" xMin="76" yMin="0" xMax="836" yMax="531">
      <component glyphName="m" x="0" y="0" flags="0x204"/>
    </TTGlyph>
    <TTGlyph name="afii10084.locl.ita" xMin="113" yMin="-13" xMax="914" yMax="706">
      <contour>
        <pt x="553" y="-13" on="1"/>
        <pt x="513" y="-13" on="0"/>
        <pt x="457" y="15" on="0"/>
        <pt x="439" y="39" on="1"/>
        <pt x="428" y="32" on="0"/>
        <pt x="394" y="14" on="0"/>
        <pt x="350" y="-2" on="0"/>
        <pt x="298" y="-13" on="0"/>
        <pt x="270" y="-13" on="1"/>
        <pt x="195" y="-13" on="0"/>
        <pt x="113" y="76" on="0"/>
        <pt x="113" y="157" on="1"/>
        <pt x="113" y="204" on="0"/>
        <pt x="125" y="252" on="1"/>
        <pt x="190" y="520" on="1"/>
        <pt x="283" y="520" on="1"/>
        <pt x="223" y="272" on="1"/>
        <pt x="218" y="249" on="0"/>
        <pt x="206" y="192" on="0"/>
        <pt x="206" y="165" on="1"/>
        <pt x="206" y="145" on="0"/>
        <pt x="215" y="110" on="0"/>
        <pt x="236" y="83" on="0"/>
        <pt x="273" y="67" on="0"/>
        <pt x="301" y="67" on="1"/>
        <pt x="332" y="67" on="0"/>
        <pt x="392" y="91" on="0"/>
        <pt x="412" y="104" on="1"/>
        <pt x="408" y="121" on="0"/>
        <pt x="408" y="149" on="1"/>
        <pt x="408" y="174" on="0"/>
        <pt x="413" y="227" on="0"/>
        <pt x="420" y="254" on="1"/>
        <pt x="484" y="520" on="1"/>
        <pt x="577" y="520" on="1"/>
        <pt x="518" y="274" on="1"/>
        <pt x="513" y="252" on="0"/>
        <pt x="501" y="191" on="0"/>
        <pt x="501" y="160" on="1"/>
        <pt x="501" y="143" on="0"/>
        <pt x="509" y="109" on="0"/>
        <pt x="526" y="83" on="0"/>
        <pt x="554" y="67" on="0"/>
        <pt x="575" y="67" on="1"/>
        <pt x="613" y="67" on="0"/>
        <pt x="672" y="106" on="0"/>
        <pt x="692" y="129" on="1"/>
        <pt x="693" y="145" on="0"/>
        <pt x="697" y="179" on="0"/>
        <pt x="702" y="199" on="1"/>
        <pt x="779" y="520" on="1"/>
        <pt x="872" y="520" on="1"/>
        <pt x="793" y="191" on="1"/>
        <pt x="788" y="168" on="0"/>
        <pt x="781" y="125" on="0"/>
        <pt x="781" y="102" on="1"/>
        <pt x="781" y="79" on="0"/>
        <pt x="789" y="33" on="0"/>
        <pt x="799" y="6" on="1"/>
        <pt x="717" y="-6" on="1"/>
        <pt x="712" y="5" on="0"/>
        <pt x="702" y="33" on="0"/>
        <pt x="699" y="49" on="1"/>
        <pt x="688" y="40" on="0"/>
        <pt x="660" y="18" on="0"/>
        <pt x="624" y="-1" on="0"/>
        <pt x="579" y="-13" on="0"/>
      </contour>
      <contour>
        <pt x="233" y="706" on="1"/>
        <pt x="914" y="706" on="1"/>
        <pt x="898" y="639" on="1"/>
        <pt x="217" y="639" on="1"/>
      </contour>
    </TTGlyph>
    <TTGlyph name="afii10085" xMin="-56" yMin="-188" xMax="564" yMax="520">
      <component glyphName="y" x="0" y="0" flags="0x204"/>
    </TTGlyph>
    <TTGlyph name="afii10086" xMin="100" yMin="-185" xMax="750" yMax="776">
      <contour>
        <pt x="425" y="71" on="1"/>
        <pt x="473" y="72" on="0"/>
        <pt x="557" y="104" on="0"/>
        <pt x="621" y="164" on="0"/>
        <pt x="658" y="250" on="0"/>
        <pt x="658" y="306" on="1"/>
        <pt x="658" y="370" on="0"/>
        <pt x="594" y="446" on="0"/>
        <pt x="515" y="446" on="1"/>
      </contour>
      <contour>
        <pt x="425" y="448" on="1"/>
        <pt x="377" y="447" on="0"/>
        <pt x="293" y="415" on="0"/>
        <pt x="229" y="355" on="0"/>
        <pt x="192" y="268" on="0"/>
        <pt x="192" y="213" on="1"/>
        <pt x="192" y="149" on="0"/>
        <pt x="256" y="73" on="0"/>
        <pt x="335" y="73" on="1"/>
      </contour>
      <contour>
        <pt x="500" y="760" on="1"/>
        <pt x="594" y="776" on="1"/>
        <pt x="533" y="523" on="1"/>
        <pt x="639" y="520" on="0"/>
        <pt x="750" y="413" on="0"/>
        <pt x="750" y="313" on="1"/>
        <pt x="750" y="240" on="0"/>
        <pt x="699" y="123" on="0"/>
        <pt x="607" y="40" on="0"/>
        <pt x="481" y="-5" on="0"/>
        <pt x="406" y="-6" on="1"/>
        <pt x="363" y="-185" on="1"/>
        <pt x="273" y="-185" on="1"/>
        <pt x="317" y="-4" on="1"/>
        <pt x="211" y="-1" on="0"/>
        <pt x="100" y="106" on="0"/>
        <pt x="100" y="206" on="1"/>
        <pt x="100" y="279" on="0"/>
        <pt x="152" y="396" on="0"/>
        <pt x="243" y="479" on="0"/>
        <pt x="369" y="524" on="0"/>
        <pt x="444" y="525" on="1"/>
      </contour>
    </TTGlyph>
    <TTGlyph name="afii10087" xMin="12" yMin="0" xMax="556" yMax="520">
      <component glyphName="x" x="0" y="0" flags="0x204"/>
    </TTGlyph>
    <TTGlyph name="afii10088" xMin="110" yMin="-145" xMax="594" yMax="520">
      <contour>
        <pt x="535" y="-145" on="1"/>
        <pt x="448" y="-145" on="1"/>
        <pt x="487" y="9" on="1"/>
        <pt x="470" y="14" on="0"/>
        <pt x="444" y="37" on="0"/>
        <pt x="436" y="51" on="1"/>
        <pt x="427" y="42" on="0"/>
        <pt x="396" y="20" on="0"/>
        <pt x="354" y="0" on="0"/>
        <pt x="299" y="-13" on="0"/>
        <pt x="266" y="-13" on="1"/>
        <pt x="222" y="-13" on="0"/>
        <pt x="163" y="13" on="0"/>
        <pt x="126" y="57" on="0"/>
        <pt x="110" y="117" on="0"/>
        <pt x="110" y="151" on="1"/>
        <pt x="110" y="177" on="0"/>
        <pt x="119" y="228" on="0"/>
        <pt x="125" y="254" on="1"/>
        <pt x="189" y="520" on="1"/>
        <pt x="282" y="520" on="1"/>
        <pt x="223" y="274" on="1"/>
        <pt x="218" y="251" on="0"/>
        <pt x="202" y="189" on="0"/>
        <pt x="202" y="158" on="1"/>
        <pt x="202" y="140" on="0"/>
        <pt x="209" y="107" on="0"/>
        <pt x="228" y="82" on="0"/>
        <pt x="260" y="67" on="0"/>
        <pt x="284" y="67" on="1"/>
        <pt x="327" y="67" on="0"/>
        <pt x="392" y="100" on="0"/>
        <pt x="414" y="125" on="1"/>
        <pt x="416" y="164" on="0"/>
        <pt x="424" y="199" on="1"/>
        <pt x="501" y="520" on="1"/>
        <pt x="594" y="520" on="1"/>
        <pt x="514" y="190" on="1"/>
        <pt x="510" y="173" on="0"/>
        <pt x="505" y="145" on="0"/>
        <pt x="505" y="131" on="1"/>
        <pt x="505" y="119" on="0"/>
        <pt x="510" y="97" on="0"/>
        <pt x="528" y="79" on="0"/>
        <pt x="561" y="67" on="0"/>
        <pt x="588" y="64" on="1"/>
      </contour>
    </TTGlyph>
    <TTGlyph name="afii10089" xMin="110" yMin="0" xMax="555" yMax="520">
      <contour>
        <pt x="248" y="520" on="1"/>
        <pt x="211" y="372" on="1"/>
        <pt x="208" y="360" on="0"/>
        <pt x="204" y="334" on="0"/>
        <pt x="204" y="325" on="1"/>
        <pt x="204" y="291" on="0"/>
        <pt x="244" y="259" on="0"/>
        <pt x="292" y="259" on="1"/>
        <pt x="330" y="259" on="0"/>
        <pt x="387" y="274" on="0"/>
        <pt x="404" y="280" on="1"/>
        <pt x="462" y="520" on="1"/>
        <pt x="555" y="520" on="1"/>
        <pt x="430" y="0" on="1"/>
        <pt x="337" y="0" on="1"/>
        <pt x="386" y="204" on="1"/>
        <pt x="372" y="198" on="0"/>
        <pt x="307" y="184" on="0"/>
        <pt x="275" y="184" on="1"/>
        <pt x="193" y="184" on="0"/>
        <pt x="110" y="248" on="0"/>
        <pt x="110" y="309" on="1"/>
        <pt x="110" y="322" on="0"/>
        <pt x="114" y="356" on="0"/>
        <pt x="118" y="371" on="1"/>
        <pt x="155" y="520" on="1"/>
      </contour>
    </TTGlyph>
    <TTGlyph name="afii10090" xMin="113" yMin="-13" xMax="872" yMax="520">
      <contour>
        <pt x="553" y="-13" on="1"/>
        <pt x="513" y="-13" on="0"/>
        <pt x="457" y="15" on="0"/>
        <pt x="439" y="39" on="1"/>
        <pt x="428" y="32" on="0"/>
        <pt x="394" y="14" on="0"/>
        <pt x="350" y="-2" on="0"/>
        <pt x="298" y="-13" on="0"/>
        <pt x="270" y="-13" on="1"/>
        <pt x="195" y="-13" on="0"/>
        <pt x="113" y="76" on="0"/>
        <pt x="113" y="157" on="1"/>
        <pt x="113" y="204" on="0"/>
        <pt x="125" y="252" on="1"/>
        <pt x="190" y="520" on="1"/>
        <pt x="283" y="520" on="1"/>
        <pt x="223" y="272" on="1"/>
        <pt x="218" y="249" on="0"/>
        <pt x="206" y="192" on="0"/>
        <pt x="206" y="165" on="1"/>
        <pt x="206" y="145" on="0"/>
        <pt x="215" y="110" on="0"/>
        <pt x="236" y="83" on="0"/>
        <pt x="273" y="67" on="0"/>
        <pt x="301" y="67" on="1"/>
        <pt x="332" y="67" on="0"/>
        <pt x="392" y="91" on="0"/>
        <pt x="412" y="104" on="1"/>
        <pt x="408" y="121" on="0"/>
        <pt x="408" y="149" on="1"/>
        <pt x="408" y="174" on="0"/>
        <pt x="413" y="227" on="0"/>
        <pt x="420" y="254" on="1"/>
        <pt x="484" y="520" on="1"/>
        <pt x="577" y="520" on="1"/>
        <pt x="518" y="274" on="1"/>
        <pt x="513" y="252" on="0"/>
        <pt x="501" y="191" on="0"/>
        <pt x="501" y="160" on="1"/>
        <pt x="501" y="143" on="0"/>
        <pt x="509" y="109" on="0"/>
        <pt x="526" y="83" on="0"/>
        <pt x="554" y="67" on="0"/>
        <pt x="575" y="67" on="1"/>
        <pt x="613" y="67" on="0"/>
        <pt x="672" y="106" on="0"/>
        <pt x="692" y="129" on="1"/>
        <pt x="693" y="145" on="0"/>
        <pt x="697" y="179" on="0"/>
        <pt x="702" y="199" on="1"/>
        <pt x="779" y="520" on="1"/>
        <pt x="872" y="520" on="1"/>
        <pt x="793" y="191" on="1"/>
        <pt x="788" y="168" on="0"/>
        <pt x="781" y="125" on="0"/>
        <pt x="781" y="102" on="1"/>
        <pt x="781" y="79" on="0"/>
        <pt x="789" y="33" on="0"/>
        <pt x="799" y="6" on="1"/>
        <pt x="717" y="-6" on="1"/>
        <pt x="712" y="5" on="0"/>
        <pt x="702" y="33" on="0"/>
        <pt x="699" y="49" on="1"/>
        <pt x="688" y="40" on="0"/>
        <pt x="660" y="18" on="0"/>
        <pt x="624" y="-1" on="0"/>
        <pt x="579" y="-13" on="0"/>
      </contour>
    </TTGlyph>
    <TTGlyph name="afii10091" xMin="113" yMin="-145" xMax="872" yMax="520">
      <contour>
        <pt x="715" y="48" on="1"/>
        <pt x="708" y="41" on="0"/>
        <pt x="680" y="20" on="0"/>
        <pt x="640" y="1" on="0"/>
        <pt x="586" y="-13" on="0"/>
        <pt x="553" y="-13" on="1"/>
        <pt x="513" y="-13" on="0"/>
        <pt x="457" y="15" on="0"/>
        <pt x="439" y="39" on="1"/>
        <pt x="428" y="32" on="0"/>
        <pt x="394" y="14" on="0"/>
        <pt x="350" y="-2" on="0"/>
        <pt x="298" y="-13" on="0"/>
        <pt x="270" y="-13" on="1"/>
        <pt x="195" y="-13" on="0"/>
        <pt x="113" y="76" on="0"/>
        <pt x="113" y="157" on="1"/>
        <pt x="113" y="204" on="0"/>
        <pt x="125" y="252" on="1"/>
        <pt x="190" y="520" on="1"/>
        <pt x="283" y="520" on="1"/>
        <pt x="223" y="272" on="1"/>
        <pt x="218" y="249" on="0"/>
        <pt x="206" y="192" on="0"/>
        <pt x="206" y="165" on="1"/>
        <pt x="206" y="145" on="0"/>
        <pt x="215" y="110" on="0"/>
        <pt x="236" y="83" on="0"/>
        <pt x="273" y="67" on="0"/>
        <pt x="301" y="67" on="1"/>
        <pt x="332" y="67" on="0"/>
        <pt x="392" y="91" on="0"/>
        <pt x="412" y="104" on="1"/>
        <pt x="408" y="121" on="0"/>
        <pt x="408" y="149" on="1"/>
        <pt x="408" y="174" on="0"/>
        <pt x="413" y="227" on="0"/>
        <pt x="420" y="254" on="1"/>
        <pt x="484" y="520" on="1"/>
        <pt x="577" y="520" on="1"/>
        <pt x="518" y="274" on="1"/>
        <pt x="513" y="252" on="0"/>
        <pt x="501" y="191" on="0"/>
        <pt x="501" y="160" on="1"/>
        <pt x="501" y="143" on="0"/>
        <pt x="509" y="109" on="0"/>
        <pt x="526" y="83" on="0"/>
        <pt x="554" y="67" on="0"/>
        <pt x="575" y="67" on="1"/>
        <pt x="616" y="67" on="0"/>
        <pt x="675" y="104" on="0"/>
        <pt x="692" y="121" on="1"/>
        <pt x="694" y="164" on="0"/>
        <pt x="702" y="199" on="1"/>
        <pt x="779" y="520" on="1"/>
        <pt x="872" y="520" on="1"/>
        <pt x="792" y="190" on="1"/>
        <pt x="788" y="173" on="0"/>
        <pt x="783" y="145" on="0"/>
        <pt x="783" y="131" on="1"/>
        <pt x="783" y="119" on="0"/>
        <pt x="788" y="97" on="0"/>
        <pt x="806" y="79" on="0"/>
        <pt x="839" y="67" on="0"/>
        <pt x="866" y="64" on="1"/>
        <pt x="813" y="-145" on="1"/>
        <pt x="726" y="-145" on="1"/>
        <pt x="765" y="9" on="1"/>
        <pt x="748" y="14" on="0"/>
        <pt x="722" y="37" on="0"/>
      </contour>
    </TTGlyph>
    <TTGlyph name="afii10092" xMin="120" yMin="-11" xMax="590" yMax="520">
      <contour>
        <pt x="315" y="322" on="1"/>
        <pt x="333" y="326" on="0"/>
        <pt x="387" y="333" on="0"/>
        <pt x="410" y="333" on="1"/>
        <pt x="495" y="333" on="0"/>
        <pt x="590" y="265" on="0"/>
        <pt x="590" y="192" on="1"/>
        <pt x="590" y="136" on="0"/>
        <pt x="548" y="59" on="0"/>
        <pt x="477" y="11" on="0"/>
        <pt x="383" y="-11" on="0"/>
        <pt x="331" y="-11" on="1"/>
        <pt x="280" y="-11" on="0"/>
        <pt x="183" y="1" on="0"/>
        <pt x="146" y="15" on="1"/>
        <pt x="252" y="442" on="1"/>
        <pt x="120" y="442" on="1"/>
        <pt x="139" y="520" on="1"/>
        <pt x="364" y="520" on="1"/>
      </contour>
      <contour>
        <pt x="384" y="259" on="1"/>
        <pt x="360" y="259" on="0"/>
        <pt x="313" y="254" on="0"/>
        <pt x="297" y="250" on="1"/>
        <pt x="252" y="69" on="1"/>
        <pt x="266" y="67" on="0"/>
        <pt x="305" y="63" on="0"/>
        <pt x="339" y="63" on="1"/>
        <pt x="411" y="63" on="0"/>
        <pt x="498" y="122" on="0"/>
        <pt x="498" y="182" on="1"/>
        <pt x="498" y="220" on="0"/>
        <pt x="445" y="259" on="0"/>
      </contour>
    </TTGlyph>
    <TTGlyph name="afii10093" xMin="79" yMin="-11" xMax="790" yMax="520">
      <contour>
        <pt x="200" y="520" on="1"/>
        <pt x="293" y="520" on="1"/>
        <pt x="245" y="321" on="1"/>
        <pt x="264" y="326" on="0"/>
        <pt x="319" y="333" on="0"/>
        <pt x="339" y="333" on="1"/>
        <pt x="420" y="333" on="0"/>
        <pt x="515" y="265" on="0"/>
        <pt x="515" y="192" on="1"/>
        <pt x="515" y="137" on="0"/>
        <pt x="474" y="60" on="0"/>
        <pt x="404" y="11" on="0"/>
        <pt x="312" y="-11" on="0"/>
        <pt x="262" y="-11" on="1"/>
        <pt x="213" y="-11" on="0"/>
        <pt x="117" y="1" on="0"/>
        <pt x="79" y="15" on="1"/>
      </contour>
      <contour>
        <pt x="665" y="0" on="1"/>
        <pt x="572" y="0" on="1"/>
        <pt x="697" y="520" on="1"/>
        <pt x="790" y="520" on="1"/>
      </contour>
      <contour>
        <pt x="270" y="63" on="1"/>
        <pt x="340" y="63" on="0"/>
        <pt x="423" y="122" on="0"/>
        <pt x="423" y="182" on="1"/>
        <pt x="423" y="220" on="0"/>
        <pt x="372" y="259" on="0"/>
        <pt x="314" y="259" on="1"/>
        <pt x="289" y="259" on="0"/>
        <pt x="244" y="254" on="0"/>
        <pt x="228" y="250" on="1"/>
        <pt x="185" y="69" on="1"/>
        <pt x="199" y="67" on="0"/>
        <pt x="237" y="63" on="0"/>
      </contour>
    </TTGlyph>
    <TTGlyph name="afii10094" xMin="79" yMin="-11" xMax="523" yMax="520">
      <contour>
        <pt x="343" y="333" on="1"/>
        <pt x="428" y="333" on="0"/>
        <pt x="523" y="265" on="0"/>
        <pt x="523" y="192" on="1"/>
        <pt x="523" y="136" on="0"/>
        <pt x="481" y="59" on="0"/>
        <pt x="410" y="11" on="0"/>
        <pt x="316" y="-11" on="0"/>
        <pt x="264" y="-11" on="1"/>
        <pt x="213" y="-11" on="0"/>
        <pt x="116" y="1" on="0"/>
        <pt x="79" y="15" on="1"/>
        <pt x="200" y="520" on="1"/>
        <pt x="293" y="520" on="1"/>
        <pt x="245" y="321" on="1"/>
        <pt x="263" y="326" on="0"/>
        <pt x="320" y="333" on="0"/>
      </contour>
      <contour>
        <pt x="185" y="69" on="1"/>
        <pt x="199" y="67" on="0"/>
        <pt x="238" y="63" on="0"/>
        <pt x="272" y="63" on="1"/>
        <pt x="344" y="63" on="0"/>
        <pt x="431" y="122" on="0"/>
        <pt x="431" y="182" on="1"/>
        <pt x="431" y="220" on="0"/>
        <pt x="378" y="259" on="0"/>
        <pt x="317" y="259" on="1"/>
        <pt x="292" y="259" on="0"/>
        <pt x="245" y="254" on="0"/>
        <pt x="228" y="250" on="1"/>
      </contour>
    </TTGlyph>
    <TTGlyph name="afii10095" xMin="30" yMin="-13" xMax="479" yMax="533">
      <contour>
        <pt x="387" y="305" on="1"/>
        <pt x="387" y="318" on="1"/>
        <pt x="387" y="378" on="0"/>
        <pt x="331" y="452" on="0"/>
        <pt x="259" y="452" on="1"/>
        <pt x="242" y="452" on="0"/>
        <pt x="206" y="447" on="0"/>
        <pt x="174" y="439" on="0"/>
        <pt x="149" y="429" on="0"/>
        <pt x="143" y="425" on="1"/>
        <pt x="137" y="505" on="1"/>
        <pt x="150" y="511" on="0"/>
        <pt x="227" y="533" on="0"/>
        <pt x="279" y="533" on="1"/>
        <pt x="333" y="533" on="0"/>
        <pt x="409" y="498" on="0"/>
        <pt x="457" y="441" on="0"/>
        <pt x="479" y="368" on="0"/>
        <pt x="479" y="331" on="1"/>
        <pt x="479" y="262" on="0"/>
        <pt x="444" y="137" on="0"/>
        <pt x="368" y="43" on="0"/>
        <pt x="250" y="-13" on="0"/>
        <pt x="166" y="-13" on="1"/>
        <pt x="120" y="-13" on="0"/>
        <pt x="51" y="3" on="0"/>
        <pt x="30" y="15" on="1"/>
        <pt x="59" y="94" on="1"/>
        <pt x="75" y="86" on="0"/>
        <pt x="128" y="68" on="0"/>
        <pt x="173" y="68" on="1"/>
        <pt x="216" y="68" on="0"/>
        <pt x="284" y="92" on="0"/>
        <pt x="335" y="136" on="0"/>
        <pt x="369" y="195" on="0"/>
        <pt x="378" y="230" on="1"/>
        <pt x="160" y="230" on="1"/>
        <pt x="178" y="305" on="1"/>
      </contour>
    </TTGlyph>
    <TTGlyph name="afii10096" xMin="76" yMin="-13" xMax="792" yMax="533">
      <contour>
        <pt x="241" y="305" on="1"/>
        <pt x="351" y="305" on="1"/>
        <pt x="364" y="350" on="0"/>
        <pt x="411" y="432" on="0"/>
        <pt x="478" y="495" on="0"/>
        <pt x="568" y="533" on="0"/>
        <pt x="624" y="533" on="1"/>
        <pt x="702" y="533" on="0"/>
        <pt x="792" y="437" on="0"/>
        <pt x="792" y="352" on="1"/>
        <pt x="792" y="294" on="0"/>
        <pt x="759" y="166" on="0"/>
        <pt x="688" y="58" on="0"/>
        <pt x="576" y="-13" on="0"/>
        <pt x="497" y="-13" on="1"/>
        <pt x="419" y="-13" on="0"/>
        <pt x="330" y="83" on="0"/>
        <pt x="330" y="168" on="1"/>
        <pt x="330" y="183" on="0"/>
        <pt x="332" y="214" on="0"/>
        <pt x="334" y="230" on="1"/>
        <pt x="223" y="230" on="1"/>
        <pt x="168" y="0" on="1"/>
        <pt x="76" y="0" on="1"/>
        <pt x="201" y="520" on="1"/>
        <pt x="293" y="520" on="1"/>
      </contour>
      <contour>
        <pt x="515" y="67" on="1"/>
        <pt x="558" y="67" on="0"/>
        <pt x="627" y="119" on="0"/>
        <pt x="674" y="200" on="0"/>
        <pt x="699" y="297" on="0"/>
        <pt x="699" y="343" on="1"/>
        <pt x="699" y="394" on="0"/>
        <pt x="657" y="453" on="0"/>
        <pt x="606" y="453" on="1"/>
        <pt x="562" y="453" on="0"/>
        <pt x="494" y="401" on="0"/>
        <pt x="447" y="320" on="0"/>
        <pt x="422" y="223" on="0"/>
        <pt x="422" y="177" on="1"/>
        <pt x="422" y="126" on="0"/>
        <pt x="464" y="67" on="0"/>
      </contour>
    </TTGlyph>
    <TTGlyph name="afii10097" xMin="38" yMin="0" xMax="579" yMax="531">
      <contour>
        <pt x="38" y="0" on="1"/>
        <pt x="80" y="57" on="0"/>
        <pt x="168" y="167" on="0"/>
        <pt x="213" y="219" on="1"/>
        <pt x="179" y="233" on="0"/>
        <pt x="137" y="290" on="0"/>
        <pt x="137" y="335" on="1"/>
        <pt x="137" y="386" on="0"/>
        <pt x="181" y="460" on="0"/>
        <pt x="254" y="508" on="0"/>
        <pt x="350" y="531" on="0"/>
        <pt x="402" y="531" on="1"/>
        <pt x="450" y="531" on="0"/>
        <pt x="542" y="519" on="0"/>
        <pt x="579" y="505" on="1"/>
        <pt x="458" y="0" on="1"/>
        <pt x="366" y="0" on="1"/>
        <pt x="414" y="202" on="1"/>
        <pt x="352" y="202" on="1"/>
        <pt x="337" y="202" on="0"/>
        <pt x="311" y="202" on="0"/>
        <pt x="299" y="203" on="1"/>
        <pt x="261" y="157" on="0"/>
        <pt x="179" y="51" on="0"/>
        <pt x="143" y="0" on="1"/>
      </contour>
      <contour>
        <pt x="431" y="271" on="1"/>
        <pt x="474" y="451" on="1"/>
        <pt x="460" y="453" on="0"/>
        <pt x="423" y="457" on="0"/>
        <pt x="394" y="457" on="1"/>
        <pt x="359" y="457" on="0"/>
        <pt x="299" y="444" on="0"/>
        <pt x="255" y="415" on="0"/>
        <pt x="230" y="372" on="0"/>
        <pt x="230" y="342" on="1"/>
        <pt x="230" y="303" on="0"/>
        <pt x="284" y="271" on="0"/>
        <pt x="336" y="271" on="1"/>
      </contour>
    </TTGlyph>
    <TTGlyph name="afii10098" xMin="76" yMin="0" xMax="546" yMax="650">
      <contour>
        <pt x="430" y="520" on="1"/>
        <pt x="462" y="650" on="1"/>
        <pt x="546" y="650" on="1"/>
        <pt x="496" y="442" on="1"/>
        <pt x="275" y="442" on="1"/>
        <pt x="169" y="0" on="1"/>
        <pt x="76" y="0" on="1"/>
        <pt x="201" y="520" on="1"/>
      </contour>
    </TTGlyph>
    <TTGlyph name="afii10099" xMin="76" yMin="-187" xMax="560" yMax="776">
      <contour>
        <pt x="448" y="242" on="1"/>
        <pt x="455" y="270" on="0"/>
        <pt x="468" y="328" on="0"/>
        <pt x="468" y="354" on="1"/>
        <pt x="468" y="394" on="0"/>
        <pt x="424" y="447" on="0"/>
        <pt x="364" y="447" on="1"/>
        <pt x="340" y="447" on="0"/>
        <pt x="289" y="438" on="0"/>
        <pt x="272" y="430" on="1"/>
        <pt x="169" y="0" on="1"/>
        <pt x="76" y="0" on="1"/>
        <pt x="224" y="614" on="1"/>
        <pt x="150" y="614" on="1"/>
        <pt x="166" y="683" on="1"/>
        <pt x="240" y="683" on="1"/>
        <pt x="259" y="760" on="1"/>
        <pt x="356" y="776" on="1"/>
        <pt x="333" y="683" on="1"/>
        <pt x="490" y="683" on="1"/>
        <pt x="474" y="614" on="1"/>
        <pt x="316" y="614" on="1"/>
        <pt x="291" y="509" on="1"/>
        <pt x="314" y="517" on="0"/>
        <pt x="365" y="527" on="0"/>
        <pt x="391" y="527" on="1"/>
        <pt x="436" y="527" on="0"/>
        <pt x="501" y="502" on="0"/>
        <pt x="541" y="459" on="0"/>
        <pt x="560" y="398" on="0"/>
        <pt x="560" y="362" on="1"/>
        <pt x="560" y="318" on="0"/>
        <pt x="546" y="262" on="1"/>
        <pt x="483" y="0" on="1"/>
        <pt x="472" y="-46" on="0"/>
        <pt x="448" y="-116" on="0"/>
        <pt x="407" y="-163" on="0"/>
        <pt x="345" y="-187" on="0"/>
        <pt x="296" y="-187" on="1"/>
        <pt x="282" y="-187" on="0"/>
        <pt x="242" y="-179" on="0"/>
        <pt x="234" y="-174" on="1"/>
        <pt x="258" y="-104" on="1"/>
        <pt x="264" y="-107" on="0"/>
        <pt x="286" y="-112" on="0"/>
        <pt x="300" y="-112" on="1"/>
        <pt x="339" y="-112" on="0"/>
        <pt x="375" y="-62" on="0"/>
        <pt x="386" y="-17" on="1"/>
      </contour>
    </TTGlyph>
    <TTGlyph name="afii10100" xMin="73" yMin="-13" xMax="477" yMax="780">
      <component glyphName="afii10068" x="0" y="0" flags="0x204"/>
      <component glyphName="acute" x="6" y="0" flags="0x4"/>
    </TTGlyph>
    <TTGlyph name="afii10101" xMin="99" yMin="-13" xMax="544" yMax="533">
      <contour>
        <pt x="307" y="-13" on="1"/>
        <pt x="252" y="-13" on="0"/>
        <pt x="173" y="18" on="0"/>
        <pt x="123" y="71" on="0"/>
        <pt x="99" y="143" on="0"/>
        <pt x="99" y="184" on="1"/>
        <pt x="99" y="254" on="0"/>
        <pt x="141" y="381" on="0"/>
        <pt x="224" y="477" on="0"/>
        <pt x="344" y="533" on="0"/>
        <pt x="422" y="533" on="1"/>
        <pt x="458" y="533" on="0"/>
        <pt x="517" y="524" on="0"/>
        <pt x="544" y="511" on="1"/>
        <pt x="509" y="433" on="1"/>
        <pt x="493" y="442" on="0"/>
        <pt x="448" y="452" on="0"/>
        <pt x="409" y="452" on="1"/>
        <pt x="337" y="452" on="0"/>
        <pt x="237" y="375" on="0"/>
        <pt x="211" y="305" on="1"/>
        <pt x="427" y="305" on="1"/>
        <pt x="409" y="230" on="1"/>
        <pt x="193" y="230" on="1"/>
        <pt x="190" y="207" on="0"/>
        <pt x="190" y="185" on="1"/>
        <pt x="190" y="133" on="0"/>
        <pt x="248" y="68" on="0"/>
        <pt x="319" y="68" on="1"/>
        <pt x="340" y="68" on="0"/>
        <pt x="381" y="75" on="0"/>
        <pt x="416" y="85" on="0"/>
        <pt x="443" y="96" on="0"/>
        <pt x="449" y="101" on="1"/>
        <pt x="457" y="22" on="1"/>
        <pt x="438" y="10" on="0"/>
        <pt x="358" y="-13" on="0"/>
      </contour>
    </TTGlyph>
    <TTGlyph name="afii10102" xMin="38" yMin="-13" xMax="476" yMax="533">
      <component glyphName="s" x="0" y="0" flags="0x204"/>
    </TTGlyph>
    <TTGlyph name="afii10103" xMin="76" yMin="0" xMax="343" yMax="736">
      <component glyphName="i" x="0" y="0" flags="0x204"/>
    </TTGlyph>
    <TTGlyph name="afii10104" xMin="76" yMin="0" xMax="440" yMax="734">
      <component glyphName="dotlessi" x="0" y="0" flags="0x204"/>
      <component glyphName="dieresis" x="-63" y="0" flags="0x4"/>
    </TTGlyph>
    <TTGlyph name="afii10105" xMin="-111" yMin="-188" xMax="344" yMax="736">
      <component glyphName="j" x="0" y="0" flags="0x204"/>
    </TTGlyph>
    <TTGlyph name="afii10106" xMin="29" yMin="-11" xMax="828" yMax="520">
      <contour>
        <pt x="495" y="442" on="1"/>
        <pt x="338" y="442" on="1"/>
        <pt x="330" y="409" on="0"/>
        <pt x="311" y="334" on="0"/>
        <pt x="289" y="259" on="0"/>
        <pt x="265" y="186" on="0"/>
        <pt x="251" y="154" on="1"/>
        <pt x="234" y="115" on="0"/>
        <pt x="194" y="57" on="0"/>
        <pt x="141" y="16" on="0"/>
        <pt x="74" y="-6" on="0"/>
        <pt x="29" y="-9" on="1"/>
        <pt x="29" y="68" on="1"/>
        <pt x="56" y="70" on="0"/>
        <pt x="97" y="86" on="0"/>
        <pt x="127" y="110" on="0"/>
        <pt x="149" y="140" on="0"/>
        <pt x="157" y="155" on="1"/>
        <pt x="178" y="195" on="0"/>
        <pt x="210" y="286" on="0"/>
        <pt x="235" y="381" on="0"/>
        <pt x="255" y="476" on="0"/>
        <pt x="264" y="520" on="1"/>
        <pt x="607" y="520" on="1"/>
        <pt x="559" y="321" on="1"/>
        <pt x="577" y="326" on="0"/>
        <pt x="632" y="333" on="0"/>
        <pt x="652" y="333" on="1"/>
        <pt x="733" y="333" on="0"/>
        <pt x="828" y="265" on="0"/>
        <pt x="828" y="192" on="1"/>
        <pt x="828" y="137" on="0"/>
        <pt x="787" y="60" on="0"/>
        <pt x="717" y="11" on="0"/>
        <pt x="625" y="-11" on="0"/>
        <pt x="575" y="-11" on="1"/>
        <pt x="526" y="-11" on="0"/>
        <pt x="430" y="1" on="0"/>
        <pt x="392" y="15" on="1"/>
      </contour>
      <contour>
        <pt x="583" y="63" on="1"/>
        <pt x="653" y="63" on="0"/>
        <pt x="736" y="122" on="0"/>
        <pt x="736" y="182" on="1"/>
        <pt x="736" y="220" on="0"/>
        <pt x="685" y="259" on="0"/>
        <pt x="627" y="259" on="1"/>
        <pt x="602" y="259" on="0"/>
        <pt x="557" y="254" on="0"/>
        <pt x="541" y="250" on="1"/>
        <pt x="498" y="69" on="1"/>
        <pt x="512" y="67" on="0"/>
        <pt x="550" y="63" on="0"/>
      </contour>
    </TTGlyph>
    <TTGlyph name="afii10107" xMin="76" yMin="-11" xMax="833" yMax="520">
      <contour>
        <pt x="519" y="520" on="1"/>
        <pt x="612" y="520" on="1"/>
        <pt x="564" y="321" on="1"/>
        <pt x="582" y="326" on="0"/>
        <pt x="637" y="333" on="0"/>
        <pt x="657" y="333" on="1"/>
        <pt x="738" y="333" on="0"/>
        <pt x="833" y="265" on="0"/>
        <pt x="833" y="192" on="1"/>
        <pt x="833" y="137" on="0"/>
        <pt x="792" y="60" on="0"/>
        <pt x="722" y="11" on="0"/>
        <pt x="630" y="-11" on="0"/>
        <pt x="580" y="-11" on="1"/>
        <pt x="531" y="-11" on="0"/>
        <pt x="435" y="1" on="0"/>
        <pt x="397" y="15" on="1"/>
        <pt x="449" y="232" on="1"/>
        <pt x="225" y="232" on="1"/>
        <pt x="169" y="0" on="1"/>
        <pt x="76" y="0" on="1"/>
        <pt x="201" y="520" on="1"/>
        <pt x="294" y="520" on="1"/>
        <pt x="243" y="310" on="1"/>
        <pt x="468" y="310" on="1"/>
      </contour>
      <contour>
        <pt x="588" y="63" on="1"/>
        <pt x="658" y="63" on="0"/>
        <pt x="741" y="122" on="0"/>
        <pt x="741" y="182" on="1"/>
        <pt x="741" y="220" on="0"/>
        <pt x="690" y="259" on="0"/>
        <pt x="632" y="259" on="1"/>
        <pt x="607" y="259" on="0"/>
        <pt x="562" y="254" on="0"/>
        <pt x="546" y="250" on="1"/>
        <pt x="503" y="69" on="1"/>
        <pt x="517" y="67" on="0"/>
        <pt x="555" y="63" on="0"/>
      </contour>
    </TTGlyph>
    <TTGlyph name="afii10108" xMin="76" yMin="0" xMax="560" yMax="776">
      <component glyphName="hbar" x="0" y="0" flags="0x204"/>
    </TTGlyph>
    <TTGlyph name="afii10109" xMin="76" yMin="0" xMax="608" yMax="780">
      <component glyphName="afii10076" x="0" y="0" flags="0x204"/>
      <component glyphName="acute" x="89" y="0" flags="0x4"/>
    </TTGlyph>
    <TTGlyph name="afii10110" xMin="-56" yMin="-188" xMax="564" yMax="744">
      <component glyphName="y" x="0" y="0" flags="0x204"/>
      <component glyphName="kratka" x="25" y="0" flags="0x4"/>
    </TTGlyph>
    <TTGlyph name="afii10145" xMin="81" yMin="-185" xMax="756" yMax="693">
      <contour>
        <pt x="81" y="0" on="1"/>
        <pt x="248" y="693" on="1"/>
        <pt x="345" y="693" on="1"/>
        <pt x="198" y="81" on="1"/>
        <pt x="512" y="81" on="1"/>
        <pt x="659" y="693" on="1"/>
        <pt x="756" y="693" on="1"/>
        <pt x="590" y="0" on="1"/>
        <pt x="380" y="0" on="1"/>
        <pt x="336" y="-185" on="1"/>
        <pt x="246" y="-185" on="1"/>
        <pt x="291" y="0" on="1"/>
      </contour>
    </TTGlyph>
    <TTGlyph name="afii10193" xMin="110" yMin="-185" xMax="594" yMax="520">
      <contour>
        <pt x="266" y="-13" on="1"/>
        <pt x="222" y="-13" on="0"/>
        <pt x="163" y="13" on="0"/>
        <pt x="126" y="57" on="0"/>
        <pt x="110" y="117" on="0"/>
        <pt x="110" y="151" on="1"/>
        <pt x="110" y="177" on="0"/>
        <pt x="119" y="228" on="0"/>
        <pt x="125" y="254" on="1"/>
        <pt x="189" y="520" on="1"/>
        <pt x="282" y="520" on="1"/>
        <pt x="223" y="274" on="1"/>
        <pt x="218" y="251" on="0"/>
        <pt x="202" y="189" on="0"/>
        <pt x="202" y="158" on="1"/>
        <pt x="202" y="140" on="0"/>
        <pt x="209" y="107" on="0"/>
        <pt x="228" y="82" on="0"/>
        <pt x="260" y="67" on="0"/>
        <pt x="284" y="67" on="1"/>
        <pt x="327" y="67" on="0"/>
        <pt x="392" y="104" on="0"/>
        <pt x="414" y="129" on="1"/>
        <pt x="415" y="145" on="0"/>
        <pt x="419" y="179" on="0"/>
        <pt x="424" y="199" on="1"/>
        <pt x="501" y="520" on="1"/>
        <pt x="594" y="520" on="1"/>
        <pt x="515" y="191" on="1"/>
        <pt x="510" y="168" on="0"/>
        <pt x="503" y="125" on="0"/>
        <pt x="503" y="102" on="1"/>
        <pt x="503" y="79" on="0"/>
        <pt x="511" y="33" on="0"/>
        <pt x="521" y="6" on="1"/>
        <pt x="439" y="-6" on="1"/>
        <pt x="434" y="5" on="0"/>
        <pt x="424" y="33" on="0"/>
        <pt x="421" y="49" on="1"/>
        <pt x="410" y="39" on="0"/>
        <pt x="380" y="17" on="0"/>
        <pt x="341" y="-1" on="0"/>
        <pt x="294" y="-13" on="0"/>
      </contour>
      <contour>
        <pt x="349" y="-42" on="1"/>
        <pt x="308" y="-185" on="1"/>
        <pt x="220" y="-185" on="1"/>
        <pt x="261" y="-42" on="1"/>
      </contour>
    </TTGlyph>
    <TTGlyph name="afii61289" xMin="76" yMin="-15" xMax="497" yMax="776">
      <contour>
        <pt x="178" y="255" on="1"/>
        <pt x="178" y="544" on="1"/>
        <pt x="178" y="613" on="0"/>
        <pt x="205" y="703" on="0"/>
        <pt x="251" y="755" on="0"/>
        <pt x="310" y="776" on="0"/>
        <pt x="343" y="776" on="1"/>
        <pt x="385" y="776" on="0"/>
        <pt x="438" y="744" on="0"/>
        <pt x="468" y="695" on="0"/>
        <pt x="478" y="634" on="0"/>
        <pt x="478" y="605" on="1"/>
        <pt x="478" y="552" on="0"/>
        <pt x="448" y="455" on="0"/>
        <pt x="394" y="366" on="0"/>
        <pt x="317" y="283" on="0"/>
        <pt x="270" y="244" on="1"/>
        <pt x="270" y="200" on="1"/>
        <pt x="270" y="131" on="0"/>
        <pt x="317" y="66" on="0"/>
        <pt x="368" y="66" on="1"/>
        <pt x="400" y="66" on="0"/>
        <pt x="443" y="90" on="0"/>
        <pt x="460" y="103" on="1"/>
        <pt x="497" y="34" on="1"/>
        <pt x="472" y="12" on="0"/>
        <pt x="400" y="-15" on="0"/>
        <pt x="352" y="-15" on="1"/>
        <pt x="302" y="-15" on="0"/>
        <pt x="236" y="15" on="0"/>
        <pt x="195" y="65" on="0"/>
        <pt x="178" y="131" on="0"/>
        <pt x="178" y="167" on="1"/>
        <pt x="178" y="175" on="1"/>
        <pt x="112" y="128" on="1"/>
        <pt x="76" y="181" on="1"/>
      </contour>
      <contour>
        <pt x="270" y="327" on="1"/>
        <pt x="333" y="385" on="0"/>
        <pt x="406" y="521" on="0"/>
        <pt x="406" y="606" on="1"/>
        <pt x="406" y="622" on="0"/>
        <pt x="402" y="656" on="0"/>
        <pt x="388" y="683" on="0"/>
        <pt x="364" y="700" on="0"/>
        <pt x="345" y="700" on="1"/>
        <pt x="330" y="700" on="0"/>
        <pt x="303" y="688" on="0"/>
        <pt x="282" y="655" on="0"/>
        <pt x="270" y="596" on="0"/>
        <pt x="270" y="548" on="1"/>
      </contour>
    </TTGlyph>
</ttFont>
